{"glyphs":{"0":{"ha":481,"x_min":69,"x_max":412,"o":"m 240 -15 q 155 38 194 -15 q 93 202 116 91 q 69 485 69 313 q 93 769 69 658 q 155 934 116 880 q 240 988 194 988 q 326 934 288 988 q 389 769 365 880 q 412 485 412 658 q 389 202 412 313 q 326 38 365 91 q 240 -15 288 -15 m 240 28 q 289 58 266 28 q 331 147 313 88 q 360 291 349 206 q 370 485 370 376 q 360 680 370 594 q 331 825 349 765 q 289 915 313 884 q 240 946 266 946 q 192 915 215 946 q 150 825 169 884 q 122 680 132 765 q 111 485 111 594 q 122 291 111 376 q 150 147 132 206 q 192 58 169 88 q 240 28 215 28 z "},"1":{"ha":318,"x_min":56,"x_max":258,"o":"m 59 0 l 59 42 l 136 42 l 136 878 q 119 853 134 866 q 86 831 104 840 q 56 817 68 821 l 56 869 q 83 883 70 874 q 106 907 95 892 q 124 945 116 922 q 138 1001 133 968 l 178 1001 l 178 42 l 258 42 l 258 0 l 59 0 z "},"2":{"ha":422,"x_min":43,"x_max":365,"o":"m 270 -8 q 233 -1 249 -8 q 203 13 217 5 q 175 26 190 20 q 142 33 161 33 q 102 22 116 33 q 87 0 89 10 l 43 0 q 63 189 43 108 q 114 335 83 271 q 181 451 145 399 q 247 552 216 504 q 298 652 278 601 q 318 765 318 703 q 301 877 318 839 q 257 930 285 916 q 194 944 228 944 q 147 930 167 944 q 114 896 126 916 q 102 858 102 876 q 103 836 102 844 q 104 823 103 829 q 105 804 105 817 q 98 775 105 783 q 80 767 90 767 q 62 776 69 767 q 54 815 54 786 q 70 898 54 859 q 121 963 87 938 q 207 988 155 988 q 262 978 234 988 q 313 945 290 969 q 350 880 336 922 q 365 772 365 838 q 351 663 365 710 q 316 574 338 615 q 267 496 294 534 q 212 416 240 458 q 159 324 184 374 q 116 210 134 274 q 92 63 99 147 q 102 70 95 66 q 120 77 109 74 q 148 81 132 81 q 186 70 165 81 q 228 50 208 60 q 265 40 249 40 q 305 61 290 40 q 319 142 319 83 l 361 142 l 361 124 q 350 52 361 81 q 319 8 340 23 q 270 -8 299 -8 z "},"3":{"ha":426,"x_min":54,"x_max":372,"o":"m 199 -17 q 115 8 147 -17 q 69 73 83 33 q 54 158 54 113 q 62 195 54 185 q 81 205 70 205 q 97 196 91 205 q 103 164 103 187 q 103 144 103 151 q 101 128 102 137 q 101 105 101 120 q 126 52 101 78 q 194 25 152 25 q 260 44 231 25 q 308 111 290 63 q 326 247 326 159 q 305 380 326 331 q 257 451 285 428 q 205 480 228 474 q 176 486 182 486 l 176 531 q 206 537 182 531 q 258 567 230 544 q 308 640 287 590 q 328 774 328 689 q 295 900 328 855 q 201 946 261 946 q 130 922 158 946 q 102 872 102 897 q 102 844 102 853 q 103 827 103 834 q 103 807 103 819 q 97 775 103 784 q 81 767 91 767 q 62 776 70 767 q 54 815 54 786 q 70 898 54 859 q 120 963 86 938 q 207 988 154 988 q 296 960 259 988 q 352 885 333 933 q 372 774 372 837 q 359 668 372 717 q 325 585 347 620 q 279 530 304 549 q 228 509 253 510 q 279 490 253 508 q 325 436 304 471 q 359 354 347 401 q 372 249 372 306 q 354 120 372 181 q 297 22 335 60 q 199 -17 259 -17 z "},"4":{"ha":380,"x_min":28,"x_max":338,"o":"m 134 0 l 134 42 l 212 42 l 212 259 l 28 259 l 28 301 l 181 876 q 196 934 188 903 q 212 991 204 964 l 253 991 l 253 301 l 272 301 q 293 319 288 301 q 299 380 299 337 l 338 380 l 338 259 l 253 259 l 253 42 l 332 42 l 332 0 l 134 0 m 71 298 l 69 301 l 213 301 l 213 847 l 185 728 l 71 298 z "},"5":{"ha":483,"x_min":68,"x_max":388,"o":"m 210 -17 q 126 8 158 -17 q 82 73 95 33 q 68 158 68 113 q 76 195 68 185 q 94 205 84 205 q 111 196 105 205 q 117 164 117 187 q 116 144 117 151 q 114 130 115 137 q 113 110 113 123 q 120 73 113 93 q 147 39 128 53 q 202 24 167 24 q 282 54 252 24 q 324 146 311 84 q 337 302 337 208 q 327 433 337 381 q 302 513 318 484 q 265 554 285 542 q 221 566 244 566 q 166 553 187 566 q 134 517 146 540 q 111 463 122 494 l 69 471 l 105 972 l 147 972 q 170 944 151 958 q 215 920 188 930 q 272 910 242 910 q 333 927 313 910 q 353 972 353 944 l 388 972 q 372 910 388 933 q 329 878 356 888 q 272 869 303 869 q 222 875 244 869 q 183 890 200 881 q 157 907 167 899 q 144 919 147 915 l 119 547 q 137 577 124 562 q 173 602 150 592 q 228 613 196 613 q 288 596 260 613 q 338 543 316 579 q 373 448 360 507 q 385 303 385 388 q 369 146 385 208 q 327 49 353 84 q 270 -2 301 13 q 210 -17 239 -17 z "},"6":{"ha":455,"x_min":63,"x_max":394,"o":"m 227 -17 q 143 24 175 -17 q 93 133 110 64 q 69 287 76 201 q 63 465 63 373 q 70 647 63 555 q 97 816 78 739 q 151 940 116 893 q 241 988 186 988 q 303 963 276 988 q 345 898 330 938 q 360 815 360 859 q 352 776 360 786 q 333 767 344 767 q 315 778 323 767 q 307 812 307 790 q 308 836 307 828 q 310 852 309 844 q 310 874 310 860 q 301 908 310 892 q 276 934 292 924 q 236 944 260 944 q 182 917 204 944 q 145 844 160 890 q 123 742 131 799 q 111 626 115 685 q 108 514 108 567 q 129 555 112 531 q 176 596 147 578 q 244 614 206 614 q 310 593 282 614 q 357 534 338 573 q 385 438 376 494 q 394 310 394 382 q 384 181 394 241 q 353 77 374 122 q 301 8 333 33 q 227 -17 270 -17 m 227 24 q 288 51 261 24 q 329 141 314 78 q 344 310 344 203 q 335 458 344 401 q 302 540 326 514 q 235 566 278 566 q 174 543 201 566 q 131 483 148 519 q 110 404 115 446 q 116 261 110 329 q 136 139 122 192 q 172 55 149 85 q 227 24 194 24 z "},"7":{"ha":431,"x_min":57,"x_max":390,"o":"m 187 -14 q 169 -4 175 -14 q 162 28 164 6 q 160 83 160 49 q 179 288 160 189 q 225 479 198 388 q 281 652 253 570 q 327 805 308 734 q 346 935 346 876 q 334 931 344 933 q 307 926 324 928 q 269 924 291 924 q 226 929 244 924 q 194 938 208 933 q 165 942 180 942 q 135 937 151 942 q 108 914 119 933 q 96 850 97 894 l 57 850 l 57 972 l 390 972 q 388 928 390 951 q 382 879 386 904 q 372 826 378 853 q 359 771 366 799 q 344 715 352 743 q 318 630 332 672 q 290 547 304 588 q 236 341 260 458 q 213 83 213 224 q 211 28 213 49 q 204 -4 210 6 q 187 -14 199 -14 z "},"8":{"ha":455,"x_min":54,"x_max":390,"o":"m 216 -14 q 156 -1 185 -14 q 104 39 126 12 q 68 111 81 67 q 54 217 54 155 q 70 335 54 283 q 110 423 86 386 q 158 485 133 460 q 199 522 183 509 l 227 497 q 177 444 207 478 q 123 356 147 410 q 100 224 100 302 q 134 72 100 117 q 219 26 169 26 q 308 73 271 26 q 346 217 346 119 q 332 329 346 285 q 287 411 319 372 q 201 501 256 449 q 143 572 172 530 q 95 667 114 615 q 76 779 76 720 q 94 885 76 838 q 147 961 113 933 q 224 989 180 989 q 296 967 263 989 q 348 899 328 945 q 367 779 367 853 q 353 674 367 720 q 317 595 338 628 q 275 540 296 561 q 240 508 253 518 l 210 531 q 254 575 227 544 q 303 658 281 607 q 324 781 324 709 q 315 862 324 824 q 283 925 305 901 q 224 949 261 949 q 166 926 190 949 q 131 864 143 902 q 119 779 119 825 q 135 681 119 728 q 177 593 151 633 q 236 525 204 553 q 291 472 264 501 q 341 408 319 443 q 377 327 363 372 q 390 225 390 283 q 376 120 390 165 q 338 45 363 75 q 282 1 313 16 q 216 -14 251 -14 z "},"9":{"ha":455,"x_min":63,"x_max":394,"o":"m 230 988 q 314 947 282 988 q 364 838 347 907 q 388 684 381 769 q 394 506 394 598 q 386 324 394 416 q 360 155 379 232 q 306 31 341 78 q 216 -17 271 -17 q 154 8 181 -17 q 112 73 127 33 q 97 156 97 113 q 105 194 97 185 q 124 204 113 204 q 142 193 134 204 q 150 159 150 181 q 149 135 150 143 q 148 119 149 126 q 147 97 147 111 q 156 64 147 80 q 181 37 165 47 q 221 26 198 26 q 275 53 253 26 q 312 126 297 81 q 334 229 326 172 q 345 344 342 285 q 349 457 349 403 q 328 417 346 440 q 281 375 310 393 q 213 357 252 357 q 147 377 175 357 q 100 437 119 398 q 72 533 81 476 q 63 660 63 589 q 73 790 63 730 q 104 894 83 849 q 156 963 124 938 q 230 988 188 988 m 230 947 q 169 920 196 947 q 128 831 143 893 q 113 660 113 768 q 122 513 113 569 q 155 431 131 457 q 222 405 179 405 q 283 428 256 405 q 326 488 309 451 q 347 567 343 525 q 341 710 347 642 q 321 832 335 778 q 285 916 308 885 q 230 947 263 947 z "},"A":{"ha":443,"x_min":10,"x_max":435,"o":"m 10 0 l 10 42 l 65 42 l 191 975 l 247 975 l 367 42 l 435 42 l 435 0 l 259 0 l 259 42 l 323 42 l 219 885 l 217 885 l 108 42 l 164 42 l 164 0 l 10 0 m 120 249 l 120 289 l 310 289 l 310 249 l 120 249 z "},"Á":{"ha":443,"x_min":10,"x_max":435,"o":"m 10 0 l 10 42 l 65 42 l 191 975 l 247 975 l 367 42 l 435 42 l 435 0 l 259 0 l 259 42 l 323 42 l 219 885 l 217 885 l 108 42 l 164 42 l 164 0 l 10 0 m 120 249 l 120 289 l 310 289 l 310 249 l 120 249 m 141 1004 l 124 1023 l 239 1113 q 260 1126 249 1120 q 281 1132 272 1132 q 294 1129 288 1132 q 303 1119 300 1126 q 306 1108 306 1114 q 293 1083 306 1094 q 263 1065 279 1072 l 141 1004 z "},"Ă":{"ha":443,"x_min":10,"x_max":435,"o":"m 10 0 l 10 42 l 65 42 l 191 975 l 247 975 l 367 42 l 435 42 l 435 0 l 259 0 l 259 42 l 323 42 l 219 885 l 217 885 l 108 42 l 164 42 l 164 0 l 10 0 m 120 249 l 120 289 l 310 289 l 310 249 l 120 249 m 217 1038 q 154 1055 178 1038 q 119 1099 130 1071 q 108 1163 108 1128 l 147 1163 q 167 1101 149 1123 q 217 1080 184 1080 q 269 1101 251 1080 q 289 1163 286 1123 l 328 1163 q 317 1099 328 1128 q 282 1055 306 1071 q 217 1038 257 1038 z "},"Ắ":{"ha":443,"x_min":10,"x_max":435,"o":"m 10 0 l 10 42 l 65 42 l 191 975 l 247 975 l 367 42 l 435 42 l 435 0 l 259 0 l 259 42 l 323 42 l 219 885 l 217 885 l 108 42 l 164 42 l 164 0 l 10 0 m 120 249 l 120 289 l 310 289 l 310 249 l 120 249 m 217 1038 q 154 1055 178 1038 q 119 1099 130 1071 q 108 1163 108 1128 l 147 1163 q 167 1101 149 1123 q 217 1080 184 1080 q 269 1101 251 1080 q 289 1163 286 1123 l 328 1163 q 317 1099 328 1128 q 282 1055 306 1071 q 217 1038 257 1038 m 141 1196 l 124 1215 l 239 1304 q 260 1318 249 1312 q 281 1324 272 1324 q 294 1320 288 1324 q 303 1310 300 1317 q 306 1299 306 1306 q 293 1275 306 1286 q 263 1256 279 1264 l 141 1196 z "},"Ặ":{"ha":443,"x_min":10,"x_max":435,"o":"m 10 0 l 10 42 l 65 42 l 191 975 l 247 975 l 367 42 l 435 42 l 435 0 l 259 0 l 259 42 l 323 42 l 219 885 l 217 885 l 108 42 l 164 42 l 164 0 l 10 0 m 120 249 l 120 289 l 310 289 l 310 249 l 120 249 m 221 -174 q 190 -161 203 -174 q 176 -131 176 -148 q 190 -99 176 -112 q 221 -85 203 -85 q 252 -99 238 -85 q 265 -131 265 -112 q 252 -161 265 -148 q 221 -174 238 -174 m 217 1038 q 154 1055 178 1038 q 119 1099 130 1071 q 108 1163 108 1128 l 147 1163 q 167 1101 149 1123 q 217 1080 184 1080 q 269 1101 251 1080 q 289 1163 286 1123 l 328 1163 q 317 1099 328 1128 q 282 1055 306 1071 q 217 1038 257 1038 z "},"Ằ":{"ha":443,"x_min":10,"x_max":435,"o":"m 10 0 l 10 42 l 65 42 l 191 975 l 247 975 l 367 42 l 435 42 l 435 0 l 259 0 l 259 42 l 323 42 l 219 885 l 217 885 l 108 42 l 164 42 l 164 0 l 10 0 m 120 249 l 120 289 l 310 289 l 310 249 l 120 249 m 217 1038 q 154 1055 178 1038 q 119 1099 130 1071 q 108 1163 108 1128 l 147 1163 q 167 1101 149 1123 q 217 1080 184 1080 q 269 1101 251 1080 q 289 1163 286 1123 l 328 1163 q 317 1099 328 1128 q 282 1055 306 1071 q 217 1038 257 1038 m 299 1196 l 165 1258 q 140 1272 149 1265 q 131 1294 131 1279 q 139 1315 131 1308 q 161 1322 148 1322 q 183 1317 174 1322 q 201 1305 192 1313 l 313 1213 l 299 1196 z "},"Ẳ":{"ha":443,"x_min":10,"x_max":435,"o":"m 10 0 l 10 42 l 65 42 l 191 975 l 247 975 l 367 42 l 435 42 l 435 0 l 259 0 l 259 42 l 323 42 l 219 885 l 217 885 l 108 42 l 164 42 l 164 0 l 10 0 m 120 249 l 120 289 l 310 289 l 310 249 l 120 249 m 217 1038 q 154 1055 178 1038 q 119 1099 130 1071 q 108 1163 108 1128 l 147 1163 q 167 1101 149 1123 q 217 1080 184 1080 q 269 1101 251 1080 q 289 1163 286 1123 l 328 1163 q 317 1099 328 1128 q 282 1055 306 1071 q 217 1038 257 1038 m 215 1399 q 280 1381 252 1399 q 307 1327 307 1363 q 290 1276 307 1297 q 255 1241 272 1256 q 237 1210 237 1226 l 198 1210 q 214 1253 198 1237 q 244 1285 229 1270 q 260 1324 260 1301 q 244 1354 260 1347 q 203 1361 228 1361 q 170 1356 187 1361 q 144 1342 154 1350 l 117 1370 q 159 1391 130 1384 q 215 1399 188 1399 z "},"Ẵ":{"ha":443,"x_min":10,"x_max":435,"o":"m 10 0 l 10 42 l 65 42 l 191 975 l 247 975 l 367 42 l 435 42 l 435 0 l 259 0 l 259 42 l 323 42 l 219 885 l 217 885 l 108 42 l 164 42 l 164 0 l 10 0 m 120 249 l 120 289 l 310 289 l 310 249 l 120 249 m 217 1038 q 154 1055 178 1038 q 119 1099 130 1071 q 108 1163 108 1128 l 147 1163 q 167 1101 149 1123 q 217 1080 184 1080 q 269 1101 251 1080 q 289 1163 286 1123 l 328 1163 q 317 1099 328 1128 q 282 1055 306 1071 q 217 1038 257 1038 m 278 1213 q 233 1225 251 1213 q 200 1251 215 1238 q 165 1264 184 1264 q 135 1249 145 1264 q 121 1224 124 1233 l 82 1247 q 95 1275 85 1260 q 122 1303 106 1291 q 162 1315 139 1315 q 208 1301 188 1315 q 244 1275 227 1288 q 279 1262 261 1262 q 304 1274 295 1262 q 318 1294 313 1285 l 356 1267 q 342 1243 352 1256 q 316 1221 332 1230 q 278 1213 300 1213 z "},"Â":{"ha":443,"x_min":10,"x_max":435,"o":"m 10 0 l 10 42 l 65 42 l 191 975 l 247 975 l 367 42 l 435 42 l 435 0 l 259 0 l 259 42 l 323 42 l 219 885 l 217 885 l 108 42 l 164 42 l 164 0 l 10 0 m 120 249 l 120 289 l 310 289 l 310 249 l 120 249 m 92 1011 l 194 1156 l 244 1156 l 345 1011 l 303 1011 l 219 1110 l 134 1011 l 92 1011 z "},"Ấ":{"ha":443,"x_min":10,"x_max":448,"o":"m 10 0 l 10 42 l 65 42 l 191 975 l 247 975 l 367 42 l 435 42 l 435 0 l 259 0 l 259 42 l 323 42 l 219 885 l 217 885 l 108 42 l 164 42 l 164 0 l 10 0 m 120 249 l 120 289 l 310 289 l 310 249 l 120 249 m 92 1015 l 194 1132 l 244 1132 l 345 1015 l 303 1015 l 219 1086 l 134 1015 l 92 1015 m 307 1123 l 293 1139 l 390 1215 q 426 1231 410 1231 q 437 1228 432 1231 q 445 1220 442 1226 q 448 1210 448 1217 q 436 1190 448 1199 q 411 1174 424 1181 l 307 1123 z "},"Ậ":{"ha":443,"x_min":10,"x_max":435,"o":"m 10 0 l 10 42 l 65 42 l 191 975 l 247 975 l 367 42 l 435 42 l 435 0 l 259 0 l 259 42 l 323 42 l 219 885 l 217 885 l 108 42 l 164 42 l 164 0 l 10 0 m 120 249 l 120 289 l 310 289 l 310 249 l 120 249 m 221 -174 q 190 -161 203 -174 q 176 -131 176 -148 q 190 -99 176 -112 q 221 -85 203 -85 q 252 -99 238 -85 q 265 -131 265 -112 q 252 -161 265 -148 q 221 -174 238 -174 m 92 1011 l 194 1156 l 244 1156 l 345 1011 l 303 1011 l 219 1110 l 134 1011 l 92 1011 z "},"Ầ":{"ha":443,"x_min":10,"x_max":435,"o":"m 10 0 l 10 42 l 65 42 l 191 975 l 247 975 l 367 42 l 435 42 l 435 0 l 259 0 l 259 42 l 323 42 l 219 885 l 217 885 l 108 42 l 164 42 l 164 0 l 10 0 m 120 249 l 120 289 l 310 289 l 310 249 l 120 249 m 92 1015 l 194 1132 l 244 1132 l 345 1015 l 303 1015 l 219 1086 l 134 1015 l 92 1015 m 358 1116 l 242 1169 q 221 1181 229 1175 q 213 1201 213 1188 q 221 1218 213 1213 q 240 1224 228 1224 q 259 1220 251 1224 q 274 1210 267 1217 l 370 1131 l 358 1116 z "},"Ẩ":{"ha":443,"x_min":10,"x_max":435,"o":"m 10 0 l 10 42 l 65 42 l 191 975 l 247 975 l 367 42 l 435 42 l 435 0 l 259 0 l 259 42 l 323 42 l 219 885 l 217 885 l 108 42 l 164 42 l 164 0 l 10 0 m 120 249 l 120 289 l 310 289 l 310 249 l 120 249 m 91 1015 l 193 1133 l 242 1133 l 344 1015 l 302 1015 l 217 1087 l 133 1015 l 91 1015 m 321 1251 q 372 1237 350 1251 q 394 1194 394 1223 q 380 1154 394 1170 q 352 1126 366 1138 q 338 1101 338 1115 l 307 1101 q 319 1135 307 1122 q 344 1161 332 1149 q 356 1192 356 1174 q 344 1216 356 1210 q 311 1222 331 1222 q 285 1217 298 1222 q 265 1206 272 1213 l 243 1228 q 276 1245 253 1240 q 321 1251 299 1251 z "},"Ẫ":{"ha":443,"x_min":10,"x_max":435,"o":"m 10 0 l 10 42 l 65 42 l 191 975 l 247 975 l 367 42 l 435 42 l 435 0 l 259 0 l 259 42 l 323 42 l 219 885 l 217 885 l 108 42 l 164 42 l 164 0 l 10 0 m 120 249 l 120 289 l 310 289 l 310 249 l 120 249 m 92 1015 l 194 1133 l 244 1133 l 345 1015 l 303 1015 l 219 1087 l 134 1015 l 92 1015 m 278 1160 q 232 1173 251 1160 q 194 1199 212 1186 q 158 1212 177 1212 q 126 1197 138 1212 q 110 1172 113 1181 l 75 1190 q 90 1220 78 1203 q 120 1250 102 1237 q 162 1263 139 1263 q 208 1249 188 1263 q 245 1223 228 1236 q 282 1210 263 1210 q 312 1222 302 1210 q 327 1242 322 1233 l 363 1222 q 347 1196 359 1210 q 318 1171 335 1181 q 278 1160 300 1160 z "},"Ä":{"ha":443,"x_min":10,"x_max":435,"o":"m 10 0 l 10 42 l 65 42 l 191 975 l 247 975 l 367 42 l 435 42 l 435 0 l 259 0 l 259 42 l 323 42 l 219 885 l 217 885 l 108 42 l 164 42 l 164 0 l 10 0 m 120 249 l 120 289 l 310 289 l 310 249 l 120 249 m 293 1040 q 262 1053 275 1040 q 249 1083 249 1066 q 262 1116 249 1102 q 293 1130 275 1130 q 324 1116 310 1130 q 337 1083 337 1102 q 324 1053 337 1066 q 293 1040 310 1040 m 144 1040 q 114 1053 127 1040 q 100 1083 100 1066 q 114 1116 100 1102 q 144 1130 127 1130 q 176 1116 162 1130 q 190 1083 190 1102 q 176 1053 190 1066 q 144 1040 162 1040 z "},"Ạ":{"ha":443,"x_min":10,"x_max":435,"o":"m 10 0 l 10 42 l 65 42 l 191 975 l 247 975 l 367 42 l 435 42 l 435 0 l 259 0 l 259 42 l 323 42 l 219 885 l 217 885 l 108 42 l 164 42 l 164 0 l 10 0 m 120 249 l 120 289 l 310 289 l 310 249 l 120 249 m 221 -174 q 190 -161 203 -174 q 176 -131 176 -148 q 190 -99 176 -112 q 221 -85 203 -85 q 252 -99 238 -85 q 265 -131 265 -112 q 252 -161 265 -148 q 221 -174 238 -174 z "},"À":{"ha":443,"x_min":10,"x_max":435,"o":"m 10 0 l 10 42 l 65 42 l 191 975 l 247 975 l 367 42 l 435 42 l 435 0 l 259 0 l 259 42 l 323 42 l 219 885 l 217 885 l 108 42 l 164 42 l 164 0 l 10 0 m 120 249 l 120 289 l 310 289 l 310 249 l 120 249 m 299 1004 l 165 1066 q 140 1081 149 1074 q 131 1103 131 1088 q 139 1123 131 1117 q 161 1130 148 1130 q 183 1125 174 1130 q 201 1113 192 1121 l 313 1022 l 299 1004 z "},"Ả":{"ha":443,"x_min":10,"x_max":435,"o":"m 10 0 l 10 42 l 65 42 l 191 975 l 247 975 l 367 42 l 435 42 l 435 0 l 259 0 l 259 42 l 323 42 l 219 885 l 217 885 l 108 42 l 164 42 l 164 0 l 10 0 m 120 249 l 120 289 l 310 289 l 310 249 l 120 249 m 215 1207 q 280 1189 252 1207 q 307 1135 307 1172 q 290 1085 307 1105 q 255 1050 272 1065 q 237 1018 237 1035 l 198 1018 q 214 1062 198 1045 q 244 1094 229 1078 q 260 1132 260 1109 q 244 1163 260 1156 q 203 1169 228 1169 q 170 1164 187 1169 q 144 1150 154 1158 l 117 1178 q 159 1200 130 1192 q 215 1207 188 1207 z "},"Ā":{"ha":443,"x_min":9,"x_max":435,"o":"m 10 0 l 10 42 l 65 42 l 191 975 l 247 975 l 367 42 l 435 42 l 435 0 l 259 0 l 259 42 l 323 42 l 219 885 l 217 885 l 108 42 l 164 42 l 164 0 l 10 0 m 120 249 l 120 289 l 310 289 l 310 249 l 120 249 m 9 1064 l 9 1106 l 428 1106 l 428 1064 l 9 1064 z "},"Ą":{"ha":443,"x_min":10,"x_max":551,"o":"m 10 0 l 10 42 l 65 42 l 191 975 l 247 975 l 367 42 l 435 42 l 435 0 l 259 0 l 259 42 l 323 42 l 219 885 l 217 885 l 108 42 l 164 42 l 164 0 l 10 0 m 120 249 l 120 289 l 310 289 l 310 249 l 120 249 m 442 -197 q 391 -188 417 -197 q 347 -158 365 -179 q 329 -101 329 -137 q 345 -50 329 -72 q 382 -11 361 -27 q 419 13 403 6 l 435 0 q 403 -39 422 -13 q 384 -97 384 -64 q 407 -145 384 -135 q 454 -154 431 -154 q 494 -150 470 -154 q 533 -137 517 -146 l 551 -166 q 507 -187 536 -177 q 442 -197 478 -197 z "},"Å":{"ha":443,"x_min":10,"x_max":435,"o":"m 10 0 l 10 42 l 65 42 l 191 975 l 247 975 l 367 42 l 435 42 l 435 0 l 259 0 l 259 42 l 323 42 l 219 885 l 217 885 l 108 42 l 164 42 l 164 0 l 10 0 m 120 249 l 120 289 l 310 289 l 310 249 l 120 249 m 219 1014 q 167 1036 188 1014 q 147 1096 147 1059 q 167 1156 147 1134 q 219 1178 188 1178 q 271 1156 250 1178 q 292 1096 292 1134 q 271 1036 292 1059 q 219 1014 250 1014 m 219 1042 q 248 1058 239 1042 q 256 1097 256 1074 q 248 1134 256 1118 q 219 1150 239 1150 q 191 1134 201 1150 q 182 1097 182 1118 q 191 1058 182 1074 q 219 1042 201 1042 z "},"Ã":{"ha":443,"x_min":10,"x_max":435,"o":"m 10 0 l 10 42 l 65 42 l 191 975 l 247 975 l 367 42 l 435 42 l 435 0 l 259 0 l 259 42 l 323 42 l 219 885 l 217 885 l 108 42 l 164 42 l 164 0 l 10 0 m 120 249 l 120 289 l 310 289 l 310 249 l 120 249 m 278 1021 q 233 1034 251 1021 q 200 1059 215 1047 q 165 1072 184 1072 q 135 1057 145 1072 q 121 1032 124 1042 l 82 1055 q 95 1084 85 1068 q 122 1111 106 1099 q 162 1123 139 1123 q 208 1110 188 1123 q 244 1083 227 1097 q 279 1070 261 1070 q 304 1082 295 1070 q 318 1103 313 1094 l 356 1076 q 342 1051 352 1064 q 316 1030 332 1038 q 278 1021 300 1021 z "},"Æ":{"ha":658,"x_min":13,"x_max":596,"o":"m 263 0 l 263 42 l 326 42 l 326 972 l 596 972 l 596 803 l 554 803 q 551 880 554 852 q 531 919 547 908 q 477 931 515 931 l 367 931 l 367 522 l 540 522 l 540 591 l 581 591 l 581 412 l 540 412 l 540 480 l 367 480 l 367 42 l 469 42 q 529 53 511 42 q 550 94 547 65 q 554 172 554 122 l 596 172 l 596 0 l 263 0 m 144 219 l 147 261 l 342 261 l 340 219 l 144 219 m 13 0 l 13 42 l 56 42 l 295 972 l 337 972 l 102 42 l 153 42 l 153 0 l 13 0 z "},"B":{"ha":453,"x_min":42,"x_max":413,"o":"m 42 0 l 42 42 l 107 42 l 107 931 l 42 931 l 42 972 l 218 972 q 283 960 253 972 q 337 922 314 948 q 373 855 360 896 q 386 756 386 814 q 377 657 386 700 q 353 584 369 614 q 316 537 337 554 q 270 515 294 520 q 321 499 296 515 q 367 453 346 483 q 400 376 388 422 q 413 265 413 329 q 392 123 413 183 q 336 32 372 64 q 249 0 299 0 l 42 0 m 149 42 l 242 42 q 302 62 274 42 q 349 131 331 82 q 367 267 367 181 q 344 399 367 349 q 286 471 320 449 q 219 494 252 494 l 149 494 l 149 42 m 149 535 l 219 535 q 278 557 251 535 q 324 626 306 578 q 342 756 342 674 q 323 870 342 833 q 276 919 304 908 q 219 931 248 931 l 149 931 l 149 535 z "},"C":{"ha":401,"x_min":42,"x_max":378,"o":"m 245 -14 q 100 111 158 -14 q 42 485 42 236 q 55 661 42 572 q 94 823 68 749 q 159 942 120 897 q 250 988 199 988 q 308 962 284 988 q 345 897 333 936 q 358 815 358 857 q 351 776 358 786 q 331 767 343 767 q 309 776 317 767 q 301 807 301 786 q 303 830 301 819 q 307 853 305 840 q 309 889 309 867 q 293 931 309 915 q 256 946 276 946 q 197 918 224 946 q 149 842 169 890 q 115 734 128 794 q 93 610 101 674 q 86 486 86 546 q 94 327 86 399 q 118 199 103 255 q 153 106 133 144 q 196 48 173 67 q 245 28 219 28 q 290 46 271 28 q 320 90 308 65 q 340 138 333 116 l 378 122 q 349 58 367 90 q 304 7 330 27 q 245 -14 278 -14 z "},"Ć":{"ha":401,"x_min":42,"x_max":378,"o":"m 245 -14 q 100 111 158 -14 q 42 485 42 236 q 55 661 42 572 q 94 823 68 749 q 159 942 120 897 q 250 988 199 988 q 308 962 284 988 q 345 897 333 936 q 358 815 358 857 q 351 776 358 786 q 331 767 343 767 q 309 776 317 767 q 301 807 301 786 q 303 830 301 819 q 307 853 305 840 q 309 889 309 867 q 293 931 309 915 q 256 946 276 946 q 197 918 224 946 q 149 842 169 890 q 115 734 128 794 q 93 610 101 674 q 86 486 86 546 q 94 327 86 399 q 118 199 103 255 q 153 106 133 144 q 196 48 173 67 q 245 28 219 28 q 290 46 271 28 q 320 90 308 65 q 340 138 333 116 l 378 122 q 349 58 367 90 q 304 7 330 27 q 245 -14 278 -14 m 167 1004 l 150 1023 l 265 1113 q 286 1126 274 1120 q 307 1132 297 1132 q 320 1129 314 1132 q 329 1119 326 1126 q 332 1108 332 1114 q 318 1083 332 1094 q 289 1065 305 1072 l 167 1004 z "},"Č":{"ha":401,"x_min":42,"x_max":378,"o":"m 245 -14 q 100 111 158 -14 q 42 485 42 236 q 55 661 42 572 q 94 823 68 749 q 159 942 120 897 q 250 988 199 988 q 308 962 284 988 q 345 897 333 936 q 358 815 358 857 q 351 776 358 786 q 331 767 343 767 q 309 776 317 767 q 301 807 301 786 q 303 830 301 819 q 307 853 305 840 q 309 889 309 867 q 293 931 309 915 q 256 946 276 946 q 197 918 224 946 q 149 842 169 890 q 115 734 128 794 q 93 610 101 674 q 86 486 86 546 q 94 327 86 399 q 118 199 103 255 q 153 106 133 144 q 196 48 173 67 q 245 28 219 28 q 290 46 271 28 q 320 90 308 65 q 340 138 333 116 l 378 122 q 349 58 367 90 q 304 7 330 27 q 245 -14 278 -14 m 220 1017 l 118 1162 l 160 1162 l 244 1063 l 329 1162 l 371 1162 l 269 1017 l 220 1017 z "},"Ç":{"ha":401,"x_min":42,"x_max":378,"o":"m 245 -14 q 100 111 158 -14 q 42 485 42 236 q 55 661 42 572 q 94 823 68 749 q 159 942 120 897 q 250 988 199 988 q 308 962 284 988 q 345 897 333 936 q 358 815 358 857 q 351 776 358 786 q 331 767 343 767 q 309 776 317 767 q 301 807 301 786 q 303 830 301 819 q 307 853 305 840 q 309 889 309 867 q 293 931 309 915 q 256 946 276 946 q 197 918 224 946 q 149 842 169 890 q 115 734 128 794 q 93 610 101 674 q 86 486 86 546 q 94 327 86 399 q 118 199 103 255 q 153 106 133 144 q 196 48 173 67 q 245 28 219 28 q 290 46 271 28 q 320 90 308 65 q 340 138 333 116 l 378 122 q 349 58 367 90 q 304 7 330 27 q 245 -14 278 -14 m 256 -194 q 193 -188 217 -194 q 158 -176 169 -181 l 173 -142 q 201 -153 180 -147 q 258 -159 222 -159 q 299 -149 280 -159 q 318 -119 318 -139 q 305 -92 318 -99 q 274 -86 292 -86 q 248 -91 263 -86 q 223 -106 233 -97 l 183 -103 l 227 0 l 269 0 l 235 -71 q 254 -59 238 -66 q 288 -53 269 -53 q 336 -68 314 -53 q 358 -120 358 -83 q 340 -166 358 -149 q 299 -188 323 -182 q 256 -194 275 -194 z "},"Ḉ":{"ha":401,"x_min":42,"x_max":378,"o":"m 245 -14 q 100 111 158 -14 q 42 485 42 236 q 55 661 42 572 q 94 823 68 749 q 159 942 120 897 q 250 988 199 988 q 308 962 284 988 q 345 897 333 936 q 358 815 358 857 q 351 776 358 786 q 331 767 343 767 q 309 776 317 767 q 301 807 301 786 q 303 830 301 819 q 307 853 305 840 q 309 889 309 867 q 293 931 309 915 q 256 946 276 946 q 197 918 224 946 q 149 842 169 890 q 115 734 128 794 q 93 610 101 674 q 86 486 86 546 q 94 327 86 399 q 118 199 103 255 q 153 106 133 144 q 196 48 173 67 q 245 28 219 28 q 290 46 271 28 q 320 90 308 65 q 340 138 333 116 l 378 122 q 349 58 367 90 q 304 7 330 27 q 245 -14 278 -14 m 256 -194 q 193 -188 217 -194 q 158 -176 169 -181 l 173 -142 q 201 -153 180 -147 q 258 -159 222 -159 q 299 -149 280 -159 q 318 -119 318 -139 q 305 -92 318 -99 q 274 -86 292 -86 q 248 -91 263 -86 q 223 -106 233 -97 l 183 -103 l 227 0 l 269 0 l 235 -71 q 254 -59 238 -66 q 288 -53 269 -53 q 336 -68 314 -53 q 358 -120 358 -83 q 340 -166 358 -149 q 299 -188 323 -182 q 256 -194 275 -194 m 162 1018 l 145 1037 l 260 1126 q 281 1140 269 1134 q 302 1146 292 1146 q 315 1143 309 1146 q 324 1133 321 1140 q 327 1122 327 1128 q 314 1097 327 1108 q 284 1078 300 1086 l 162 1018 z "},"Ċ":{"ha":401,"x_min":42,"x_max":378,"o":"m 245 -14 q 100 111 158 -14 q 42 485 42 236 q 55 661 42 572 q 94 823 68 749 q 159 942 120 897 q 250 988 199 988 q 308 962 284 988 q 345 897 333 936 q 358 815 358 857 q 351 776 358 786 q 331 767 343 767 q 309 776 317 767 q 301 807 301 786 q 303 830 301 819 q 307 853 305 840 q 309 889 309 867 q 293 931 309 915 q 256 946 276 946 q 197 918 224 946 q 149 842 169 890 q 115 734 128 794 q 93 610 101 674 q 86 486 86 546 q 94 327 86 399 q 118 199 103 255 q 153 106 133 144 q 196 48 173 67 q 245 28 219 28 q 290 46 271 28 q 320 90 308 65 q 340 138 333 116 l 378 122 q 349 58 367 90 q 304 7 330 27 q 245 -14 278 -14 m 244 1045 q 213 1058 227 1045 q 199 1088 199 1071 q 213 1120 199 1106 q 244 1134 227 1134 q 275 1120 262 1134 q 289 1088 289 1106 q 275 1058 289 1071 q 244 1045 262 1045 z "},"D":{"ha":471,"x_min":42,"x_max":429,"o":"m 42 0 l 42 42 l 103 42 l 103 931 l 42 931 l 42 972 l 202 972 q 317 921 265 972 q 399 764 368 869 q 429 494 429 658 q 399 219 429 328 q 316 55 368 109 q 202 0 265 0 l 42 0 m 145 42 l 185 42 q 281 86 236 42 q 355 229 326 130 q 383 494 383 328 q 358 733 383 635 q 294 880 333 830 q 213 931 255 931 l 145 931 l 145 42 z "},"Ð":{"ha":513,"x_min":31,"x_max":429,"o":"m 31 478 l 31 519 l 270 519 l 270 478 l 31 478 m 42 0 l 42 42 l 103 42 l 103 931 l 42 931 l 42 972 l 202 972 q 317 921 265 972 q 399 764 368 869 q 429 494 429 658 q 399 219 429 328 q 316 55 368 109 q 202 0 265 0 l 42 0 m 145 42 l 185 42 q 281 86 236 42 q 355 229 326 130 q 383 494 383 328 q 358 733 383 635 q 294 880 333 830 q 213 931 255 931 l 145 931 l 145 42 z "},"Ď":{"ha":471,"x_min":42,"x_max":429,"o":"m 42 0 l 42 42 l 103 42 l 103 931 l 42 931 l 42 972 l 202 972 q 317 921 265 972 q 399 764 368 869 q 429 494 429 658 q 399 219 429 328 q 316 55 368 109 q 202 0 265 0 l 42 0 m 145 42 l 185 42 q 281 86 236 42 q 355 229 326 130 q 383 494 383 328 q 358 733 383 635 q 294 880 333 830 q 213 931 255 931 l 145 931 l 145 42 m 185 1017 l 83 1162 l 125 1162 l 210 1063 l 294 1162 l 336 1162 l 235 1017 l 185 1017 z "},"Đ":{"ha":513,"x_min":31,"x_max":429,"o":"m 31 478 l 31 519 l 270 519 l 270 478 l 31 478 m 42 0 l 42 42 l 103 42 l 103 931 l 42 931 l 42 972 l 202 972 q 317 921 265 972 q 399 764 368 869 q 429 494 429 658 q 399 219 429 328 q 316 55 368 109 q 202 0 265 0 l 42 0 m 145 42 l 185 42 q 281 86 236 42 q 355 229 326 130 q 383 494 383 328 q 358 733 383 635 q 294 880 333 830 q 213 931 255 931 l 145 931 l 145 42 z "},"E":{"ha":429,"x_min":42,"x_max":375,"o":"m 42 0 l 42 42 l 105 42 l 105 931 l 42 931 l 42 972 l 375 972 l 375 803 l 333 803 q 330 886 333 859 q 317 922 327 914 q 283 931 306 931 l 147 931 l 147 508 l 304 508 l 304 577 l 342 577 l 342 398 l 304 398 l 304 466 l 147 466 l 147 42 l 283 42 q 317 51 306 42 q 330 88 327 60 q 333 172 333 115 l 375 172 l 375 0 l 42 0 z "},"É":{"ha":429,"x_min":42,"x_max":375,"o":"m 42 0 l 42 42 l 105 42 l 105 931 l 42 931 l 42 972 l 375 972 l 375 803 l 333 803 q 330 886 333 859 q 317 922 327 914 q 283 931 306 931 l 147 931 l 147 508 l 304 508 l 304 577 l 342 577 l 342 398 l 304 398 l 304 466 l 147 466 l 147 42 l 283 42 q 317 51 306 42 q 330 88 327 60 q 333 172 333 115 l 375 172 l 375 0 l 42 0 m 143 1004 l 126 1023 l 241 1113 q 262 1126 251 1120 q 283 1132 274 1132 q 296 1129 290 1132 q 306 1119 302 1126 q 308 1108 308 1114 q 295 1083 308 1094 q 265 1065 281 1072 l 143 1004 z "},"Ě":{"ha":429,"x_min":42,"x_max":375,"o":"m 42 0 l 42 42 l 105 42 l 105 931 l 42 931 l 42 972 l 375 972 l 375 803 l 333 803 q 330 886 333 859 q 317 922 327 914 q 283 931 306 931 l 147 931 l 147 508 l 304 508 l 304 577 l 342 577 l 342 398 l 304 398 l 304 466 l 147 466 l 147 42 l 283 42 q 317 51 306 42 q 330 88 327 60 q 333 172 333 115 l 375 172 l 375 0 l 42 0 m 197 1017 l 94 1162 l 136 1162 l 221 1063 l 306 1162 l 347 1162 l 246 1017 l 197 1017 z "},"Ê":{"ha":429,"x_min":42,"x_max":375,"o":"m 42 0 l 42 42 l 105 42 l 105 931 l 42 931 l 42 972 l 375 972 l 375 803 l 333 803 q 330 886 333 859 q 317 922 327 914 q 283 931 306 931 l 147 931 l 147 508 l 304 508 l 304 577 l 342 577 l 342 398 l 304 398 l 304 466 l 147 466 l 147 42 l 283 42 q 317 51 306 42 q 330 88 327 60 q 333 172 333 115 l 375 172 l 375 0 l 42 0 m 94 1011 l 197 1156 l 246 1156 l 347 1011 l 306 1011 l 221 1110 l 136 1011 l 94 1011 z "},"Ế":{"ha":429,"x_min":42,"x_max":450,"o":"m 42 0 l 42 42 l 105 42 l 105 931 l 42 931 l 42 972 l 375 972 l 375 803 l 333 803 q 330 886 333 859 q 317 922 327 914 q 283 931 306 931 l 147 931 l 147 508 l 304 508 l 304 577 l 342 577 l 342 398 l 304 398 l 304 466 l 147 466 l 147 42 l 283 42 q 317 51 306 42 q 330 88 327 60 q 333 172 333 115 l 375 172 l 375 0 l 42 0 m 94 1015 l 197 1132 l 246 1132 l 347 1015 l 306 1015 l 221 1086 l 136 1015 l 94 1015 m 309 1123 l 295 1139 l 392 1215 q 428 1231 412 1231 q 439 1228 434 1231 q 447 1220 444 1226 q 450 1210 450 1217 q 438 1190 450 1199 q 413 1174 426 1181 l 309 1123 z "},"Ệ":{"ha":429,"x_min":42,"x_max":375,"o":"m 42 0 l 42 42 l 105 42 l 105 931 l 42 931 l 42 972 l 375 972 l 375 803 l 333 803 q 330 886 333 859 q 317 922 327 914 q 283 931 306 931 l 147 931 l 147 508 l 304 508 l 304 577 l 342 577 l 342 398 l 304 398 l 304 466 l 147 466 l 147 42 l 283 42 q 317 51 306 42 q 330 88 327 60 q 333 172 333 115 l 375 172 l 375 0 l 42 0 m 209 -174 q 178 -161 192 -174 q 164 -131 164 -148 q 178 -99 164 -112 q 209 -85 192 -85 q 240 -99 226 -85 q 253 -131 253 -112 q 240 -161 253 -148 q 209 -174 226 -174 m 94 1011 l 197 1156 l 246 1156 l 347 1011 l 306 1011 l 221 1110 l 136 1011 l 94 1011 z "},"Ề":{"ha":429,"x_min":42,"x_max":375,"o":"m 42 0 l 42 42 l 105 42 l 105 931 l 42 931 l 42 972 l 375 972 l 375 803 l 333 803 q 330 886 333 859 q 317 922 327 914 q 283 931 306 931 l 147 931 l 147 508 l 304 508 l 304 577 l 342 577 l 342 398 l 304 398 l 304 466 l 147 466 l 147 42 l 283 42 q 317 51 306 42 q 330 88 327 60 q 333 172 333 115 l 375 172 l 375 0 l 42 0 m 94 1015 l 197 1132 l 246 1132 l 347 1015 l 306 1015 l 221 1086 l 136 1015 l 94 1015 m 360 1116 l 244 1169 q 223 1181 231 1175 q 215 1201 215 1188 q 223 1218 215 1213 q 242 1224 231 1224 q 261 1220 253 1224 q 276 1210 269 1217 l 372 1131 l 360 1116 z "},"Ể":{"ha":429,"x_min":42,"x_max":396,"o":"m 42 0 l 42 42 l 105 42 l 105 931 l 42 931 l 42 972 l 375 972 l 375 803 l 333 803 q 330 886 333 859 q 317 922 327 914 q 283 931 306 931 l 147 931 l 147 508 l 304 508 l 304 577 l 342 577 l 342 398 l 304 398 l 304 466 l 147 466 l 147 42 l 283 42 q 317 51 306 42 q 330 88 327 60 q 333 172 333 115 l 375 172 l 375 0 l 42 0 m 93 1015 l 195 1133 l 244 1133 l 346 1015 l 304 1015 l 219 1087 l 135 1015 l 93 1015 m 323 1251 q 374 1237 352 1251 q 396 1194 396 1223 q 382 1154 396 1170 q 354 1126 368 1138 q 340 1101 340 1115 l 309 1101 q 322 1135 309 1122 q 346 1161 334 1149 q 358 1192 358 1174 q 346 1216 358 1210 q 313 1222 333 1222 q 287 1217 300 1222 q 267 1206 274 1213 l 245 1228 q 278 1245 255 1240 q 323 1251 301 1251 z "},"Ễ":{"ha":429,"x_min":42,"x_max":375,"o":"m 42 0 l 42 42 l 105 42 l 105 931 l 42 931 l 42 972 l 375 972 l 375 803 l 333 803 q 330 886 333 859 q 317 922 327 914 q 283 931 306 931 l 147 931 l 147 508 l 304 508 l 304 577 l 342 577 l 342 398 l 304 398 l 304 466 l 147 466 l 147 42 l 283 42 q 317 51 306 42 q 330 88 327 60 q 333 172 333 115 l 375 172 l 375 0 l 42 0 m 94 1015 l 197 1133 l 246 1133 l 347 1015 l 306 1015 l 221 1087 l 136 1015 l 94 1015 m 280 1160 q 234 1173 253 1160 q 197 1199 214 1186 q 160 1212 179 1212 q 128 1197 140 1212 q 112 1172 115 1181 l 77 1190 q 92 1220 81 1203 q 123 1250 104 1237 q 164 1263 141 1263 q 210 1249 190 1263 q 248 1223 230 1236 q 284 1210 265 1210 q 314 1222 304 1210 q 329 1242 324 1233 l 365 1222 q 349 1196 361 1210 q 320 1171 338 1181 q 280 1160 302 1160 z "},"Ë":{"ha":429,"x_min":42,"x_max":375,"o":"m 42 0 l 42 42 l 105 42 l 105 931 l 42 931 l 42 972 l 375 972 l 375 803 l 333 803 q 330 886 333 859 q 317 922 327 914 q 283 931 306 931 l 147 931 l 147 508 l 304 508 l 304 577 l 342 577 l 342 398 l 304 398 l 304 466 l 147 466 l 147 42 l 283 42 q 317 51 306 42 q 330 88 327 60 q 333 172 333 115 l 375 172 l 375 0 l 42 0 m 295 1040 q 264 1053 277 1040 q 251 1083 251 1066 q 264 1116 251 1102 q 295 1130 277 1130 q 326 1116 313 1130 q 339 1083 339 1102 q 326 1053 339 1066 q 295 1040 313 1040 m 146 1040 q 116 1053 129 1040 q 102 1083 102 1066 q 116 1116 102 1102 q 146 1130 129 1130 q 178 1116 164 1130 q 192 1083 192 1102 q 178 1053 192 1066 q 146 1040 164 1040 z "},"Ė":{"ha":429,"x_min":42,"x_max":375,"o":"m 42 0 l 42 42 l 105 42 l 105 931 l 42 931 l 42 972 l 375 972 l 375 803 l 333 803 q 330 886 333 859 q 317 922 327 914 q 283 931 306 931 l 147 931 l 147 508 l 304 508 l 304 577 l 342 577 l 342 398 l 304 398 l 304 466 l 147 466 l 147 42 l 283 42 q 317 51 306 42 q 330 88 327 60 q 333 172 333 115 l 375 172 l 375 0 l 42 0 m 221 1045 q 190 1058 203 1045 q 176 1088 176 1071 q 190 1120 176 1106 q 221 1134 203 1134 q 252 1120 238 1134 q 265 1088 265 1106 q 252 1058 265 1071 q 221 1045 238 1045 z "},"Ẹ":{"ha":429,"x_min":42,"x_max":375,"o":"m 42 0 l 42 42 l 105 42 l 105 931 l 42 931 l 42 972 l 375 972 l 375 803 l 333 803 q 330 886 333 859 q 317 922 327 914 q 283 931 306 931 l 147 931 l 147 508 l 304 508 l 304 577 l 342 577 l 342 398 l 304 398 l 304 466 l 147 466 l 147 42 l 283 42 q 317 51 306 42 q 330 88 327 60 q 333 172 333 115 l 375 172 l 375 0 l 42 0 m 209 -174 q 178 -161 192 -174 q 164 -131 164 -148 q 178 -99 164 -112 q 209 -85 192 -85 q 240 -99 226 -85 q 253 -131 253 -112 q 240 -161 253 -148 q 209 -174 226 -174 z "},"È":{"ha":429,"x_min":42,"x_max":375,"o":"m 42 0 l 42 42 l 105 42 l 105 931 l 42 931 l 42 972 l 375 972 l 375 803 l 333 803 q 330 886 333 859 q 317 922 327 914 q 283 931 306 931 l 147 931 l 147 508 l 304 508 l 304 577 l 342 577 l 342 398 l 304 398 l 304 466 l 147 466 l 147 42 l 283 42 q 317 51 306 42 q 330 88 327 60 q 333 172 333 115 l 375 172 l 375 0 l 42 0 m 301 1004 l 167 1066 q 142 1081 151 1074 q 133 1103 133 1088 q 141 1123 133 1117 q 163 1130 150 1130 q 185 1125 176 1130 q 203 1113 194 1121 l 315 1022 l 301 1004 z "},"Ẻ":{"ha":429,"x_min":42,"x_max":375,"o":"m 42 0 l 42 42 l 105 42 l 105 931 l 42 931 l 42 972 l 375 972 l 375 803 l 333 803 q 330 886 333 859 q 317 922 327 914 q 283 931 306 931 l 147 931 l 147 508 l 304 508 l 304 577 l 342 577 l 342 398 l 304 398 l 304 466 l 147 466 l 147 42 l 283 42 q 317 51 306 42 q 330 88 327 60 q 333 172 333 115 l 375 172 l 375 0 l 42 0 m 217 1207 q 282 1189 254 1207 q 309 1135 309 1172 q 292 1085 309 1105 q 257 1050 274 1065 q 239 1018 239 1035 l 200 1018 q 216 1062 200 1045 q 247 1094 231 1078 q 262 1132 262 1109 q 246 1163 262 1156 q 206 1169 231 1169 q 173 1164 189 1169 q 147 1150 156 1158 l 119 1178 q 161 1200 132 1192 q 217 1207 190 1207 z "},"Ē":{"ha":429,"x_min":11,"x_max":431,"o":"m 42 0 l 42 42 l 105 42 l 105 931 l 42 931 l 42 972 l 375 972 l 375 803 l 333 803 q 330 886 333 859 q 317 922 327 914 q 283 931 306 931 l 147 931 l 147 508 l 304 508 l 304 577 l 342 577 l 342 398 l 304 398 l 304 466 l 147 466 l 147 42 l 283 42 q 317 51 306 42 q 330 88 327 60 q 333 172 333 115 l 375 172 l 375 0 l 42 0 m 11 1064 l 11 1106 l 431 1106 l 431 1064 l 11 1064 z "},"Ę":{"ha":429,"x_min":42,"x_max":491,"o":"m 42 0 l 42 42 l 105 42 l 105 931 l 42 931 l 42 972 l 375 972 l 375 803 l 333 803 q 330 886 333 859 q 317 922 327 914 q 283 931 306 931 l 147 931 l 147 508 l 304 508 l 304 577 l 342 577 l 342 398 l 304 398 l 304 466 l 147 466 l 147 42 l 283 42 q 317 51 306 42 q 330 88 327 60 q 333 172 333 115 l 375 172 l 375 0 l 42 0 m 382 -197 q 331 -188 357 -197 q 286 -158 304 -179 q 269 -101 269 -137 q 285 -50 269 -72 q 322 -11 301 -27 q 358 13 343 6 l 375 0 q 342 -39 361 -13 q 324 -97 324 -64 q 347 -145 324 -135 q 394 -154 370 -154 q 433 -150 410 -154 q 473 -137 457 -146 l 491 -166 q 447 -187 476 -177 q 382 -197 418 -197 z "},"Ẽ":{"ha":429,"x_min":42,"x_max":375,"o":"m 42 0 l 42 42 l 105 42 l 105 931 l 42 931 l 42 972 l 375 972 l 375 803 l 333 803 q 330 886 333 859 q 317 922 327 914 q 283 931 306 931 l 147 931 l 147 508 l 304 508 l 304 577 l 342 577 l 342 398 l 304 398 l 304 466 l 147 466 l 147 42 l 283 42 q 317 51 306 42 q 330 88 327 60 q 333 172 333 115 l 375 172 l 375 0 l 42 0 m 280 1021 q 235 1034 253 1021 q 202 1059 217 1047 q 167 1072 186 1072 q 137 1057 147 1072 q 123 1032 126 1042 l 84 1055 q 98 1084 88 1068 q 124 1111 108 1099 q 164 1123 141 1123 q 210 1110 190 1123 q 246 1083 229 1097 q 281 1070 263 1070 q 306 1082 297 1070 q 320 1103 315 1094 l 358 1076 q 344 1051 354 1064 q 318 1030 334 1038 q 280 1021 302 1021 z "},"F":{"ha":427,"x_min":59,"x_max":372,"o":"m 59 0 l 59 42 l 122 42 l 122 931 l 59 931 l 59 972 l 372 972 l 372 803 l 330 803 q 328 886 330 859 q 315 922 326 914 q 278 931 304 931 l 163 931 l 163 508 l 307 508 l 307 577 l 349 577 l 349 398 l 307 398 l 307 466 l 163 466 l 163 42 l 226 42 l 226 0 l 59 0 z "},"G":{"ha":451,"x_min":54,"x_max":424,"o":"m 240 -14 q 145 46 188 -14 q 79 217 103 106 q 54 485 54 329 q 83 762 54 651 q 157 930 111 874 q 255 986 203 986 q 324 961 298 986 q 361 897 349 936 q 372 815 372 858 q 365 776 372 786 q 344 767 357 767 q 324 777 333 767 q 316 807 316 788 q 318 830 316 819 q 323 853 321 840 q 326 886 326 866 q 307 926 326 908 q 256 944 289 944 q 186 902 216 944 q 138 790 157 859 q 108 640 118 721 q 99 485 99 560 q 110 294 99 378 q 143 149 122 209 q 190 58 163 90 q 245 26 216 26 q 291 35 271 26 q 319 53 310 44 l 319 398 l 253 398 l 253 440 l 424 440 l 424 398 l 361 398 l 361 0 l 328 0 q 325 2 328 1 q 320 3 323 3 q 303 -1 313 3 q 278 -9 293 -5 q 240 -14 263 -14 z "},"Ğ":{"ha":451,"x_min":54,"x_max":424,"o":"m 240 -14 q 145 46 188 -14 q 79 217 103 106 q 54 485 54 329 q 83 762 54 651 q 157 930 111 874 q 255 986 203 986 q 324 961 298 986 q 361 897 349 936 q 372 815 372 858 q 365 776 372 786 q 344 767 357 767 q 324 777 333 767 q 316 807 316 788 q 318 830 316 819 q 323 853 321 840 q 326 886 326 866 q 307 926 326 908 q 256 944 289 944 q 186 902 216 944 q 138 790 157 859 q 108 640 118 721 q 99 485 99 560 q 110 294 99 378 q 143 149 122 209 q 190 58 163 90 q 245 26 216 26 q 291 35 271 26 q 319 53 310 44 l 319 398 l 253 398 l 253 440 l 424 440 l 424 398 l 361 398 l 361 0 l 328 0 q 325 2 328 1 q 320 3 323 3 q 303 -1 313 3 q 278 -9 293 -5 q 240 -14 263 -14 m 247 1038 q 184 1055 208 1038 q 149 1099 160 1071 q 138 1163 138 1128 l 176 1163 q 197 1101 179 1123 q 247 1080 214 1080 q 299 1101 281 1080 q 319 1163 316 1123 l 358 1163 q 347 1099 358 1128 q 311 1055 336 1071 q 247 1038 287 1038 z "},"Ģ":{"ha":451,"x_min":54,"x_max":424,"o":"m 240 -14 q 145 46 188 -14 q 79 217 103 106 q 54 485 54 329 q 83 762 54 651 q 157 930 111 874 q 255 986 203 986 q 324 961 298 986 q 361 897 349 936 q 372 815 372 858 q 365 776 372 786 q 344 767 357 767 q 324 777 333 767 q 316 807 316 788 q 318 830 316 819 q 323 853 321 840 q 326 886 326 866 q 307 926 326 908 q 256 944 289 944 q 186 902 216 944 q 138 790 157 859 q 108 640 118 721 q 99 485 99 560 q 110 294 99 378 q 143 149 122 209 q 190 58 163 90 q 245 26 216 26 q 291 35 271 26 q 319 53 310 44 l 319 398 l 253 398 l 253 440 l 424 440 l 424 398 l 361 398 l 361 0 l 328 0 q 325 2 328 1 q 320 3 323 3 q 303 -1 313 3 q 278 -9 293 -5 q 240 -14 263 -14 m 244 -225 l 226 -203 q 244 -187 233 -199 q 256 -167 256 -174 q 247 -169 254 -169 q 221 -159 231 -169 q 210 -133 210 -148 q 222 -106 210 -117 q 249 -96 233 -96 q 278 -109 267 -96 q 289 -142 289 -122 q 282 -176 289 -160 q 265 -205 275 -192 q 244 -225 254 -217 z "},"Ġ":{"ha":451,"x_min":54,"x_max":424,"o":"m 240 -14 q 145 46 188 -14 q 79 217 103 106 q 54 485 54 329 q 83 762 54 651 q 157 930 111 874 q 255 986 203 986 q 324 961 298 986 q 361 897 349 936 q 372 815 372 858 q 365 776 372 786 q 344 767 357 767 q 324 777 333 767 q 316 807 316 788 q 318 830 316 819 q 323 853 321 840 q 326 886 326 866 q 307 926 326 908 q 256 944 289 944 q 186 902 216 944 q 138 790 157 859 q 108 640 118 721 q 99 485 99 560 q 110 294 99 378 q 143 149 122 209 q 190 58 163 90 q 245 26 216 26 q 291 35 271 26 q 319 53 310 44 l 319 398 l 253 398 l 253 440 l 424 440 l 424 398 l 361 398 l 361 0 l 328 0 q 325 2 328 1 q 320 3 323 3 q 303 -1 313 3 q 278 -9 293 -5 q 240 -14 263 -14 m 249 1045 q 217 1058 231 1045 q 203 1088 203 1071 q 217 1120 203 1106 q 249 1134 231 1134 q 280 1120 266 1134 q 293 1088 293 1106 q 280 1058 293 1071 q 249 1045 266 1045 z "},"H":{"ha":525,"x_min":42,"x_max":485,"o":"m 42 0 l 42 42 l 103 42 l 103 931 l 42 931 l 42 972 l 207 972 l 207 931 l 145 931 l 145 522 l 378 522 l 378 931 l 317 931 l 317 972 l 485 972 l 485 931 l 420 931 l 420 42 l 485 42 l 485 0 l 317 0 l 317 42 l 378 42 l 378 480 l 145 480 l 145 42 l 207 42 l 207 0 l 42 0 z "},"Ħ":{"ha":531,"x_min":42,"x_max":491,"o":"m 48 707 l 48 749 l 491 749 l 491 707 l 48 707 m 42 0 l 42 42 l 103 42 l 103 931 l 42 931 l 42 972 l 207 972 l 207 931 l 145 931 l 145 522 l 378 522 l 378 931 l 317 931 l 317 972 l 485 972 l 485 931 l 420 931 l 420 42 l 485 42 l 485 0 l 317 0 l 317 42 l 378 42 l 378 480 l 145 480 l 145 42 l 207 42 l 207 0 l 42 0 z "},"I":{"ha":267,"x_min":48,"x_max":219,"o":"m 48 0 l 48 42 l 113 42 l 113 931 l 48 931 l 48 972 l 219 972 l 219 931 l 154 931 l 154 42 l 219 42 l 219 0 l 48 0 z "},"Í":{"ha":267,"x_min":40,"x_max":222,"o":"m 48 0 l 48 42 l 113 42 l 113 931 l 48 931 l 48 972 l 219 972 l 219 931 l 154 931 l 154 42 l 219 42 l 219 0 l 48 0 m 56 1004 l 40 1023 l 154 1113 q 175 1126 164 1120 q 197 1132 187 1132 q 209 1129 203 1132 q 219 1119 215 1126 q 222 1108 222 1114 q 208 1083 222 1094 q 178 1065 194 1072 l 56 1004 z "},"Î":{"ha":267,"x_min":8,"x_max":260,"o":"m 48 0 l 48 42 l 113 42 l 113 931 l 48 931 l 48 972 l 219 972 l 219 931 l 154 931 l 154 42 l 219 42 l 219 0 l 48 0 m 8 1011 l 110 1156 l 159 1156 l 260 1011 l 219 1011 l 134 1110 l 49 1011 l 8 1011 z "},"Ï":{"ha":267,"x_min":15,"x_max":252,"o":"m 48 0 l 48 42 l 113 42 l 113 931 l 48 931 l 48 972 l 219 972 l 219 931 l 154 931 l 154 42 l 219 42 l 219 0 l 48 0 m 208 1040 q 177 1053 190 1040 q 164 1083 164 1066 q 177 1116 164 1102 q 208 1130 190 1130 q 239 1116 226 1130 q 252 1083 252 1102 q 239 1053 252 1066 q 208 1040 226 1040 m 59 1040 q 29 1053 42 1040 q 15 1083 15 1066 q 29 1116 15 1102 q 59 1130 42 1130 q 91 1116 77 1130 q 105 1083 105 1102 q 91 1053 105 1066 q 59 1040 77 1040 z "},"İ":{"ha":267,"x_min":48,"x_max":219,"o":"m 48 0 l 48 42 l 113 42 l 113 931 l 48 931 l 48 972 l 219 972 l 219 931 l 154 931 l 154 42 l 219 42 l 219 0 l 48 0 m 134 1045 q 103 1058 117 1045 q 89 1088 89 1071 q 103 1120 89 1106 q 134 1134 117 1134 q 165 1120 151 1134 q 178 1088 178 1106 q 165 1058 178 1071 q 134 1045 151 1045 z "},"Ị":{"ha":267,"x_min":48,"x_max":219,"o":"m 48 0 l 48 42 l 113 42 l 113 931 l 48 931 l 48 972 l 219 972 l 219 931 l 154 931 l 154 42 l 219 42 l 219 0 l 48 0 m 133 -174 q 101 -161 115 -174 q 88 -131 88 -148 q 101 -99 88 -112 q 133 -85 115 -85 q 164 -99 150 -85 q 177 -131 177 -112 q 164 -161 177 -148 q 133 -174 150 -174 z "},"Ì":{"ha":267,"x_min":46,"x_max":228,"o":"m 48 0 l 48 42 l 113 42 l 113 931 l 48 931 l 48 972 l 219 972 l 219 931 l 154 931 l 154 42 l 219 42 l 219 0 l 48 0 m 215 1004 l 80 1066 q 55 1081 64 1074 q 46 1103 46 1088 q 55 1123 46 1117 q 76 1130 63 1130 q 98 1125 89 1130 q 116 1113 107 1121 l 228 1022 l 215 1004 z "},"Ỉ":{"ha":267,"x_min":33,"x_max":222,"o":"m 48 0 l 48 42 l 113 42 l 113 931 l 48 931 l 48 972 l 219 972 l 219 931 l 154 931 l 154 42 l 219 42 l 219 0 l 48 0 m 131 1207 q 195 1189 167 1207 q 222 1135 222 1172 q 205 1085 222 1105 q 170 1050 188 1065 q 152 1018 152 1035 l 113 1018 q 129 1062 113 1045 q 160 1094 144 1078 q 175 1132 175 1109 q 159 1163 175 1156 q 119 1169 144 1169 q 86 1164 102 1169 q 60 1150 69 1158 l 33 1178 q 74 1200 45 1192 q 131 1207 103 1207 z "},"Ī":{"ha":267,"x_min":-76,"x_max":344,"o":"m 48 0 l 48 42 l 113 42 l 113 931 l 48 931 l 48 972 l 219 972 l 219 931 l 154 931 l 154 42 l 219 42 l 219 0 l 48 0 m -76 1064 l -76 1106 l 344 1106 l 344 1064 l -76 1064 z "},"Į":{"ha":267,"x_min":48,"x_max":335,"o":"m 48 0 l 48 42 l 113 42 l 113 931 l 48 931 l 48 972 l 219 972 l 219 931 l 154 931 l 154 42 l 219 42 l 219 0 l 48 0 m 226 -197 q 175 -188 201 -197 q 131 -158 149 -179 q 113 -101 113 -137 q 129 -50 113 -72 q 166 -11 145 -27 q 203 13 188 6 l 219 0 q 187 -39 206 -13 q 168 -97 168 -64 q 191 -145 168 -135 q 238 -154 215 -154 q 278 -150 254 -154 q 317 -137 301 -146 l 335 -166 q 291 -187 320 -177 q 226 -197 263 -197 z "},"Ĩ":{"ha":267,"x_min":-3,"x_max":271,"o":"m 48 0 l 48 42 l 113 42 l 113 931 l 48 931 l 48 972 l 219 972 l 219 931 l 154 931 l 154 42 l 219 42 l 219 0 l 48 0 m 193 1021 q 149 1034 167 1021 q 115 1059 131 1047 q 81 1072 99 1072 q 50 1057 60 1072 q 36 1032 40 1042 l -3 1055 q 11 1084 1 1068 q 38 1111 21 1099 q 77 1123 54 1123 q 123 1110 103 1123 q 159 1083 142 1097 q 194 1070 176 1070 q 219 1082 210 1070 q 233 1103 228 1094 l 271 1076 q 257 1051 267 1064 q 231 1030 247 1038 q 193 1021 215 1021 z "},"J":{"ha":358,"x_min":26,"x_max":330,"o":"m 136 -19 q 74 0 99 -19 q 38 55 50 18 q 26 149 26 92 q 35 192 26 180 q 57 203 44 203 q 77 194 70 203 q 85 163 85 184 q 82 141 85 151 q 77 117 80 131 q 74 82 74 104 q 92 41 74 58 q 135 24 110 24 q 198 60 173 24 q 224 197 224 97 l 224 931 l 156 931 l 156 972 l 330 972 l 330 931 l 265 931 l 265 241 q 256 115 265 165 q 229 35 247 65 q 188 -6 212 6 q 136 -19 165 -19 z "},"K":{"ha":443,"x_min":29,"x_max":410,"o":"m 29 0 l 29 42 l 94 42 l 94 931 l 29 931 l 29 972 l 201 972 l 201 931 l 135 931 l 135 520 l 318 931 l 260 931 l 260 972 l 410 972 l 410 931 l 366 931 l 162 480 l 156 520 l 349 42 l 410 42 l 410 0 l 250 0 l 250 42 l 301 42 l 128 475 l 135 477 l 135 42 l 201 42 l 201 0 l 29 0 z "},"Ķ":{"ha":443,"x_min":29,"x_max":410,"o":"m 29 0 l 29 42 l 94 42 l 94 931 l 29 931 l 29 972 l 201 972 l 201 931 l 135 931 l 135 520 l 318 931 l 260 931 l 260 972 l 410 972 l 410 931 l 366 931 l 162 480 l 156 520 l 349 42 l 410 42 l 410 0 l 250 0 l 250 42 l 301 42 l 128 475 l 135 477 l 135 42 l 201 42 l 201 0 l 29 0 m 218 -225 l 199 -203 q 218 -187 206 -199 q 229 -167 229 -174 q 221 -169 228 -169 q 194 -159 205 -169 q 184 -133 184 -148 q 195 -106 184 -117 q 222 -96 207 -96 q 252 -109 241 -96 q 263 -142 263 -122 q 256 -176 263 -160 q 238 -205 249 -192 q 218 -225 228 -217 z "},"L":{"ha":386,"x_min":48,"x_max":346,"o":"m 48 0 l 48 42 l 111 42 l 111 931 l 48 931 l 48 972 l 216 972 l 216 931 l 153 931 l 153 42 l 259 42 q 285 51 275 42 q 299 88 294 60 q 304 172 304 115 l 346 172 l 346 0 l 48 0 z "},"Ǉ":{"ha":744,"x_min":48,"x_max":716,"o":"m 48 0 l 48 42 l 111 42 l 111 931 l 48 931 l 48 972 l 216 972 l 216 931 l 153 931 l 153 42 l 259 42 q 285 51 275 42 q 299 88 294 60 q 304 172 304 115 l 346 172 l 346 0 l 48 0 m 522 -19 q 460 0 485 -19 q 424 55 436 18 q 413 149 413 92 q 421 192 413 180 q 443 203 430 203 q 464 194 456 203 q 471 163 471 184 q 468 141 471 151 q 463 117 466 131 q 460 82 460 104 q 478 41 460 58 q 522 24 496 24 q 584 60 559 24 q 610 197 610 97 l 610 931 l 542 931 l 542 972 l 716 972 l 716 931 l 651 931 l 651 241 q 642 115 651 165 q 615 35 633 65 q 574 -6 598 6 q 522 -19 551 -19 z "},"Ĺ":{"ha":386,"x_min":38,"x_max":346,"o":"m 48 0 l 48 42 l 111 42 l 111 931 l 48 931 l 48 972 l 216 972 l 216 931 l 153 931 l 153 42 l 259 42 q 285 51 275 42 q 299 88 294 60 q 304 172 304 115 l 346 172 l 346 0 l 48 0 m 55 1004 l 38 1023 l 153 1113 q 174 1126 163 1120 q 195 1132 185 1132 q 208 1129 202 1132 q 217 1119 214 1126 q 220 1108 220 1114 q 207 1083 220 1094 q 177 1065 193 1072 l 55 1004 z "},"Ľ":{"ha":386,"x_min":48,"x_max":356,"o":"m 294 837 q 306 903 301 867 q 311 972 311 938 q 316 1010 311 997 q 335 1023 322 1023 q 352 1011 349 1023 q 356 979 356 999 q 349 908 356 951 q 326 823 342 865 l 294 837 m 48 0 l 48 42 l 111 42 l 111 931 l 48 931 l 48 972 l 216 972 l 216 931 l 153 931 l 153 42 l 259 42 q 285 51 275 42 q 299 88 294 60 q 304 172 304 115 l 346 172 l 346 0 l 48 0 z "},"Ļ":{"ha":386,"x_min":48,"x_max":346,"o":"m 48 0 l 48 42 l 111 42 l 111 931 l 48 931 l 48 972 l 216 972 l 216 931 l 153 931 l 153 42 l 259 42 q 285 51 275 42 q 299 88 294 60 q 304 172 304 115 l 346 172 l 346 0 l 48 0 m 197 -225 l 178 -203 q 196 -187 185 -199 q 208 -167 208 -174 q 199 -169 206 -169 q 173 -159 183 -169 q 163 -133 163 -148 q 174 -106 163 -117 q 201 -96 185 -96 q 230 -109 219 -96 q 241 -142 241 -122 q 234 -176 241 -160 q 217 -205 227 -192 q 197 -225 206 -217 z "},"ǈ":{"ha":553,"x_min":48,"x_max":508,"o":"m 48 0 l 48 42 l 111 42 l 111 931 l 48 931 l 48 972 l 216 972 l 216 931 l 153 931 l 153 42 l 259 42 q 285 51 275 42 q 299 88 294 60 q 304 172 304 115 l 346 172 l 346 0 l 48 0 m 360 -346 q 310 -327 330 -346 q 279 -276 290 -308 q 269 -201 269 -243 q 276 -168 269 -180 q 297 -156 283 -156 q 317 -167 310 -156 q 324 -193 324 -178 q 323 -215 324 -204 q 320 -238 322 -226 q 318 -264 318 -250 q 325 -291 318 -283 q 342 -301 332 -299 q 360 -303 351 -303 q 423 -253 401 -303 q 445 -111 445 -203 l 445 685 l 369 685 l 369 727 l 487 727 l 487 -77 q 478 -197 487 -147 q 452 -281 469 -248 q 411 -330 435 -314 q 360 -346 388 -346 m 463 897 q 428 910 442 897 q 414 943 414 924 q 428 977 414 963 q 463 991 442 991 q 495 977 482 991 q 508 943 508 963 q 495 910 508 924 q 463 897 482 897 z "},"Ł":{"ha":413,"x_min":28,"x_max":346,"o":"m 28 306 l 28 356 l 316 605 l 316 554 l 28 306 m 48 0 l 48 42 l 111 42 l 111 931 l 48 931 l 48 972 l 216 972 l 216 931 l 153 931 l 153 42 l 259 42 q 285 51 275 42 q 299 88 294 60 q 304 172 304 115 l 346 172 l 346 0 l 48 0 z "},"M":{"ha":625,"x_min":34,"x_max":599,"o":"m 34 0 l 34 42 l 97 42 l 97 931 l 40 931 l 40 972 l 176 972 l 316 90 l 312 90 l 456 972 l 590 972 l 590 931 l 534 931 l 534 42 l 599 42 l 599 0 l 429 0 l 429 42 l 492 42 l 492 942 l 494 942 l 342 47 l 285 47 l 138 931 l 139 931 l 139 42 l 207 42 l 207 0 l 34 0 z "},"N":{"ha":531,"x_min":24,"x_max":506,"o":"m 24 0 l 24 42 l 88 42 l 88 931 l 24 931 l 24 972 l 160 972 l 403 79 l 401 79 l 401 931 l 337 931 l 337 972 l 506 972 l 506 931 l 444 931 l 444 0 l 376 0 l 130 922 l 131 922 l 131 42 l 206 42 l 206 0 l 24 0 z "},"Ǌ":{"ha":850,"x_min":24,"x_max":822,"o":"m 24 0 l 24 42 l 88 42 l 88 931 l 24 931 l 24 972 l 160 972 l 403 79 l 401 79 l 401 931 l 337 931 l 337 972 l 506 972 l 506 931 l 444 931 l 444 0 l 376 0 l 130 922 l 131 922 l 131 42 l 206 42 l 206 0 l 24 0 m 628 -19 q 567 0 591 -19 q 531 55 542 18 q 519 149 519 92 q 527 192 519 180 q 549 203 536 203 q 570 194 563 203 q 577 163 577 184 q 575 141 577 151 q 569 117 572 131 q 567 82 567 104 q 584 41 567 58 q 628 24 602 24 q 691 60 665 24 q 716 197 716 97 l 716 931 l 649 931 l 649 972 l 822 972 l 822 931 l 758 931 l 758 241 q 748 115 758 165 q 722 35 739 65 q 681 -6 704 6 q 628 -19 657 -19 z "},"Ń":{"ha":531,"x_min":24,"x_max":506,"o":"m 24 0 l 24 42 l 88 42 l 88 931 l 24 931 l 24 972 l 160 972 l 403 79 l 401 79 l 401 931 l 337 931 l 337 972 l 506 972 l 506 931 l 444 931 l 444 0 l 376 0 l 130 922 l 131 922 l 131 42 l 206 42 l 206 0 l 24 0 m 185 1004 l 168 1023 l 283 1113 q 304 1126 292 1120 q 325 1132 315 1132 q 338 1129 332 1132 q 347 1119 344 1126 q 350 1108 350 1114 q 336 1083 350 1094 q 307 1065 323 1072 l 185 1004 z "},"Ň":{"ha":531,"x_min":24,"x_max":506,"o":"m 24 0 l 24 42 l 88 42 l 88 931 l 24 931 l 24 972 l 160 972 l 403 79 l 401 79 l 401 931 l 337 931 l 337 972 l 506 972 l 506 931 l 444 931 l 444 0 l 376 0 l 130 922 l 131 922 l 131 42 l 206 42 l 206 0 l 24 0 m 238 1017 l 136 1162 l 178 1162 l 263 1063 l 347 1162 l 389 1162 l 288 1017 l 238 1017 z "},"Ņ":{"ha":531,"x_min":24,"x_max":506,"o":"m 24 0 l 24 42 l 88 42 l 88 931 l 24 931 l 24 972 l 160 972 l 403 79 l 401 79 l 401 931 l 337 931 l 337 972 l 506 972 l 506 931 l 444 931 l 444 0 l 376 0 l 130 922 l 131 922 l 131 42 l 206 42 l 206 0 l 24 0 m 258 -225 l 240 -203 q 258 -187 247 -199 q 269 -167 269 -174 q 261 -169 268 -169 q 235 -159 245 -169 q 224 -133 224 -148 q 236 -106 224 -117 q 263 -96 247 -96 q 292 -109 281 -96 q 303 -142 303 -122 q 296 -176 303 -160 q 278 -205 289 -192 q 258 -225 268 -217 z "},"Ŋ":{"ha":531,"x_min":24,"x_max":506,"o":"m 318 -272 q 267 -248 285 -272 q 244 -186 250 -224 q 238 -103 238 -147 q 245 -65 238 -75 q 264 -56 253 -56 q 282 -65 274 -56 q 290 -96 290 -74 q 286 -123 290 -115 q 281 -164 281 -131 q 291 -210 281 -190 q 318 -230 301 -230 q 364 -206 345 -230 q 392 -137 383 -182 q 401 -31 401 -92 l 401 97 l 444 97 l 444 -5 q 431 -144 444 -92 q 396 -225 417 -197 q 354 -262 376 -252 q 318 -272 333 -272 m 24 0 l 24 42 l 88 42 l 88 931 l 24 931 l 24 972 l 160 972 l 403 79 l 401 79 l 401 931 l 337 931 l 337 972 l 506 972 l 506 931 l 444 931 l 444 0 l 376 0 l 130 922 l 131 922 l 131 42 l 206 42 l 206 0 l 24 0 z "},"ǋ":{"ha":723,"x_min":24,"x_max":678,"o":"m 24 0 l 24 42 l 88 42 l 88 931 l 24 931 l 24 972 l 160 972 l 403 79 l 401 79 l 401 931 l 337 931 l 337 972 l 506 972 l 506 931 l 444 931 l 444 0 l 376 0 l 130 922 l 131 922 l 131 42 l 206 42 l 206 0 l 24 0 m 530 -346 q 480 -327 500 -346 q 449 -276 460 -308 q 439 -201 439 -243 q 446 -168 439 -180 q 467 -156 453 -156 q 488 -167 481 -156 q 494 -193 494 -178 q 493 -215 494 -204 q 490 -238 492 -226 q 488 -264 488 -250 q 495 -291 488 -283 q 512 -301 502 -299 q 530 -303 522 -303 q 593 -253 571 -303 q 615 -111 615 -203 l 615 685 l 540 685 l 540 727 l 657 727 l 657 -77 q 648 -197 657 -147 q 622 -281 639 -248 q 582 -330 605 -314 q 530 -346 558 -346 m 633 897 q 598 910 613 897 q 584 943 584 924 q 598 977 584 963 q 633 991 613 991 q 665 977 652 991 q 678 943 678 963 q 665 910 678 924 q 633 897 652 897 z "},"Ñ":{"ha":531,"x_min":24,"x_max":506,"o":"m 24 0 l 24 42 l 88 42 l 88 931 l 24 931 l 24 972 l 160 972 l 403 79 l 401 79 l 401 931 l 337 931 l 337 972 l 506 972 l 506 931 l 444 931 l 444 0 l 376 0 l 130 922 l 131 922 l 131 42 l 206 42 l 206 0 l 24 0 m 322 1021 q 277 1034 295 1021 q 243 1059 259 1047 q 209 1072 228 1072 q 178 1057 189 1072 q 165 1032 168 1042 l 126 1055 q 139 1084 129 1068 q 166 1111 149 1099 q 206 1123 183 1123 q 251 1110 232 1123 q 288 1083 271 1097 q 323 1070 305 1070 q 348 1082 339 1070 q 362 1103 357 1094 l 399 1076 q 386 1051 396 1064 q 360 1030 376 1038 q 322 1021 344 1021 z "},"O":{"ha":460,"x_min":42,"x_max":418,"o":"m 228 -15 q 124 51 165 -15 q 62 230 82 117 q 42 485 42 342 q 62 741 42 628 q 124 921 82 855 q 228 988 165 988 q 334 921 292 988 q 397 741 376 855 q 418 485 418 628 q 397 230 418 342 q 334 51 376 117 q 228 -15 292 -15 m 228 26 q 291 61 264 26 q 336 159 318 97 q 364 306 355 222 q 374 485 374 389 q 364 664 374 581 q 336 811 355 748 q 291 910 318 874 q 228 946 264 946 q 166 910 193 946 q 122 811 140 874 q 95 664 104 748 q 86 485 86 581 q 95 306 86 389 q 122 159 104 222 q 166 61 140 97 q 228 26 193 26 z "},"Ó":{"ha":460,"x_min":42,"x_max":418,"o":"m 228 -15 q 124 51 165 -15 q 62 230 82 117 q 42 485 42 342 q 62 741 42 628 q 124 921 82 855 q 228 988 165 988 q 334 921 292 988 q 397 741 376 855 q 418 485 418 628 q 397 230 418 342 q 334 51 376 117 q 228 -15 292 -15 m 228 26 q 291 61 264 26 q 336 159 318 97 q 364 306 355 222 q 374 485 374 389 q 364 664 374 581 q 336 811 355 748 q 291 910 318 874 q 228 946 264 946 q 166 910 193 946 q 122 811 140 874 q 95 664 104 748 q 86 485 86 581 q 95 306 86 389 q 122 159 104 222 q 166 61 140 97 q 228 26 193 26 m 152 1004 l 135 1023 l 250 1113 q 271 1126 260 1120 q 292 1132 283 1132 q 305 1129 299 1132 q 315 1119 311 1126 q 317 1108 317 1114 q 304 1083 317 1094 q 274 1065 290 1072 l 152 1004 z "},"Ô":{"ha":460,"x_min":42,"x_max":418,"o":"m 228 -15 q 124 51 165 -15 q 62 230 82 117 q 42 485 42 342 q 62 741 42 628 q 124 921 82 855 q 228 988 165 988 q 334 921 292 988 q 397 741 376 855 q 418 485 418 628 q 397 230 418 342 q 334 51 376 117 q 228 -15 292 -15 m 228 26 q 291 61 264 26 q 336 159 318 97 q 364 306 355 222 q 374 485 374 389 q 364 664 374 581 q 336 811 355 748 q 291 910 318 874 q 228 946 264 946 q 166 910 193 946 q 122 811 140 874 q 95 664 104 748 q 86 485 86 581 q 95 306 86 389 q 122 159 104 222 q 166 61 140 97 q 228 26 193 26 m 103 1011 l 206 1156 l 255 1156 l 356 1011 l 315 1011 l 230 1110 l 145 1011 l 103 1011 z "},"Ố":{"ha":460,"x_min":42,"x_max":459,"o":"m 228 -15 q 124 51 165 -15 q 62 230 82 117 q 42 485 42 342 q 62 741 42 628 q 124 921 82 855 q 228 988 165 988 q 334 921 292 988 q 397 741 376 855 q 418 485 418 628 q 397 230 418 342 q 334 51 376 117 q 228 -15 292 -15 m 228 26 q 291 61 264 26 q 336 159 318 97 q 364 306 355 222 q 374 485 374 389 q 364 664 374 581 q 336 811 355 748 q 291 910 318 874 q 228 946 264 946 q 166 910 193 946 q 122 811 140 874 q 95 664 104 748 q 86 485 86 581 q 95 306 86 389 q 122 159 104 222 q 166 61 140 97 q 228 26 193 26 m 103 1015 l 206 1132 l 255 1132 l 356 1015 l 315 1015 l 230 1086 l 145 1015 l 103 1015 m 318 1123 l 304 1139 l 401 1215 q 438 1231 421 1231 q 448 1228 443 1231 q 456 1220 453 1226 q 459 1210 459 1217 q 447 1190 459 1199 q 422 1174 435 1181 l 318 1123 z "},"Ộ":{"ha":460,"x_min":42,"x_max":418,"o":"m 228 -15 q 124 51 165 -15 q 62 230 82 117 q 42 485 42 342 q 62 741 42 628 q 124 921 82 855 q 228 988 165 988 q 334 921 292 988 q 397 741 376 855 q 418 485 418 628 q 397 230 418 342 q 334 51 376 117 q 228 -15 292 -15 m 228 26 q 291 61 264 26 q 336 159 318 97 q 364 306 355 222 q 374 485 374 389 q 364 664 374 581 q 336 811 355 748 q 291 910 318 874 q 228 946 264 946 q 166 910 193 946 q 122 811 140 874 q 95 664 104 748 q 86 485 86 581 q 95 306 86 389 q 122 159 104 222 q 166 61 140 97 q 228 26 193 26 m 228 -174 q 197 -161 211 -174 q 183 -131 183 -148 q 197 -99 183 -112 q 228 -85 211 -85 q 259 -99 246 -85 q 273 -131 273 -112 q 259 -161 273 -148 q 228 -174 246 -174 m 103 1011 l 206 1156 l 255 1156 l 356 1011 l 315 1011 l 230 1110 l 145 1011 l 103 1011 z "},"Ồ":{"ha":460,"x_min":42,"x_max":418,"o":"m 228 -15 q 124 51 165 -15 q 62 230 82 117 q 42 485 42 342 q 62 741 42 628 q 124 921 82 855 q 228 988 165 988 q 334 921 292 988 q 397 741 376 855 q 418 485 418 628 q 397 230 418 342 q 334 51 376 117 q 228 -15 292 -15 m 228 26 q 291 61 264 26 q 336 159 318 97 q 364 306 355 222 q 374 485 374 389 q 364 664 374 581 q 336 811 355 748 q 291 910 318 874 q 228 946 264 946 q 166 910 193 946 q 122 811 140 874 q 95 664 104 748 q 86 485 86 581 q 95 306 86 389 q 122 159 104 222 q 166 61 140 97 q 228 26 193 26 m 103 1015 l 206 1132 l 255 1132 l 356 1015 l 315 1015 l 230 1086 l 145 1015 l 103 1015 m 369 1116 l 253 1169 q 232 1181 240 1175 q 224 1201 224 1188 q 232 1218 224 1213 q 251 1224 240 1224 q 270 1220 262 1224 q 285 1210 278 1217 l 381 1131 l 369 1116 z "},"Ổ":{"ha":460,"x_min":42,"x_max":418,"o":"m 228 -15 q 124 51 165 -15 q 62 230 82 117 q 42 485 42 342 q 62 741 42 628 q 124 921 82 855 q 228 988 165 988 q 334 921 292 988 q 397 741 376 855 q 418 485 418 628 q 397 230 418 342 q 334 51 376 117 q 228 -15 292 -15 m 228 26 q 291 61 264 26 q 336 159 318 97 q 364 306 355 222 q 374 485 374 389 q 364 664 374 581 q 336 811 355 748 q 291 910 318 874 q 228 946 264 946 q 166 910 193 946 q 122 811 140 874 q 95 664 104 748 q 86 485 86 581 q 95 306 86 389 q 122 159 104 222 q 166 61 140 97 q 228 26 193 26 m 102 1015 l 204 1133 l 253 1133 l 355 1015 l 313 1015 l 228 1087 l 144 1015 l 102 1015 m 332 1251 q 383 1237 361 1251 q 405 1194 405 1223 q 391 1154 405 1170 q 363 1126 377 1138 q 349 1101 349 1115 l 318 1101 q 331 1135 318 1122 q 355 1161 343 1149 q 367 1192 367 1174 q 355 1216 367 1210 q 322 1222 342 1222 q 296 1217 309 1222 q 276 1206 283 1213 l 254 1228 q 287 1245 264 1240 q 332 1251 310 1251 z "},"Ỗ":{"ha":460,"x_min":42,"x_max":418,"o":"m 228 -15 q 124 51 165 -15 q 62 230 82 117 q 42 485 42 342 q 62 741 42 628 q 124 921 82 855 q 228 988 165 988 q 334 921 292 988 q 397 741 376 855 q 418 485 418 628 q 397 230 418 342 q 334 51 376 117 q 228 -15 292 -15 m 228 26 q 291 61 264 26 q 336 159 318 97 q 364 306 355 222 q 374 485 374 389 q 364 664 374 581 q 336 811 355 748 q 291 910 318 874 q 228 946 264 946 q 166 910 193 946 q 122 811 140 874 q 95 664 104 748 q 86 485 86 581 q 95 306 86 389 q 122 159 104 222 q 166 61 140 97 q 228 26 193 26 m 103 1015 l 206 1133 l 255 1133 l 356 1015 l 315 1015 l 230 1087 l 145 1015 l 103 1015 m 289 1160 q 243 1173 263 1160 q 206 1199 223 1186 q 169 1212 188 1212 q 137 1197 149 1212 q 121 1172 124 1181 l 86 1190 q 101 1220 90 1203 q 132 1250 113 1237 q 173 1263 150 1263 q 219 1249 199 1263 q 257 1223 239 1236 q 293 1210 274 1210 q 323 1222 313 1210 q 338 1242 333 1233 l 374 1222 q 358 1196 370 1210 q 329 1171 347 1181 q 289 1160 311 1160 z "},"Ö":{"ha":460,"x_min":42,"x_max":418,"o":"m 228 -15 q 124 51 165 -15 q 62 230 82 117 q 42 485 42 342 q 62 741 42 628 q 124 921 82 855 q 228 988 165 988 q 334 921 292 988 q 397 741 376 855 q 418 485 418 628 q 397 230 418 342 q 334 51 376 117 q 228 -15 292 -15 m 228 26 q 291 61 264 26 q 336 159 318 97 q 364 306 355 222 q 374 485 374 389 q 364 664 374 581 q 336 811 355 748 q 291 910 318 874 q 228 946 264 946 q 166 910 193 946 q 122 811 140 874 q 95 664 104 748 q 86 485 86 581 q 95 306 86 389 q 122 159 104 222 q 166 61 140 97 q 228 26 193 26 m 304 1040 q 273 1053 286 1040 q 260 1083 260 1066 q 273 1116 260 1102 q 304 1130 286 1130 q 335 1116 322 1130 q 348 1083 348 1102 q 335 1053 348 1066 q 304 1040 322 1040 m 155 1040 q 125 1053 138 1040 q 111 1083 111 1066 q 125 1116 111 1102 q 155 1130 138 1130 q 187 1116 173 1130 q 201 1083 201 1102 q 187 1053 201 1066 q 155 1040 173 1040 z "},"Ọ":{"ha":460,"x_min":42,"x_max":418,"o":"m 228 -15 q 124 51 165 -15 q 62 230 82 117 q 42 485 42 342 q 62 741 42 628 q 124 921 82 855 q 228 988 165 988 q 334 921 292 988 q 397 741 376 855 q 418 485 418 628 q 397 230 418 342 q 334 51 376 117 q 228 -15 292 -15 m 228 26 q 291 61 264 26 q 336 159 318 97 q 364 306 355 222 q 374 485 374 389 q 364 664 374 581 q 336 811 355 748 q 291 910 318 874 q 228 946 264 946 q 166 910 193 946 q 122 811 140 874 q 95 664 104 748 q 86 485 86 581 q 95 306 86 389 q 122 159 104 222 q 166 61 140 97 q 228 26 193 26 m 228 -174 q 197 -161 211 -174 q 183 -131 183 -148 q 197 -99 183 -112 q 228 -85 211 -85 q 259 -99 246 -85 q 273 -131 273 -112 q 259 -161 273 -148 q 228 -174 246 -174 z "},"Ò":{"ha":460,"x_min":42,"x_max":418,"o":"m 228 -15 q 124 51 165 -15 q 62 230 82 117 q 42 485 42 342 q 62 741 42 628 q 124 921 82 855 q 228 988 165 988 q 334 921 292 988 q 397 741 376 855 q 418 485 418 628 q 397 230 418 342 q 334 51 376 117 q 228 -15 292 -15 m 228 26 q 291 61 264 26 q 336 159 318 97 q 364 306 355 222 q 374 485 374 389 q 364 664 374 581 q 336 811 355 748 q 291 910 318 874 q 228 946 264 946 q 166 910 193 946 q 122 811 140 874 q 95 664 104 748 q 86 485 86 581 q 95 306 86 389 q 122 159 104 222 q 166 61 140 97 q 228 26 193 26 m 310 1004 l 176 1066 q 151 1081 160 1074 q 142 1103 142 1088 q 150 1123 142 1117 q 172 1130 159 1130 q 194 1125 185 1130 q 212 1113 203 1121 l 324 1022 l 310 1004 z "},"Ỏ":{"ha":460,"x_min":42,"x_max":418,"o":"m 228 -15 q 124 51 165 -15 q 62 230 82 117 q 42 485 42 342 q 62 741 42 628 q 124 921 82 855 q 228 988 165 988 q 334 921 292 988 q 397 741 376 855 q 418 485 418 628 q 397 230 418 342 q 334 51 376 117 q 228 -15 292 -15 m 228 26 q 291 61 264 26 q 336 159 318 97 q 364 306 355 222 q 374 485 374 389 q 364 664 374 581 q 336 811 355 748 q 291 910 318 874 q 228 946 264 946 q 166 910 193 946 q 122 811 140 874 q 95 664 104 748 q 86 485 86 581 q 95 306 86 389 q 122 159 104 222 q 166 61 140 97 q 228 26 193 26 m 226 1207 q 291 1189 263 1207 q 318 1135 318 1172 q 301 1085 318 1105 q 266 1050 283 1065 q 248 1018 248 1035 l 209 1018 q 225 1062 209 1045 q 256 1094 240 1078 q 271 1132 271 1109 q 255 1163 271 1156 q 215 1169 240 1169 q 182 1164 198 1169 q 156 1150 165 1158 l 128 1178 q 170 1200 141 1192 q 226 1207 199 1207 z "},"Ơ":{"ha":460,"x_min":42,"x_max":459,"o":"m 228 -15 q 124 51 165 -15 q 62 230 82 117 q 42 485 42 342 q 62 741 42 628 q 124 921 82 855 q 228 988 165 988 q 334 921 292 988 q 397 741 376 855 q 418 485 418 628 q 397 230 418 342 q 334 51 376 117 q 228 -15 292 -15 m 228 26 q 291 61 264 26 q 336 159 318 97 q 364 306 355 222 q 374 485 374 389 q 364 664 374 581 q 336 811 355 748 q 291 910 318 874 q 228 946 264 946 q 166 910 193 946 q 122 811 140 874 q 95 664 104 748 q 86 485 86 581 q 95 306 86 389 q 122 159 104 222 q 166 61 140 97 q 228 26 193 26 m 292 925 l 292 967 q 359 977 329 967 q 389 1024 389 988 q 388 1054 389 1038 q 387 1082 387 1071 q 398 1114 387 1102 q 423 1126 408 1126 q 448 1114 438 1126 q 459 1082 459 1103 q 432 983 459 1017 q 365 937 404 949 q 292 925 326 925 z "},"Ớ":{"ha":460,"x_min":42,"x_max":459,"o":"m 228 -15 q 124 51 165 -15 q 62 230 82 117 q 42 485 42 342 q 62 741 42 628 q 124 921 82 855 q 228 988 165 988 q 334 921 292 988 q 397 741 376 855 q 418 485 418 628 q 397 230 418 342 q 334 51 376 117 q 228 -15 292 -15 m 228 26 q 291 61 264 26 q 336 159 318 97 q 364 306 355 222 q 374 485 374 389 q 364 664 374 581 q 336 811 355 748 q 291 910 318 874 q 228 946 264 946 q 166 910 193 946 q 122 811 140 874 q 95 664 104 748 q 86 485 86 581 q 95 306 86 389 q 122 159 104 222 q 166 61 140 97 q 228 26 193 26 m 292 925 l 292 967 q 359 977 329 967 q 389 1024 389 988 q 388 1054 389 1038 q 387 1082 387 1071 q 398 1114 387 1102 q 423 1126 408 1126 q 448 1114 438 1126 q 459 1082 459 1103 q 432 983 459 1017 q 365 937 404 949 q 292 925 326 925 m 152 1004 l 135 1023 l 250 1113 q 271 1126 260 1120 q 292 1132 283 1132 q 305 1129 299 1132 q 315 1119 311 1126 q 317 1108 317 1114 q 304 1083 317 1094 q 274 1065 290 1072 l 152 1004 z "},"Ợ":{"ha":460,"x_min":42,"x_max":459,"o":"m 228 -15 q 124 51 165 -15 q 62 230 82 117 q 42 485 42 342 q 62 741 42 628 q 124 921 82 855 q 228 988 165 988 q 334 921 292 988 q 397 741 376 855 q 418 485 418 628 q 397 230 418 342 q 334 51 376 117 q 228 -15 292 -15 m 228 26 q 291 61 264 26 q 336 159 318 97 q 364 306 355 222 q 374 485 374 389 q 364 664 374 581 q 336 811 355 748 q 291 910 318 874 q 228 946 264 946 q 166 910 193 946 q 122 811 140 874 q 95 664 104 748 q 86 485 86 581 q 95 306 86 389 q 122 159 104 222 q 166 61 140 97 q 228 26 193 26 m 292 925 l 292 967 q 359 977 329 967 q 389 1024 389 988 q 388 1054 389 1038 q 387 1082 387 1071 q 398 1114 387 1102 q 423 1126 408 1126 q 448 1114 438 1126 q 459 1082 459 1103 q 432 983 459 1017 q 365 937 404 949 q 292 925 326 925 m 228 -174 q 197 -161 211 -174 q 183 -131 183 -148 q 197 -99 183 -112 q 228 -85 211 -85 q 259 -99 246 -85 q 273 -131 273 -112 q 259 -161 273 -148 q 228 -174 246 -174 z "},"Ờ":{"ha":460,"x_min":42,"x_max":459,"o":"m 228 -15 q 124 51 165 -15 q 62 230 82 117 q 42 485 42 342 q 62 741 42 628 q 124 921 82 855 q 228 988 165 988 q 334 921 292 988 q 397 741 376 855 q 418 485 418 628 q 397 230 418 342 q 334 51 376 117 q 228 -15 292 -15 m 228 26 q 291 61 264 26 q 336 159 318 97 q 364 306 355 222 q 374 485 374 389 q 364 664 374 581 q 336 811 355 748 q 291 910 318 874 q 228 946 264 946 q 166 910 193 946 q 122 811 140 874 q 95 664 104 748 q 86 485 86 581 q 95 306 86 389 q 122 159 104 222 q 166 61 140 97 q 228 26 193 26 m 292 925 l 292 967 q 359 977 329 967 q 389 1024 389 988 q 388 1054 389 1038 q 387 1082 387 1071 q 398 1114 387 1102 q 423 1126 408 1126 q 448 1114 438 1126 q 459 1082 459 1103 q 432 983 459 1017 q 365 937 404 949 q 292 925 326 925 m 310 1004 l 176 1066 q 151 1081 160 1074 q 142 1103 142 1088 q 150 1123 142 1117 q 172 1130 159 1130 q 194 1125 185 1130 q 212 1113 203 1121 l 324 1022 l 310 1004 z "},"Ở":{"ha":460,"x_min":42,"x_max":459,"o":"m 228 -15 q 124 51 165 -15 q 62 230 82 117 q 42 485 42 342 q 62 741 42 628 q 124 921 82 855 q 228 988 165 988 q 334 921 292 988 q 397 741 376 855 q 418 485 418 628 q 397 230 418 342 q 334 51 376 117 q 228 -15 292 -15 m 228 26 q 291 61 264 26 q 336 159 318 97 q 364 306 355 222 q 374 485 374 389 q 364 664 374 581 q 336 811 355 748 q 291 910 318 874 q 228 946 264 946 q 166 910 193 946 q 122 811 140 874 q 95 664 104 748 q 86 485 86 581 q 95 306 86 389 q 122 159 104 222 q 166 61 140 97 q 228 26 193 26 m 292 925 l 292 967 q 359 977 329 967 q 389 1024 389 988 q 388 1054 389 1038 q 387 1082 387 1071 q 398 1114 387 1102 q 423 1126 408 1126 q 448 1114 438 1126 q 459 1082 459 1103 q 432 983 459 1017 q 365 937 404 949 q 292 925 326 925 m 226 1207 q 291 1189 263 1207 q 318 1135 318 1172 q 301 1085 318 1105 q 266 1050 283 1065 q 248 1018 248 1035 l 209 1018 q 225 1062 209 1045 q 256 1094 240 1078 q 271 1132 271 1109 q 255 1163 271 1156 q 215 1169 240 1169 q 182 1164 198 1169 q 156 1150 165 1158 l 128 1178 q 170 1200 141 1192 q 226 1207 199 1207 z "},"Ỡ":{"ha":460,"x_min":42,"x_max":459,"o":"m 228 -15 q 124 51 165 -15 q 62 230 82 117 q 42 485 42 342 q 62 741 42 628 q 124 921 82 855 q 228 988 165 988 q 334 921 292 988 q 397 741 376 855 q 418 485 418 628 q 397 230 418 342 q 334 51 376 117 q 228 -15 292 -15 m 228 26 q 291 61 264 26 q 336 159 318 97 q 364 306 355 222 q 374 485 374 389 q 364 664 374 581 q 336 811 355 748 q 291 910 318 874 q 228 946 264 946 q 166 910 193 946 q 122 811 140 874 q 95 664 104 748 q 86 485 86 581 q 95 306 86 389 q 122 159 104 222 q 166 61 140 97 q 228 26 193 26 m 292 925 l 292 967 q 359 977 329 967 q 389 1024 389 988 q 388 1054 389 1038 q 387 1082 387 1071 q 398 1114 387 1102 q 423 1126 408 1126 q 448 1114 438 1126 q 459 1082 459 1103 q 432 983 459 1017 q 365 937 404 949 q 292 925 326 925 m 289 1021 q 244 1034 263 1021 q 211 1059 226 1047 q 176 1072 195 1072 q 146 1057 156 1072 q 132 1032 135 1042 l 93 1055 q 107 1084 97 1068 q 133 1111 117 1099 q 173 1123 150 1123 q 219 1110 199 1123 q 255 1083 238 1097 q 290 1070 272 1070 q 315 1082 306 1070 q 329 1103 324 1094 l 367 1076 q 353 1051 363 1064 q 327 1030 343 1038 q 289 1021 311 1021 z "},"Ő":{"ha":460,"x_min":42,"x_max":418,"o":"m 228 -15 q 124 51 165 -15 q 62 230 82 117 q 42 485 42 342 q 62 741 42 628 q 124 921 82 855 q 228 988 165 988 q 334 921 292 988 q 397 741 376 855 q 418 485 418 628 q 397 230 418 342 q 334 51 376 117 q 228 -15 292 -15 m 228 26 q 291 61 264 26 q 336 159 318 97 q 364 306 355 222 q 374 485 374 389 q 364 664 374 581 q 336 811 355 748 q 291 910 318 874 q 228 946 264 946 q 166 910 193 946 q 122 811 140 874 q 95 664 104 748 q 86 485 86 581 q 95 306 86 389 q 122 159 104 222 q 166 61 140 97 q 228 26 193 26 m 299 1042 l 281 1060 l 351 1148 q 368 1166 360 1160 q 384 1172 376 1172 q 400 1165 394 1172 q 406 1149 406 1159 q 387 1119 406 1133 l 299 1042 m 132 1042 l 114 1060 l 184 1148 q 202 1166 194 1160 q 217 1172 210 1172 q 233 1165 227 1172 q 240 1149 240 1159 q 220 1119 240 1133 l 132 1042 z "},"Ō":{"ha":460,"x_min":20,"x_max":440,"o":"m 228 -15 q 124 51 165 -15 q 62 230 82 117 q 42 485 42 342 q 62 741 42 628 q 124 921 82 855 q 228 988 165 988 q 334 921 292 988 q 397 741 376 855 q 418 485 418 628 q 397 230 418 342 q 334 51 376 117 q 228 -15 292 -15 m 228 26 q 291 61 264 26 q 336 159 318 97 q 364 306 355 222 q 374 485 374 389 q 364 664 374 581 q 336 811 355 748 q 291 910 318 874 q 228 946 264 946 q 166 910 193 946 q 122 811 140 874 q 95 664 104 748 q 86 485 86 581 q 95 306 86 389 q 122 159 104 222 q 166 61 140 97 q 228 26 193 26 m 20 1064 l 20 1106 l 440 1106 l 440 1064 l 20 1064 z "},"Ǫ":{"ha":460,"x_min":42,"x_max":418,"o":"m 228 -15 q 124 51 165 -15 q 62 230 82 117 q 42 485 42 342 q 62 741 42 628 q 124 921 82 855 q 228 988 165 988 q 334 921 292 988 q 397 741 376 855 q 418 485 418 628 q 397 230 418 342 q 334 51 376 117 q 228 -15 292 -15 m 228 26 q 291 61 264 26 q 336 159 318 97 q 364 306 355 222 q 374 485 374 389 q 364 664 374 581 q 336 811 355 748 q 291 910 318 874 q 228 946 264 946 q 166 910 193 946 q 122 811 140 874 q 95 664 104 748 q 86 485 86 581 q 95 306 86 389 q 122 159 104 222 q 166 61 140 97 q 228 26 193 26 m 296 -193 q 244 -184 271 -193 q 200 -155 218 -176 q 183 -97 183 -133 q 199 -46 183 -69 q 236 -7 215 -24 q 272 17 257 9 l 289 3 q 256 -35 275 -10 q 238 -94 238 -60 q 261 -141 238 -132 q 308 -151 284 -151 q 347 -147 324 -151 q 387 -133 371 -142 l 405 -162 q 361 -183 390 -174 q 296 -193 332 -193 z "},"Ø":{"ha":499,"x_min":42,"x_max":457,"o":"m 62 -72 l 414 1044 l 457 1044 l 106 -72 l 62 -72 m 228 -15 q 124 51 165 -15 q 62 230 82 117 q 42 485 42 342 q 62 741 42 628 q 124 921 82 855 q 228 988 165 988 q 334 921 292 988 q 397 741 376 855 q 418 485 418 628 q 397 230 418 342 q 334 51 376 117 q 228 -15 292 -15 m 228 26 q 291 61 264 26 q 336 159 318 97 q 364 306 355 222 q 374 485 374 389 q 364 664 374 581 q 336 811 355 748 q 291 910 318 874 q 228 946 264 946 q 166 910 193 946 q 122 811 140 874 q 95 664 104 748 q 86 485 86 581 q 95 306 86 389 q 122 159 104 222 q 166 61 140 97 q 228 26 193 26 z "},"Ǿ":{"ha":499,"x_min":42,"x_max":457,"o":"m 62 -72 l 414 1044 l 457 1044 l 106 -72 l 62 -72 m 228 -15 q 124 51 165 -15 q 62 230 82 117 q 42 485 42 342 q 62 741 42 628 q 124 921 82 855 q 228 988 165 988 q 334 921 292 988 q 397 741 376 855 q 418 485 418 628 q 397 230 418 342 q 334 51 376 117 q 228 -15 292 -15 m 228 26 q 291 61 264 26 q 336 159 318 97 q 364 306 355 222 q 374 485 374 389 q 364 664 374 581 q 336 811 355 748 q 291 910 318 874 q 228 946 264 946 q 166 910 193 946 q 122 811 140 874 q 95 664 104 748 q 86 485 86 581 q 95 306 86 389 q 122 159 104 222 q 166 61 140 97 q 228 26 193 26 m 152 1004 l 135 1023 l 250 1113 q 271 1126 260 1120 q 292 1132 283 1132 q 305 1129 299 1132 q 315 1119 311 1126 q 317 1108 317 1114 q 304 1083 317 1094 q 274 1065 290 1072 l 152 1004 z "},"Õ":{"ha":460,"x_min":42,"x_max":418,"o":"m 228 -15 q 124 51 165 -15 q 62 230 82 117 q 42 485 42 342 q 62 741 42 628 q 124 921 82 855 q 228 988 165 988 q 334 921 292 988 q 397 741 376 855 q 418 485 418 628 q 397 230 418 342 q 334 51 376 117 q 228 -15 292 -15 m 228 26 q 291 61 264 26 q 336 159 318 97 q 364 306 355 222 q 374 485 374 389 q 364 664 374 581 q 336 811 355 748 q 291 910 318 874 q 228 946 264 946 q 166 910 193 946 q 122 811 140 874 q 95 664 104 748 q 86 485 86 581 q 95 306 86 389 q 122 159 104 222 q 166 61 140 97 q 228 26 193 26 m 289 1021 q 244 1034 263 1021 q 211 1059 226 1047 q 176 1072 195 1072 q 146 1057 156 1072 q 132 1032 135 1042 l 93 1055 q 107 1084 97 1068 q 133 1111 117 1099 q 173 1123 150 1123 q 219 1110 199 1123 q 255 1083 238 1097 q 290 1070 272 1070 q 315 1082 306 1070 q 329 1103 324 1094 l 367 1076 q 353 1051 363 1064 q 327 1030 343 1038 q 289 1021 311 1021 z "},"Œ":{"ha":635,"x_min":42,"x_max":581,"o":"m 240 -15 q 132 51 176 -15 q 65 230 88 117 q 42 485 42 342 q 65 741 42 628 q 134 921 89 855 q 242 988 179 988 q 288 982 263 988 q 326 963 313 977 l 319 917 q 283 940 304 934 q 242 946 262 946 q 173 907 203 946 q 124 801 144 867 q 95 652 105 735 q 86 485 86 570 q 95 317 86 399 q 123 170 104 235 q 171 65 142 104 q 240 26 200 26 q 283 31 267 26 q 308 44 299 35 q 324 66 317 53 l 336 19 q 297 -7 322 1 q 240 -15 272 -15 m 310 0 l 310 972 l 581 972 l 581 803 l 539 803 q 535 886 539 859 q 514 922 531 914 q 461 931 498 931 l 351 931 l 351 522 l 511 522 l 511 591 l 553 591 l 553 412 l 511 412 l 511 480 l 351 480 l 351 42 l 453 42 q 511 51 493 42 q 534 88 529 60 q 539 172 539 115 l 581 172 l 581 0 l 310 0 z "},"P":{"ha":443,"x_min":40,"x_max":409,"o":"m 40 0 l 40 42 l 113 42 l 113 931 l 40 931 l 40 972 l 241 972 q 298 959 269 972 q 352 915 327 946 q 393 833 378 885 q 409 705 409 781 q 393 568 409 626 q 352 470 377 509 q 297 413 326 432 q 241 394 267 394 l 154 394 l 154 42 l 226 42 l 226 0 l 40 0 m 154 435 l 230 435 q 293 466 262 435 q 344 557 324 497 q 365 706 365 617 q 345 839 365 790 q 297 909 326 888 q 235 931 267 931 l 154 931 l 154 435 z "},"Þ":{"ha":486,"x_min":48,"x_max":419,"o":"m 132 208 l 132 253 l 190 253 q 285 286 245 253 q 348 379 326 319 q 369 519 369 439 q 349 649 369 594 q 292 734 328 704 q 206 765 255 765 l 132 765 l 132 810 l 218 810 q 319 775 273 810 q 392 673 365 739 q 419 519 419 608 q 391 356 419 426 q 315 247 363 286 q 208 208 267 208 l 132 208 m 48 0 l 48 42 l 113 42 l 113 931 l 48 931 l 48 972 l 219 972 l 219 931 l 154 931 l 154 42 l 219 42 l 219 0 l 48 0 z "},"Q":{"ha":460,"x_min":42,"x_max":444,"o":"m 405 -231 q 381 -217 390 -231 q 372 -183 372 -203 q 376 -149 372 -165 q 384 -112 380 -133 q 388 -61 388 -92 q 374 -10 388 -38 q 327 18 360 18 q 307 13 319 18 q 287 3 294 8 l 301 42 q 313 49 304 44 q 341 53 322 53 q 418 0 391 53 q 444 -144 444 -53 q 434 -209 444 -188 q 405 -231 424 -231 m 228 -15 q 124 51 165 -15 q 62 230 82 117 q 42 485 42 342 q 62 741 42 628 q 124 921 82 855 q 228 988 165 988 q 334 921 292 988 q 397 741 376 855 q 418 485 418 628 q 397 230 418 342 q 334 51 376 117 q 228 -15 292 -15 m 228 26 q 291 61 264 26 q 336 159 318 97 q 364 306 355 222 q 374 485 374 389 q 364 664 374 581 q 336 811 355 748 q 291 910 318 874 q 228 946 264 946 q 166 910 193 946 q 122 811 140 874 q 95 664 104 748 q 86 485 86 581 q 95 306 86 389 q 122 159 104 222 q 166 61 140 97 q 228 26 193 26 z "},"R":{"ha":497,"x_min":48,"x_max":478,"o":"m 423 -10 q 378 10 393 -10 q 359 65 364 31 q 355 139 355 99 q 356 211 355 174 q 358 285 358 249 q 347 407 358 365 q 304 464 337 449 q 203 480 271 480 l 154 480 l 154 42 l 219 42 l 219 0 l 48 0 l 48 42 l 113 42 l 113 931 l 48 931 l 48 972 l 247 972 q 335 949 298 972 q 393 876 373 926 q 414 747 414 826 q 403 640 414 685 q 375 565 393 594 q 331 519 356 535 q 276 501 306 503 q 357 476 330 501 q 392 403 383 450 q 401 293 401 356 q 400 224 401 260 q 399 153 399 188 q 401 98 399 128 q 409 47 403 68 q 426 25 415 25 q 436 33 431 25 q 441 49 441 40 l 478 49 q 469 17 478 30 q 448 -3 460 3 q 423 -10 435 -10 m 154 522 l 227 522 q 311 552 279 522 q 357 632 342 582 q 372 744 372 683 q 361 842 372 800 q 322 907 351 884 q 238 931 293 931 l 154 931 l 154 522 z "},"Ŕ":{"ha":497,"x_min":48,"x_max":478,"o":"m 423 -10 q 378 10 393 -10 q 359 65 364 31 q 355 139 355 99 q 356 211 355 174 q 358 285 358 249 q 347 407 358 365 q 304 464 337 449 q 203 480 271 480 l 154 480 l 154 42 l 219 42 l 219 0 l 48 0 l 48 42 l 113 42 l 113 931 l 48 931 l 48 972 l 247 972 q 335 949 298 972 q 393 876 373 926 q 414 747 414 826 q 403 640 414 685 q 375 565 393 594 q 331 519 356 535 q 276 501 306 503 q 357 476 330 501 q 392 403 383 450 q 401 293 401 356 q 400 224 401 260 q 399 153 399 188 q 401 98 399 128 q 409 47 403 68 q 426 25 415 25 q 436 33 431 25 q 441 49 441 40 l 478 49 q 469 17 478 30 q 448 -3 460 3 q 423 -10 435 -10 m 154 522 l 227 522 q 311 552 279 522 q 357 632 342 582 q 372 744 372 683 q 361 842 372 800 q 322 907 351 884 q 238 931 293 931 l 154 931 l 154 522 m 171 1004 l 154 1023 l 269 1113 q 290 1126 278 1120 q 311 1132 301 1132 q 324 1129 318 1132 q 333 1119 330 1126 q 336 1108 336 1114 q 323 1083 336 1094 q 293 1065 309 1072 l 171 1004 z "},"Ř":{"ha":497,"x_min":48,"x_max":478,"o":"m 423 -10 q 378 10 393 -10 q 359 65 364 31 q 355 139 355 99 q 356 211 355 174 q 358 285 358 249 q 347 407 358 365 q 304 464 337 449 q 203 480 271 480 l 154 480 l 154 42 l 219 42 l 219 0 l 48 0 l 48 42 l 113 42 l 113 931 l 48 931 l 48 972 l 247 972 q 335 949 298 972 q 393 876 373 926 q 414 747 414 826 q 403 640 414 685 q 375 565 393 594 q 331 519 356 535 q 276 501 306 503 q 357 476 330 501 q 392 403 383 450 q 401 293 401 356 q 400 224 401 260 q 399 153 399 188 q 401 98 399 128 q 409 47 403 68 q 426 25 415 25 q 436 33 431 25 q 441 49 441 40 l 478 49 q 469 17 478 30 q 448 -3 460 3 q 423 -10 435 -10 m 154 522 l 227 522 q 311 552 279 522 q 357 632 342 582 q 372 744 372 683 q 361 842 372 800 q 322 907 351 884 q 238 931 293 931 l 154 931 l 154 522 m 224 1017 l 122 1162 l 164 1162 l 249 1063 l 333 1162 l 375 1162 l 274 1017 l 224 1017 z "},"Ŗ":{"ha":497,"x_min":48,"x_max":478,"o":"m 423 -10 q 378 10 393 -10 q 359 65 364 31 q 355 139 355 99 q 356 211 355 174 q 358 285 358 249 q 347 407 358 365 q 304 464 337 449 q 203 480 271 480 l 154 480 l 154 42 l 219 42 l 219 0 l 48 0 l 48 42 l 113 42 l 113 931 l 48 931 l 48 972 l 247 972 q 335 949 298 972 q 393 876 373 926 q 414 747 414 826 q 403 640 414 685 q 375 565 393 594 q 331 519 356 535 q 276 501 306 503 q 357 476 330 501 q 392 403 383 450 q 401 293 401 356 q 400 224 401 260 q 399 153 399 188 q 401 98 399 128 q 409 47 403 68 q 426 25 415 25 q 436 33 431 25 q 441 49 441 40 l 478 49 q 469 17 478 30 q 448 -3 460 3 q 423 -10 435 -10 m 154 522 l 227 522 q 311 552 279 522 q 357 632 342 582 q 372 744 372 683 q 361 842 372 800 q 322 907 351 884 q 238 931 293 931 l 154 931 l 154 522 m 244 -225 l 226 -203 q 244 -187 233 -199 q 256 -167 256 -174 q 247 -169 254 -169 q 221 -159 231 -169 q 210 -133 210 -148 q 222 -106 210 -117 q 249 -96 233 -96 q 278 -109 267 -96 q 289 -142 289 -122 q 282 -176 289 -160 q 265 -205 275 -192 q 244 -225 254 -217 z "},"S":{"ha":381,"x_min":48,"x_max":348,"o":"m 206 -19 q 163 -10 181 -19 q 132 9 144 -2 q 110 28 119 20 q 94 37 101 37 q 81 0 81 37 l 48 0 l 48 185 l 90 185 q 97 138 91 161 q 114 93 103 114 q 138 58 124 73 q 170 34 152 42 q 209 25 188 25 q 268 48 249 25 q 295 109 288 70 q 301 197 301 148 q 283 302 301 250 q 236 404 265 355 q 175 497 207 453 q 98 621 124 566 q 61 721 71 676 q 51 804 51 766 q 69 901 51 860 q 117 965 86 942 q 189 988 149 988 q 239 976 222 988 q 265 952 256 964 q 281 940 274 940 q 293 948 289 940 q 297 972 297 956 l 330 972 l 330 788 l 288 788 q 280 848 287 819 q 261 898 274 876 q 232 932 249 919 q 190 944 214 944 q 123 912 148 944 q 98 818 98 879 q 103 741 98 777 q 130 659 109 704 q 197 548 151 615 q 268 437 233 495 q 325 317 303 378 q 348 193 348 256 q 340 106 348 145 q 316 40 333 67 q 273 -3 300 12 q 206 -19 246 -19 z "},"Ś":{"ha":381,"x_min":48,"x_max":348,"o":"m 206 -19 q 163 -10 181 -19 q 132 9 144 -2 q 110 28 119 20 q 94 37 101 37 q 81 0 81 37 l 48 0 l 48 185 l 90 185 q 97 138 91 161 q 114 93 103 114 q 138 58 124 73 q 170 34 152 42 q 209 25 188 25 q 268 48 249 25 q 295 109 288 70 q 301 197 301 148 q 283 302 301 250 q 236 404 265 355 q 175 497 207 453 q 98 621 124 566 q 61 721 71 676 q 51 804 51 766 q 69 901 51 860 q 117 965 86 942 q 189 988 149 988 q 239 976 222 988 q 265 952 256 964 q 281 940 274 940 q 293 948 289 940 q 297 972 297 956 l 330 972 l 330 788 l 288 788 q 280 848 287 819 q 261 898 274 876 q 232 932 249 919 q 190 944 214 944 q 123 912 148 944 q 98 818 98 879 q 103 741 98 777 q 130 659 109 704 q 197 548 151 615 q 268 437 233 495 q 325 317 303 378 q 348 193 348 256 q 340 106 348 145 q 316 40 333 67 q 273 -3 300 12 q 206 -19 246 -19 m 119 1004 l 102 1023 l 217 1113 q 238 1126 226 1120 q 259 1132 249 1132 q 272 1129 266 1132 q 281 1119 278 1126 q 284 1108 284 1114 q 270 1083 284 1094 q 241 1065 257 1072 l 119 1004 z "},"Š":{"ha":381,"x_min":48,"x_max":348,"o":"m 206 -19 q 163 -10 181 -19 q 132 9 144 -2 q 110 28 119 20 q 94 37 101 37 q 81 0 81 37 l 48 0 l 48 185 l 90 185 q 97 138 91 161 q 114 93 103 114 q 138 58 124 73 q 170 34 152 42 q 209 25 188 25 q 268 48 249 25 q 295 109 288 70 q 301 197 301 148 q 283 302 301 250 q 236 404 265 355 q 175 497 207 453 q 98 621 124 566 q 61 721 71 676 q 51 804 51 766 q 69 901 51 860 q 117 965 86 942 q 189 988 149 988 q 239 976 222 988 q 265 952 256 964 q 281 940 274 940 q 293 948 289 940 q 297 972 297 956 l 330 972 l 330 788 l 288 788 q 280 848 287 819 q 261 898 274 876 q 232 932 249 919 q 190 944 214 944 q 123 912 148 944 q 98 818 98 879 q 103 741 98 777 q 130 659 109 704 q 197 548 151 615 q 268 437 233 495 q 325 317 303 378 q 348 193 348 256 q 340 106 348 145 q 316 40 333 67 q 273 -3 300 12 q 206 -19 246 -19 m 172 1017 l 70 1162 l 112 1162 l 197 1063 l 281 1162 l 323 1162 l 222 1017 l 172 1017 z "},"Ş":{"ha":381,"x_min":48,"x_max":348,"o":"m 206 -19 q 163 -10 181 -19 q 132 9 144 -2 q 110 28 119 20 q 94 37 101 37 q 81 0 81 37 l 48 0 l 48 185 l 90 185 q 97 138 91 161 q 114 93 103 114 q 138 58 124 73 q 170 34 152 42 q 209 25 188 25 q 268 48 249 25 q 295 109 288 70 q 301 197 301 148 q 283 302 301 250 q 236 404 265 355 q 175 497 207 453 q 98 621 124 566 q 61 721 71 676 q 51 804 51 766 q 69 901 51 860 q 117 965 86 942 q 189 988 149 988 q 239 976 222 988 q 265 952 256 964 q 281 940 274 940 q 293 948 289 940 q 297 972 297 956 l 330 972 l 330 788 l 288 788 q 280 848 287 819 q 261 898 274 876 q 232 932 249 919 q 190 944 214 944 q 123 912 148 944 q 98 818 98 879 q 103 741 98 777 q 130 659 109 704 q 197 548 151 615 q 268 437 233 495 q 325 317 303 378 q 348 193 348 256 q 340 106 348 145 q 316 40 333 67 q 273 -3 300 12 q 206 -19 246 -19 m 215 -194 q 152 -188 176 -194 q 117 -176 128 -181 l 132 -142 q 160 -153 139 -147 q 217 -159 181 -159 q 258 -149 239 -159 q 277 -119 277 -139 q 264 -92 277 -99 q 233 -86 251 -86 q 207 -91 222 -86 q 182 -106 192 -97 l 142 -103 l 186 0 l 228 0 l 194 -71 q 213 -59 197 -66 q 247 -53 228 -53 q 295 -68 273 -53 q 317 -120 317 -83 q 299 -166 317 -149 q 258 -188 282 -182 q 215 -194 234 -194 z "},"Ș":{"ha":381,"x_min":48,"x_max":348,"o":"m 206 -19 q 163 -10 181 -19 q 132 9 144 -2 q 110 28 119 20 q 94 37 101 37 q 81 0 81 37 l 48 0 l 48 185 l 90 185 q 97 138 91 161 q 114 93 103 114 q 138 58 124 73 q 170 34 152 42 q 209 25 188 25 q 268 48 249 25 q 295 109 288 70 q 301 197 301 148 q 283 302 301 250 q 236 404 265 355 q 175 497 207 453 q 98 621 124 566 q 61 721 71 676 q 51 804 51 766 q 69 901 51 860 q 117 965 86 942 q 189 988 149 988 q 239 976 222 988 q 265 952 256 964 q 281 940 274 940 q 293 948 289 940 q 297 972 297 956 l 330 972 l 330 788 l 288 788 q 280 848 287 819 q 261 898 274 876 q 232 932 249 919 q 190 944 214 944 q 123 912 148 944 q 98 818 98 879 q 103 741 98 777 q 130 659 109 704 q 197 548 151 615 q 268 437 233 495 q 325 317 303 378 q 348 193 348 256 q 340 106 348 145 q 316 40 333 67 q 273 -3 300 12 q 206 -19 246 -19 m 203 -225 l 184 -203 q 202 -187 191 -199 q 214 -167 214 -174 q 206 -169 213 -169 q 179 -159 190 -169 q 169 -133 169 -148 q 180 -106 169 -117 q 207 -96 192 -96 q 236 -109 226 -96 q 247 -142 247 -122 q 240 -176 247 -160 q 223 -205 233 -192 q 203 -225 213 -217 z "},"ẞ":{"ha":518,"x_min":42,"x_max":485,"o":"m 322 -17 q 266 9 285 -17 q 247 83 247 34 q 258 117 247 108 q 279 126 268 126 q 300 119 291 126 q 309 92 309 111 q 306 74 309 81 q 300 61 303 67 q 297 49 297 56 q 302 32 297 40 q 323 23 308 23 q 376 44 353 23 q 413 108 399 65 q 426 213 426 150 q 406 320 426 269 q 358 416 387 371 q 300 499 329 460 q 252 569 272 538 q 233 623 233 600 q 247 666 233 638 q 283 731 260 694 q 334 808 306 768 q 389 885 361 847 q 439 952 417 922 l 265 952 q 200 937 224 952 q 166 886 176 922 q 156 788 156 851 l 156 0 l 42 0 l 42 42 l 115 42 l 115 780 q 132 914 115 869 q 183 974 149 958 q 269 989 217 989 l 460 989 l 485 952 q 418 861 455 912 q 349 763 382 811 q 295 677 317 714 q 274 627 274 641 q 294 585 274 613 q 342 518 313 557 q 399 431 370 479 q 447 329 427 383 q 466 216 466 274 q 448 92 466 144 q 397 11 429 40 q 322 -17 365 -17 z "},"Ə":{"ha":416,"x_min":42,"x_max":374,"o":"m 199 -17 q 121 22 151 -17 q 75 125 91 61 q 52 267 58 190 q 46 422 46 344 q 46 462 46 442 q 47 501 46 482 l 342 501 l 342 459 l 91 459 q 99 242 91 341 q 131 84 108 143 q 199 24 154 24 q 270 81 240 24 q 315 234 299 138 q 331 449 331 330 q 326 626 331 538 q 308 789 322 715 q 268 907 294 863 q 200 952 242 952 q 145 933 167 952 q 110 887 123 913 q 93 841 98 861 l 53 862 q 88 928 66 898 q 139 976 110 958 q 200 994 168 994 q 294 947 259 994 q 346 822 328 899 q 369 655 363 745 q 374 478 374 565 q 364 273 374 365 q 331 117 353 182 q 277 17 310 52 q 199 -17 244 -17 m 42 841 l 42 972 l 82 972 q 86 935 82 956 q 96 914 91 914 l 93 841 l 42 841 z "},"T":{"ha":451,"x_min":26,"x_max":424,"o":"m 128 0 l 128 42 l 205 42 l 205 931 l 125 931 q 85 922 97 931 q 70 886 73 914 q 68 803 68 859 l 26 803 l 26 972 l 424 972 l 424 803 l 383 803 q 380 886 383 859 q 366 922 378 914 q 326 931 354 931 l 247 931 l 247 42 l 326 42 l 326 0 l 128 0 z "},"Ŧ":{"ha":451,"x_min":26,"x_max":424,"o":"m 95 465 l 95 506 l 360 506 l 360 465 l 95 465 m 128 0 l 128 42 l 205 42 l 205 931 l 125 931 q 85 922 97 931 q 70 886 73 914 q 68 803 68 859 l 26 803 l 26 972 l 424 972 l 424 803 l 383 803 q 380 886 383 859 q 366 922 378 914 q 326 931 354 931 l 247 931 l 247 42 l 326 42 l 326 0 l 128 0 z "},"Ť":{"ha":451,"x_min":26,"x_max":424,"o":"m 128 0 l 128 42 l 205 42 l 205 931 l 125 931 q 85 922 97 931 q 70 886 73 914 q 68 803 68 859 l 26 803 l 26 972 l 424 972 l 424 803 l 383 803 q 380 886 383 859 q 366 922 378 914 q 326 931 354 931 l 247 931 l 247 42 l 326 42 l 326 0 l 128 0 m 206 1031 l 103 1176 l 145 1176 l 230 1077 l 315 1176 l 356 1176 l 255 1031 l 206 1031 z "},"Ţ":{"ha":451,"x_min":26,"x_max":424,"o":"m 128 0 l 128 42 l 205 42 l 205 931 l 125 931 q 85 922 97 931 q 70 886 73 914 q 68 803 68 859 l 26 803 l 26 972 l 424 972 l 424 803 l 383 803 q 380 886 383 859 q 366 922 378 914 q 326 931 354 931 l 247 931 l 247 42 l 326 42 l 326 0 l 128 0 m 233 -194 q 169 -188 194 -194 q 135 -176 145 -181 l 149 -142 q 177 -153 156 -147 q 234 -159 199 -159 q 275 -149 256 -159 q 294 -119 294 -139 q 281 -92 294 -99 q 251 -86 268 -86 q 224 -91 240 -86 q 199 -106 209 -97 l 160 -103 l 203 0 l 245 0 l 211 -71 q 230 -59 215 -66 q 265 -53 246 -53 q 312 -68 290 -53 q 334 -120 334 -83 q 317 -166 334 -149 q 275 -188 299 -182 q 233 -194 251 -194 z "},"Ț":{"ha":451,"x_min":26,"x_max":424,"o":"m 128 0 l 128 42 l 205 42 l 205 931 l 125 931 q 85 922 97 931 q 70 886 73 914 q 68 803 68 859 l 26 803 l 26 972 l 424 972 l 424 803 l 383 803 q 380 886 383 859 q 366 922 378 914 q 326 931 354 931 l 247 931 l 247 42 l 326 42 l 326 0 l 128 0 m 220 -225 l 201 -203 q 220 -187 208 -199 q 231 -167 231 -174 q 223 -169 230 -169 q 197 -159 207 -169 q 186 -133 186 -148 q 198 -106 186 -117 q 224 -96 209 -96 q 254 -109 243 -96 q 265 -142 265 -122 q 258 -176 265 -160 q 240 -205 251 -192 q 220 -225 230 -217 z "},"U":{"ha":476,"x_min":26,"x_max":449,"o":"m 238 -17 q 184 -6 210 -17 q 137 29 158 5 q 105 94 117 53 q 92 196 92 135 l 92 931 l 26 931 l 26 972 l 198 972 l 198 931 l 134 931 l 134 206 q 164 64 134 101 q 238 26 194 26 q 279 35 260 26 q 312 64 298 44 q 334 119 326 84 q 342 206 342 153 l 342 931 l 285 931 l 285 972 l 449 972 l 449 931 l 384 931 l 384 196 q 363 69 384 115 q 309 3 342 22 q 238 -17 276 -17 z "},"Ú":{"ha":476,"x_min":26,"x_max":449,"o":"m 238 -17 q 184 -6 210 -17 q 137 29 158 5 q 105 94 117 53 q 92 196 92 135 l 92 931 l 26 931 l 26 972 l 198 972 l 198 931 l 134 931 l 134 206 q 164 64 134 101 q 238 26 194 26 q 279 35 260 26 q 312 64 298 44 q 334 119 326 84 q 342 206 342 153 l 342 931 l 285 931 l 285 972 l 449 972 l 449 931 l 384 931 l 384 196 q 363 69 384 115 q 309 3 342 22 q 238 -17 276 -17 m 158 1004 l 142 1023 l 256 1113 q 277 1126 266 1120 q 299 1132 289 1132 q 311 1129 306 1132 q 321 1119 317 1126 q 324 1108 324 1114 q 310 1083 324 1094 q 281 1065 297 1072 l 158 1004 z "},"Ʉ":{"ha":503,"x_min":26,"x_max":472,"o":"m 51 581 l 51 622 l 472 622 l 472 581 l 51 581 m 238 -17 q 184 -6 210 -17 q 137 29 158 5 q 105 94 117 53 q 92 196 92 135 l 92 931 l 26 931 l 26 972 l 198 972 l 198 931 l 134 931 l 134 206 q 164 64 134 101 q 238 26 194 26 q 279 35 260 26 q 312 64 298 44 q 334 119 326 84 q 342 206 342 153 l 342 931 l 285 931 l 285 972 l 449 972 l 449 931 l 384 931 l 384 196 q 363 69 384 115 q 309 3 342 22 q 238 -17 276 -17 z "},"Û":{"ha":476,"x_min":26,"x_max":449,"o":"m 238 -17 q 184 -6 210 -17 q 137 29 158 5 q 105 94 117 53 q 92 196 92 135 l 92 931 l 26 931 l 26 972 l 198 972 l 198 931 l 134 931 l 134 206 q 164 64 134 101 q 238 26 194 26 q 279 35 260 26 q 312 64 298 44 q 334 119 326 84 q 342 206 342 153 l 342 931 l 285 931 l 285 972 l 449 972 l 449 931 l 384 931 l 384 196 q 363 69 384 115 q 309 3 342 22 q 238 -17 276 -17 m 110 1011 l 212 1156 l 261 1156 l 363 1011 l 321 1011 l 236 1110 l 151 1011 l 110 1011 z "},"Ü":{"ha":476,"x_min":26,"x_max":449,"o":"m 238 -17 q 184 -6 210 -17 q 137 29 158 5 q 105 94 117 53 q 92 196 92 135 l 92 931 l 26 931 l 26 972 l 198 972 l 198 931 l 134 931 l 134 206 q 164 64 134 101 q 238 26 194 26 q 279 35 260 26 q 312 64 298 44 q 334 119 326 84 q 342 206 342 153 l 342 931 l 285 931 l 285 972 l 449 972 l 449 931 l 384 931 l 384 196 q 363 69 384 115 q 309 3 342 22 q 238 -17 276 -17 m 310 1040 q 279 1053 292 1040 q 266 1083 266 1066 q 279 1116 266 1102 q 310 1130 292 1130 q 341 1116 328 1130 q 354 1083 354 1102 q 341 1053 354 1066 q 310 1040 328 1040 m 161 1040 q 131 1053 144 1040 q 117 1083 117 1066 q 131 1116 117 1102 q 161 1130 144 1130 q 193 1116 179 1130 q 207 1083 207 1102 q 193 1053 207 1066 q 161 1040 179 1040 z "},"Ụ":{"ha":476,"x_min":26,"x_max":449,"o":"m 238 -17 q 184 -6 210 -17 q 137 29 158 5 q 105 94 117 53 q 92 196 92 135 l 92 931 l 26 931 l 26 972 l 198 972 l 198 931 l 134 931 l 134 206 q 164 64 134 101 q 238 26 194 26 q 279 35 260 26 q 312 64 298 44 q 334 119 326 84 q 342 206 342 153 l 342 931 l 285 931 l 285 972 l 449 972 l 449 931 l 384 931 l 384 196 q 363 69 384 115 q 309 3 342 22 q 238 -17 276 -17 m 235 -174 q 203 -161 217 -174 q 190 -131 190 -148 q 203 -99 190 -112 q 235 -85 217 -85 q 266 -99 252 -85 q 279 -131 279 -112 q 266 -161 279 -148 q 235 -174 252 -174 z "},"Ù":{"ha":476,"x_min":26,"x_max":449,"o":"m 238 -17 q 184 -6 210 -17 q 137 29 158 5 q 105 94 117 53 q 92 196 92 135 l 92 931 l 26 931 l 26 972 l 198 972 l 198 931 l 134 931 l 134 206 q 164 64 134 101 q 238 26 194 26 q 279 35 260 26 q 312 64 298 44 q 334 119 326 84 q 342 206 342 153 l 342 931 l 285 931 l 285 972 l 449 972 l 449 931 l 384 931 l 384 196 q 363 69 384 115 q 309 3 342 22 q 238 -17 276 -17 m 317 1004 l 182 1066 q 157 1081 166 1074 q 148 1103 148 1088 q 157 1123 148 1117 q 178 1130 165 1130 q 200 1125 191 1130 q 218 1113 209 1121 l 331 1022 l 317 1004 z "},"Ủ":{"ha":476,"x_min":26,"x_max":449,"o":"m 238 -17 q 184 -6 210 -17 q 137 29 158 5 q 105 94 117 53 q 92 196 92 135 l 92 931 l 26 931 l 26 972 l 198 972 l 198 931 l 134 931 l 134 206 q 164 64 134 101 q 238 26 194 26 q 279 35 260 26 q 312 64 298 44 q 334 119 326 84 q 342 206 342 153 l 342 931 l 285 931 l 285 972 l 449 972 l 449 931 l 384 931 l 384 196 q 363 69 384 115 q 309 3 342 22 q 238 -17 276 -17 m 233 1207 q 297 1189 269 1207 q 324 1135 324 1172 q 307 1085 324 1105 q 272 1050 290 1065 q 254 1018 254 1035 l 215 1018 q 231 1062 215 1045 q 262 1094 247 1078 q 277 1132 277 1109 q 261 1163 277 1156 q 221 1169 246 1169 q 188 1164 204 1169 q 162 1150 172 1158 l 135 1178 q 176 1200 147 1192 q 233 1207 205 1207 z "},"Ư":{"ha":476,"x_min":26,"x_max":568,"o":"m 238 -17 q 184 -6 210 -17 q 137 29 158 5 q 105 94 117 53 q 92 196 92 135 l 92 931 l 26 931 l 26 972 l 198 972 l 198 931 l 134 931 l 134 206 q 164 64 134 101 q 238 26 194 26 q 279 35 260 26 q 312 64 298 44 q 334 119 326 84 q 342 206 342 153 l 342 931 l 285 931 l 285 972 l 401 972 l 401 931 l 384 931 l 384 196 q 363 69 384 115 q 309 3 342 22 q 238 -17 276 -17 m 401 931 l 401 972 q 468 983 438 972 q 498 1030 498 994 q 497 1060 498 1043 q 496 1088 496 1076 q 507 1119 496 1108 q 532 1131 517 1131 q 557 1120 547 1131 q 568 1088 568 1108 q 541 989 568 1023 q 474 943 513 955 q 401 931 435 931 z "},"Ứ":{"ha":476,"x_min":26,"x_max":568,"o":"m 238 -17 q 184 -6 210 -17 q 137 29 158 5 q 105 94 117 53 q 92 196 92 135 l 92 931 l 26 931 l 26 972 l 198 972 l 198 931 l 134 931 l 134 206 q 164 64 134 101 q 238 26 194 26 q 279 35 260 26 q 312 64 298 44 q 334 119 326 84 q 342 206 342 153 l 342 931 l 285 931 l 285 972 l 401 972 l 401 931 l 384 931 l 384 196 q 363 69 384 115 q 309 3 342 22 q 238 -17 276 -17 m 401 931 l 401 972 q 468 983 438 972 q 498 1030 498 994 q 497 1060 498 1043 q 496 1088 496 1076 q 507 1119 496 1108 q 532 1131 517 1131 q 557 1120 547 1131 q 568 1088 568 1108 q 541 989 568 1023 q 474 943 513 955 q 401 931 435 931 m 160 1004 l 144 1023 l 258 1113 q 280 1126 268 1120 q 301 1132 291 1132 q 314 1129 308 1132 q 323 1119 319 1126 q 326 1108 326 1114 q 312 1083 326 1094 q 283 1065 299 1072 l 160 1004 z "},"Ự":{"ha":476,"x_min":26,"x_max":568,"o":"m 238 -17 q 184 -6 210 -17 q 137 29 158 5 q 105 94 117 53 q 92 196 92 135 l 92 931 l 26 931 l 26 972 l 198 972 l 198 931 l 134 931 l 134 206 q 164 64 134 101 q 238 26 194 26 q 279 35 260 26 q 312 64 298 44 q 334 119 326 84 q 342 206 342 153 l 342 931 l 285 931 l 285 972 l 401 972 l 401 931 l 384 931 l 384 196 q 363 69 384 115 q 309 3 342 22 q 238 -17 276 -17 m 401 931 l 401 972 q 468 983 438 972 q 498 1030 498 994 q 497 1060 498 1043 q 496 1088 496 1076 q 507 1119 496 1108 q 532 1131 517 1131 q 557 1120 547 1131 q 568 1088 568 1108 q 541 989 568 1023 q 474 943 513 955 q 401 931 435 931 m 237 -174 q 206 -161 219 -174 q 192 -131 192 -148 q 206 -99 192 -112 q 237 -85 219 -85 q 268 -99 254 -85 q 281 -131 281 -112 q 268 -161 281 -148 q 237 -174 254 -174 z "},"Ừ":{"ha":476,"x_min":26,"x_max":568,"o":"m 238 -17 q 184 -6 210 -17 q 137 29 158 5 q 105 94 117 53 q 92 196 92 135 l 92 931 l 26 931 l 26 972 l 198 972 l 198 931 l 134 931 l 134 206 q 164 64 134 101 q 238 26 194 26 q 279 35 260 26 q 312 64 298 44 q 334 119 326 84 q 342 206 342 153 l 342 931 l 285 931 l 285 972 l 401 972 l 401 931 l 384 931 l 384 196 q 363 69 384 115 q 309 3 342 22 q 238 -17 276 -17 m 401 931 l 401 972 q 468 983 438 972 q 498 1030 498 994 q 497 1060 498 1043 q 496 1088 496 1076 q 507 1119 496 1108 q 532 1131 517 1131 q 557 1120 547 1131 q 568 1088 568 1108 q 541 989 568 1023 q 474 943 513 955 q 401 931 435 931 m 319 1004 l 184 1066 q 159 1081 168 1074 q 150 1103 150 1088 q 159 1123 150 1117 q 181 1130 167 1130 q 202 1125 193 1130 q 220 1113 211 1121 l 333 1022 l 319 1004 z "},"Ử":{"ha":476,"x_min":26,"x_max":568,"o":"m 238 -17 q 184 -6 210 -17 q 137 29 158 5 q 105 94 117 53 q 92 196 92 135 l 92 931 l 26 931 l 26 972 l 198 972 l 198 931 l 134 931 l 134 206 q 164 64 134 101 q 238 26 194 26 q 279 35 260 26 q 312 64 298 44 q 334 119 326 84 q 342 206 342 153 l 342 931 l 285 931 l 285 972 l 401 972 l 401 931 l 384 931 l 384 196 q 363 69 384 115 q 309 3 342 22 q 238 -17 276 -17 m 401 931 l 401 972 q 468 983 438 972 q 498 1030 498 994 q 497 1060 498 1043 q 496 1088 496 1076 q 507 1119 496 1108 q 532 1131 517 1131 q 557 1120 547 1131 q 568 1088 568 1108 q 541 989 568 1023 q 474 943 513 955 q 401 931 435 931 m 235 1207 q 299 1189 272 1207 q 326 1135 326 1172 q 309 1085 326 1105 q 274 1050 292 1065 q 256 1018 256 1035 l 217 1018 q 233 1062 217 1045 q 264 1094 249 1078 q 279 1132 279 1109 q 264 1163 279 1156 q 223 1169 248 1169 q 190 1164 206 1169 q 164 1150 174 1158 l 137 1178 q 178 1200 149 1192 q 235 1207 207 1207 z "},"Ữ":{"ha":476,"x_min":26,"x_max":568,"o":"m 238 -17 q 184 -6 210 -17 q 137 29 158 5 q 105 94 117 53 q 92 196 92 135 l 92 931 l 26 931 l 26 972 l 198 972 l 198 931 l 134 931 l 134 206 q 164 64 134 101 q 238 26 194 26 q 279 35 260 26 q 312 64 298 44 q 334 119 326 84 q 342 206 342 153 l 342 931 l 285 931 l 285 972 l 401 972 l 401 931 l 384 931 l 384 196 q 363 69 384 115 q 309 3 342 22 q 238 -17 276 -17 m 401 931 l 401 972 q 468 983 438 972 q 498 1030 498 994 q 497 1060 498 1043 q 496 1088 496 1076 q 507 1119 496 1108 q 532 1131 517 1131 q 557 1120 547 1131 q 568 1088 568 1108 q 541 989 568 1023 q 474 943 513 955 q 401 931 435 931 m 297 1021 q 253 1034 271 1021 q 219 1059 235 1047 q 185 1072 203 1072 q 154 1057 165 1072 q 140 1032 144 1042 l 101 1055 q 115 1084 105 1068 q 142 1111 125 1099 q 181 1123 158 1123 q 227 1110 208 1123 q 264 1083 247 1097 q 299 1070 281 1070 q 324 1082 315 1070 q 338 1103 333 1094 l 375 1076 q 361 1051 372 1064 q 335 1030 351 1038 q 297 1021 319 1021 z "},"Ű":{"ha":476,"x_min":26,"x_max":449,"o":"m 238 -17 q 184 -6 210 -17 q 137 29 158 5 q 105 94 117 53 q 92 196 92 135 l 92 931 l 26 931 l 26 972 l 198 972 l 198 931 l 134 931 l 134 206 q 164 64 134 101 q 238 26 194 26 q 279 35 260 26 q 312 64 298 44 q 334 119 326 84 q 342 206 342 153 l 342 931 l 285 931 l 285 972 l 449 972 l 449 931 l 384 931 l 384 196 q 363 69 384 115 q 309 3 342 22 q 238 -17 276 -17 m 305 1042 l 287 1060 l 357 1148 q 375 1166 367 1160 q 390 1172 383 1172 q 406 1165 400 1172 q 413 1149 413 1159 q 393 1119 413 1133 l 305 1042 m 138 1042 l 120 1060 l 190 1148 q 208 1166 200 1160 q 224 1172 216 1172 q 240 1165 233 1172 q 246 1149 246 1159 q 226 1119 246 1133 l 138 1042 z "},"Ū":{"ha":476,"x_min":26,"x_max":449,"o":"m 238 -17 q 184 -6 210 -17 q 137 29 158 5 q 105 94 117 53 q 92 196 92 135 l 92 931 l 26 931 l 26 972 l 198 972 l 198 931 l 134 931 l 134 206 q 164 64 134 101 q 238 26 194 26 q 279 35 260 26 q 312 64 298 44 q 334 119 326 84 q 342 206 342 153 l 342 931 l 285 931 l 285 972 l 449 972 l 449 931 l 384 931 l 384 196 q 363 69 384 115 q 309 3 342 22 q 238 -17 276 -17 m 26 1064 l 26 1106 l 446 1106 l 446 1064 l 26 1064 z "},"Ų":{"ha":476,"x_min":26,"x_max":449,"o":"m 238 -17 q 184 -6 210 -17 q 137 29 158 5 q 105 94 117 53 q 92 196 92 135 l 92 931 l 26 931 l 26 972 l 198 972 l 198 931 l 134 931 l 134 206 q 164 64 134 101 q 238 26 194 26 q 279 35 260 26 q 312 64 298 44 q 334 119 326 84 q 342 206 342 153 l 342 931 l 285 931 l 285 972 l 449 972 l 449 931 l 384 931 l 384 196 q 363 69 384 115 q 309 3 342 22 q 238 -17 276 -17 m 331 -183 q 280 -174 306 -183 q 236 -144 253 -165 q 218 -87 218 -123 q 234 -36 218 -58 q 271 3 250 -13 q 308 27 292 19 l 324 14 q 292 -25 310 1 q 273 -83 273 -50 q 296 -131 273 -122 q 343 -140 319 -140 q 383 -136 359 -140 q 422 -123 406 -132 l 440 -152 q 396 -173 425 -163 q 331 -183 367 -183 z "},"Ů":{"ha":476,"x_min":26,"x_max":449,"o":"m 238 -17 q 184 -6 210 -17 q 137 29 158 5 q 105 94 117 53 q 92 196 92 135 l 92 931 l 26 931 l 26 972 l 198 972 l 198 931 l 134 931 l 134 206 q 164 64 134 101 q 238 26 194 26 q 279 35 260 26 q 312 64 298 44 q 334 119 326 84 q 342 206 342 153 l 342 931 l 285 931 l 285 972 l 449 972 l 449 931 l 384 931 l 384 196 q 363 69 384 115 q 309 3 342 22 q 238 -17 276 -17 m 236 1014 q 184 1036 205 1014 q 164 1096 164 1059 q 184 1156 164 1134 q 236 1178 205 1178 q 288 1156 267 1178 q 309 1096 309 1134 q 288 1036 309 1059 q 236 1014 267 1014 m 236 1042 q 265 1058 256 1042 q 274 1097 274 1074 q 265 1134 274 1118 q 236 1150 256 1150 q 209 1134 218 1150 q 199 1097 199 1118 q 209 1058 199 1074 q 236 1042 218 1042 z "},"Ũ":{"ha":476,"x_min":26,"x_max":449,"o":"m 238 -17 q 184 -6 210 -17 q 137 29 158 5 q 105 94 117 53 q 92 196 92 135 l 92 931 l 26 931 l 26 972 l 198 972 l 198 931 l 134 931 l 134 206 q 164 64 134 101 q 238 26 194 26 q 279 35 260 26 q 312 64 298 44 q 334 119 326 84 q 342 206 342 153 l 342 931 l 285 931 l 285 972 l 449 972 l 449 931 l 384 931 l 384 196 q 363 69 384 115 q 309 3 342 22 q 238 -17 276 -17 m 295 1021 q 251 1034 269 1021 q 217 1059 233 1047 q 183 1072 201 1072 q 152 1057 163 1072 q 138 1032 142 1042 l 99 1055 q 113 1084 103 1068 q 140 1111 123 1099 q 179 1123 156 1123 q 225 1110 206 1123 q 261 1083 244 1097 q 297 1070 278 1070 q 322 1082 313 1070 q 335 1103 331 1094 l 373 1076 q 359 1051 369 1064 q 333 1030 349 1038 q 295 1021 317 1021 z "},"V":{"ha":447,"x_min":13,"x_max":438,"o":"m 190 -3 l 68 931 l 13 931 l 13 972 l 167 972 l 167 931 l 111 931 l 221 60 l 219 60 l 324 931 l 261 931 l 261 972 l 438 972 l 438 931 l 370 931 l 253 -3 l 190 -3 z "},"W":{"ha":678,"x_min":20,"x_max":672,"o":"m 191 -3 l 94 931 l 20 931 l 20 972 l 207 972 l 207 931 l 138 931 l 226 51 l 219 51 l 327 932 l 338 841 l 324 931 l 250 931 l 250 972 l 441 972 l 441 931 l 369 931 l 483 51 l 478 51 l 563 931 l 505 931 l 505 972 l 672 972 l 672 931 l 610 931 l 509 -3 l 449 -3 l 342 828 l 358 842 l 250 -3 l 191 -3 z "},"Ẃ":{"ha":678,"x_min":20,"x_max":672,"o":"m 191 -3 l 94 931 l 20 931 l 20 972 l 207 972 l 207 931 l 138 931 l 226 51 l 219 51 l 327 932 l 338 841 l 324 931 l 250 931 l 250 972 l 441 972 l 441 931 l 369 931 l 483 51 l 478 51 l 563 931 l 505 931 l 505 972 l 672 972 l 672 931 l 610 931 l 509 -3 l 449 -3 l 342 828 l 358 842 l 250 -3 l 191 -3 m 266 1004 l 249 1023 l 364 1113 q 385 1126 374 1120 q 406 1132 397 1132 q 419 1129 413 1132 q 428 1119 425 1126 q 431 1108 431 1114 q 418 1083 431 1094 q 388 1065 404 1072 l 266 1004 z "},"Ŵ":{"ha":678,"x_min":20,"x_max":672,"o":"m 191 -3 l 94 931 l 20 931 l 20 972 l 207 972 l 207 931 l 138 931 l 226 51 l 219 51 l 327 932 l 338 841 l 324 931 l 250 931 l 250 972 l 441 972 l 441 931 l 369 931 l 483 51 l 478 51 l 563 931 l 505 931 l 505 972 l 672 972 l 672 931 l 610 931 l 509 -3 l 449 -3 l 342 828 l 358 842 l 250 -3 l 191 -3 m 217 1011 l 319 1156 l 369 1156 l 470 1011 l 428 1011 l 344 1110 l 259 1011 l 217 1011 z "},"Ẅ":{"ha":678,"x_min":20,"x_max":672,"o":"m 191 -3 l 94 931 l 20 931 l 20 972 l 207 972 l 207 931 l 138 931 l 226 51 l 219 51 l 327 932 l 338 841 l 324 931 l 250 931 l 250 972 l 441 972 l 441 931 l 369 931 l 483 51 l 478 51 l 563 931 l 505 931 l 505 972 l 672 972 l 672 931 l 610 931 l 509 -3 l 449 -3 l 342 828 l 358 842 l 250 -3 l 191 -3 m 418 1040 q 387 1053 400 1040 q 374 1083 374 1066 q 387 1116 374 1102 q 418 1130 400 1130 q 449 1116 435 1130 q 462 1083 462 1102 q 449 1053 462 1066 q 418 1040 435 1040 m 269 1040 q 239 1053 252 1040 q 225 1083 225 1066 q 239 1116 225 1102 q 269 1130 252 1130 q 301 1116 287 1130 q 315 1083 315 1102 q 301 1053 315 1066 q 269 1040 287 1040 z "},"Ẁ":{"ha":678,"x_min":20,"x_max":672,"o":"m 191 -3 l 94 931 l 20 931 l 20 972 l 207 972 l 207 931 l 138 931 l 226 51 l 219 51 l 327 932 l 338 841 l 324 931 l 250 931 l 250 972 l 441 972 l 441 931 l 369 931 l 483 51 l 478 51 l 563 931 l 505 931 l 505 972 l 672 972 l 672 931 l 610 931 l 509 -3 l 449 -3 l 342 828 l 358 842 l 250 -3 l 191 -3 m 424 1004 l 290 1066 q 265 1081 274 1074 q 256 1103 256 1088 q 264 1123 256 1117 q 286 1130 273 1130 q 308 1125 299 1130 q 326 1113 317 1121 l 438 1022 l 424 1004 z "},"X":{"ha":485,"x_min":14,"x_max":472,"o":"m 287 0 l 287 42 l 352 42 l 103 931 l 40 931 l 40 972 l 212 972 l 212 931 l 148 931 l 397 42 l 462 42 l 462 0 l 287 0 m 14 0 l 14 42 l 81 42 l 228 509 l 267 481 l 125 42 l 190 42 l 190 0 l 14 0 m 267 485 l 235 519 l 364 931 l 299 931 l 299 972 l 472 972 l 472 931 l 408 931 l 267 485 z "},"Y":{"ha":443,"x_min":20,"x_max":438,"o":"m 139 0 l 139 42 l 203 42 l 203 409 l 82 931 l 20 931 l 20 972 l 184 972 l 184 931 l 133 931 l 241 429 l 213 429 l 331 931 l 279 931 l 279 972 l 438 972 l 438 931 l 375 931 l 245 409 l 245 42 l 303 42 l 303 0 l 139 0 z "},"Ý":{"ha":443,"x_min":20,"x_max":438,"o":"m 139 0 l 139 42 l 203 42 l 203 409 l 82 931 l 20 931 l 20 972 l 184 972 l 184 931 l 133 931 l 241 429 l 213 429 l 331 931 l 279 931 l 279 972 l 438 972 l 438 931 l 375 931 l 245 409 l 245 42 l 303 42 l 303 0 l 139 0 m 144 1004 l 128 1023 l 242 1113 q 264 1126 252 1120 q 285 1132 275 1132 q 298 1129 292 1132 q 307 1119 303 1126 q 310 1108 310 1114 q 296 1083 310 1094 q 267 1065 283 1072 l 144 1004 z "},"Ŷ":{"ha":443,"x_min":20,"x_max":438,"o":"m 139 0 l 139 42 l 203 42 l 203 409 l 82 931 l 20 931 l 20 972 l 184 972 l 184 931 l 133 931 l 241 429 l 213 429 l 331 931 l 279 931 l 279 972 l 438 972 l 438 931 l 375 931 l 245 409 l 245 42 l 303 42 l 303 0 l 139 0 m 96 1011 l 198 1156 l 247 1156 l 349 1011 l 307 1011 l 222 1110 l 138 1011 l 96 1011 z "},"Ÿ":{"ha":443,"x_min":20,"x_max":438,"o":"m 139 0 l 139 42 l 203 42 l 203 409 l 82 931 l 20 931 l 20 972 l 184 972 l 184 931 l 133 931 l 241 429 l 213 429 l 331 931 l 279 931 l 279 972 l 438 972 l 438 931 l 375 931 l 245 409 l 245 42 l 303 42 l 303 0 l 139 0 m 297 1040 q 265 1053 278 1040 q 252 1083 252 1066 q 265 1116 252 1102 q 297 1130 278 1130 q 327 1116 314 1130 q 340 1083 340 1102 q 327 1053 340 1066 q 297 1040 314 1040 m 147 1040 q 117 1053 131 1040 q 103 1083 103 1066 q 117 1116 103 1102 q 147 1130 131 1130 q 179 1116 165 1130 q 193 1083 193 1102 q 179 1053 193 1066 q 147 1040 165 1040 z "},"Ỵ":{"ha":443,"x_min":20,"x_max":438,"o":"m 139 0 l 139 42 l 203 42 l 203 409 l 82 931 l 20 931 l 20 972 l 184 972 l 184 931 l 133 931 l 241 429 l 213 429 l 331 931 l 279 931 l 279 972 l 438 972 l 438 931 l 375 931 l 245 409 l 245 42 l 303 42 l 303 0 l 139 0 m 221 -174 q 190 -161 203 -174 q 176 -131 176 -148 q 190 -99 176 -112 q 221 -85 203 -85 q 252 -99 238 -85 q 265 -131 265 -112 q 252 -161 265 -148 q 221 -174 238 -174 z "},"Ỳ":{"ha":443,"x_min":20,"x_max":438,"o":"m 139 0 l 139 42 l 203 42 l 203 409 l 82 931 l 20 931 l 20 972 l 184 972 l 184 931 l 133 931 l 241 429 l 213 429 l 331 931 l 279 931 l 279 972 l 438 972 l 438 931 l 375 931 l 245 409 l 245 42 l 303 42 l 303 0 l 139 0 m 303 1004 l 168 1066 q 143 1081 152 1074 q 134 1103 134 1088 q 143 1123 134 1117 q 165 1130 151 1130 q 186 1125 177 1130 q 204 1113 195 1121 l 317 1022 l 303 1004 z "},"Ỷ":{"ha":443,"x_min":20,"x_max":438,"o":"m 139 0 l 139 42 l 203 42 l 203 409 l 82 931 l 20 931 l 20 972 l 184 972 l 184 931 l 133 931 l 241 429 l 213 429 l 331 931 l 279 931 l 279 972 l 438 972 l 438 931 l 375 931 l 245 409 l 245 42 l 303 42 l 303 0 l 139 0 m 219 1207 q 283 1189 256 1207 q 310 1135 310 1172 q 293 1085 310 1105 q 258 1050 276 1065 q 240 1018 240 1035 l 201 1018 q 217 1062 201 1045 q 248 1094 233 1078 q 263 1132 263 1109 q 248 1163 263 1156 q 207 1169 232 1169 q 174 1164 190 1169 q 148 1150 158 1158 l 121 1178 q 162 1200 133 1192 q 219 1207 191 1207 z "},"Ỹ":{"ha":443,"x_min":20,"x_max":438,"o":"m 139 0 l 139 42 l 203 42 l 203 409 l 82 931 l 20 931 l 20 972 l 184 972 l 184 931 l 133 931 l 241 429 l 213 429 l 331 931 l 279 931 l 279 972 l 438 972 l 438 931 l 375 931 l 245 409 l 245 42 l 303 42 l 303 0 l 139 0 m 281 1021 q 237 1034 255 1021 q 203 1059 219 1047 q 169 1072 188 1072 q 138 1057 149 1072 q 124 1032 128 1042 l 85 1055 q 99 1084 89 1068 q 126 1111 109 1099 q 165 1123 142 1123 q 211 1110 192 1123 q 248 1083 231 1097 q 283 1070 265 1070 q 308 1082 299 1070 q 322 1103 317 1094 l 359 1076 q 345 1051 356 1064 q 319 1030 335 1038 q 281 1021 303 1021 z "},"Z":{"ha":388,"x_min":40,"x_max":346,"o":"m 40 0 l 40 42 l 284 931 l 199 931 q 123 922 147 931 q 94 886 100 914 q 88 803 88 859 l 47 803 l 47 972 l 333 972 l 333 932 l 85 42 l 206 42 q 274 51 253 42 q 299 88 294 60 q 304 172 304 115 l 346 172 l 346 0 l 40 0 z "},"Ź":{"ha":388,"x_min":40,"x_max":346,"o":"m 40 0 l 40 42 l 284 931 l 199 931 q 123 922 147 931 q 94 886 100 914 q 88 803 88 859 l 47 803 l 47 972 l 333 972 l 333 932 l 85 42 l 206 42 q 274 51 253 42 q 299 88 294 60 q 304 172 304 115 l 346 172 l 346 0 l 40 0 m 123 1004 l 106 1023 l 221 1113 q 242 1126 231 1120 q 263 1132 253 1132 q 276 1129 270 1132 q 285 1119 282 1126 q 288 1108 288 1114 q 275 1083 288 1094 q 245 1065 261 1072 l 123 1004 z "},"Ž":{"ha":388,"x_min":40,"x_max":346,"o":"m 40 0 l 40 42 l 284 931 l 199 931 q 123 922 147 931 q 94 886 100 914 q 88 803 88 859 l 47 803 l 47 972 l 333 972 l 333 932 l 85 42 l 206 42 q 274 51 253 42 q 299 88 294 60 q 304 172 304 115 l 346 172 l 346 0 l 40 0 m 176 1017 l 74 1162 l 116 1162 l 201 1063 l 285 1162 l 327 1162 l 226 1017 l 176 1017 z "},"Ż":{"ha":388,"x_min":40,"x_max":346,"o":"m 40 0 l 40 42 l 284 931 l 199 931 q 123 922 147 931 q 94 886 100 914 q 88 803 88 859 l 47 803 l 47 972 l 333 972 l 333 932 l 85 42 l 206 42 q 274 51 253 42 q 299 88 294 60 q 304 172 304 115 l 346 172 l 346 0 l 40 0 m 201 1045 q 169 1058 183 1045 q 156 1088 156 1071 q 169 1120 156 1106 q 201 1134 183 1134 q 232 1120 218 1134 q 245 1088 245 1106 q 232 1058 245 1071 q 201 1045 218 1045 z "},"a":{"ha":382,"x_min":42,"x_max":375,"o":"m 168 -14 q 101 6 130 -14 q 57 65 73 25 q 42 164 42 104 q 64 268 42 226 q 119 339 86 310 q 185 393 152 369 q 240 444 218 418 q 263 508 263 471 q 255 602 263 562 q 229 666 247 643 q 178 688 210 688 q 118 661 142 688 q 94 601 94 634 q 97 581 94 588 q 100 568 99 574 q 102 551 102 563 q 96 524 102 535 q 76 513 90 513 q 57 524 63 513 q 51 557 51 536 q 66 646 51 606 q 110 708 82 685 q 178 731 139 731 q 245 711 217 731 q 289 645 273 690 q 304 525 304 600 l 304 77 q 311 44 304 53 q 330 35 317 35 q 346 39 340 35 q 355 45 352 42 l 375 8 q 355 -2 368 1 q 326 -6 342 -6 q 299 0 312 -6 q 277 20 285 6 q 269 56 269 33 q 252 25 264 41 q 220 -3 241 8 q 168 -14 200 -14 m 168 29 q 221 53 200 29 q 252 108 242 77 q 263 159 263 139 l 263 418 q 235 378 261 399 q 175 332 208 358 q 115 265 141 305 q 90 164 90 224 q 109 64 90 98 q 168 29 129 29 z "},"á":{"ha":382,"x_min":42,"x_max":375,"o":"m 168 -14 q 101 6 130 -14 q 57 65 73 25 q 42 164 42 104 q 64 268 42 226 q 119 339 86 310 q 185 393 152 369 q 240 444 218 418 q 263 508 263 471 q 255 602 263 562 q 229 666 247 643 q 178 688 210 688 q 118 661 142 688 q 94 601 94 634 q 97 581 94 588 q 100 568 99 574 q 102 551 102 563 q 96 524 102 535 q 76 513 90 513 q 57 524 63 513 q 51 557 51 536 q 66 646 51 606 q 110 708 82 685 q 178 731 139 731 q 245 711 217 731 q 289 645 273 690 q 304 525 304 600 l 304 77 q 311 44 304 53 q 330 35 317 35 q 346 39 340 35 q 355 45 352 42 l 375 8 q 355 -2 368 1 q 326 -6 342 -6 q 299 0 312 -6 q 277 20 285 6 q 269 56 269 33 q 252 25 264 41 q 220 -3 241 8 q 168 -14 200 -14 m 168 29 q 221 53 200 29 q 252 108 242 77 q 263 159 263 139 l 263 418 q 235 378 261 399 q 175 332 208 358 q 115 265 141 305 q 90 164 90 224 q 109 64 90 98 q 168 29 129 29 m 103 747 l 86 765 l 201 855 q 222 869 211 863 q 243 874 233 874 q 256 871 250 874 q 265 861 262 868 q 268 850 268 856 q 255 826 268 837 q 225 807 241 815 l 103 747 z "},"ă":{"ha":382,"x_min":42,"x_max":375,"o":"m 168 -14 q 101 6 130 -14 q 57 65 73 25 q 42 164 42 104 q 64 268 42 226 q 119 339 86 310 q 185 393 152 369 q 240 444 218 418 q 263 508 263 471 q 255 602 263 562 q 229 666 247 643 q 178 688 210 688 q 118 661 142 688 q 94 601 94 634 q 97 581 94 588 q 100 568 99 574 q 102 551 102 563 q 96 524 102 535 q 76 513 90 513 q 57 524 63 513 q 51 557 51 536 q 66 646 51 606 q 110 708 82 685 q 178 731 139 731 q 245 711 217 731 q 289 645 273 690 q 304 525 304 600 l 304 77 q 311 44 304 53 q 330 35 317 35 q 346 39 340 35 q 355 45 352 42 l 375 8 q 355 -2 368 1 q 326 -6 342 -6 q 299 0 312 -6 q 277 20 285 6 q 269 56 269 33 q 252 25 264 41 q 220 -3 241 8 q 168 -14 200 -14 m 168 29 q 221 53 200 29 q 252 108 242 77 q 263 159 263 139 l 263 418 q 235 378 261 399 q 175 332 208 358 q 115 265 141 305 q 90 164 90 224 q 109 64 90 98 q 168 29 129 29 m 179 765 q 116 781 140 765 q 81 826 92 797 q 69 890 69 854 l 108 890 q 128 828 111 849 q 179 806 146 806 q 231 828 213 806 q 251 890 248 849 l 290 890 q 279 826 290 854 q 243 781 268 797 q 179 765 219 765 z "},"ắ":{"ha":382,"x_min":42,"x_max":375,"o":"m 168 -14 q 101 6 130 -14 q 57 65 73 25 q 42 164 42 104 q 64 268 42 226 q 119 339 86 310 q 185 393 152 369 q 240 444 218 418 q 263 508 263 471 q 255 602 263 562 q 229 666 247 643 q 178 688 210 688 q 118 661 142 688 q 94 601 94 634 q 97 581 94 588 q 100 568 99 574 q 102 551 102 563 q 96 524 102 535 q 76 513 90 513 q 57 524 63 513 q 51 557 51 536 q 66 646 51 606 q 110 708 82 685 q 178 731 139 731 q 245 711 217 731 q 289 645 273 690 q 304 525 304 600 l 304 77 q 311 44 304 53 q 330 35 317 35 q 346 39 340 35 q 355 45 352 42 l 375 8 q 355 -2 368 1 q 326 -6 342 -6 q 299 0 312 -6 q 277 20 285 6 q 269 56 269 33 q 252 25 264 41 q 220 -3 241 8 q 168 -14 200 -14 m 168 29 q 221 53 200 29 q 252 108 242 77 q 263 159 263 139 l 263 418 q 235 378 261 399 q 175 332 208 358 q 115 265 141 305 q 90 164 90 224 q 109 64 90 98 q 168 29 129 29 m 179 767 q 116 784 140 767 q 81 828 92 800 q 69 892 69 857 l 108 892 q 128 831 111 852 q 179 809 146 809 q 231 831 213 809 q 251 892 248 852 l 290 892 q 279 828 290 857 q 243 784 268 800 q 179 767 219 767 m 108 913 l 91 931 l 206 1022 q 227 1035 216 1029 q 248 1040 238 1040 q 261 1037 255 1040 q 270 1027 267 1034 q 273 1016 273 1022 q 259 992 273 1003 q 230 973 246 981 l 108 913 z "},"ặ":{"ha":382,"x_min":42,"x_max":375,"o":"m 168 -14 q 101 6 130 -14 q 57 65 73 25 q 42 164 42 104 q 64 268 42 226 q 119 339 86 310 q 185 393 152 369 q 240 444 218 418 q 263 508 263 471 q 255 602 263 562 q 229 666 247 643 q 178 688 210 688 q 118 661 142 688 q 94 601 94 634 q 97 581 94 588 q 100 568 99 574 q 102 551 102 563 q 96 524 102 535 q 76 513 90 513 q 57 524 63 513 q 51 557 51 536 q 66 646 51 606 q 110 708 82 685 q 178 731 139 731 q 245 711 217 731 q 289 645 273 690 q 304 525 304 600 l 304 77 q 311 44 304 53 q 330 35 317 35 q 346 39 340 35 q 355 45 352 42 l 375 8 q 355 -2 368 1 q 326 -6 342 -6 q 299 0 312 -6 q 277 20 285 6 q 269 56 269 33 q 252 25 264 41 q 220 -3 241 8 q 168 -14 200 -14 m 168 29 q 221 53 200 29 q 252 108 242 77 q 263 159 263 139 l 263 418 q 235 378 261 399 q 175 332 208 358 q 115 265 141 305 q 90 164 90 224 q 109 64 90 98 q 168 29 129 29 m 205 -174 q 174 -161 188 -174 q 160 -131 160 -148 q 174 -99 160 -112 q 205 -85 188 -85 q 236 -99 222 -85 q 249 -131 249 -112 q 236 -161 249 -148 q 205 -174 222 -174 m 179 765 q 116 781 140 765 q 81 826 92 797 q 69 890 69 854 l 108 890 q 128 828 111 849 q 179 806 146 806 q 231 828 213 806 q 251 890 248 849 l 290 890 q 279 826 290 854 q 243 781 268 797 q 179 765 219 765 z "},"ằ":{"ha":382,"x_min":42,"x_max":375,"o":"m 168 -14 q 101 6 130 -14 q 57 65 73 25 q 42 164 42 104 q 64 268 42 226 q 119 339 86 310 q 185 393 152 369 q 240 444 218 418 q 263 508 263 471 q 255 602 263 562 q 229 666 247 643 q 178 688 210 688 q 118 661 142 688 q 94 601 94 634 q 97 581 94 588 q 100 568 99 574 q 102 551 102 563 q 96 524 102 535 q 76 513 90 513 q 57 524 63 513 q 51 557 51 536 q 66 646 51 606 q 110 708 82 685 q 178 731 139 731 q 245 711 217 731 q 289 645 273 690 q 304 525 304 600 l 304 77 q 311 44 304 53 q 330 35 317 35 q 346 39 340 35 q 355 45 352 42 l 375 8 q 355 -2 368 1 q 326 -6 342 -6 q 299 0 312 -6 q 277 20 285 6 q 269 56 269 33 q 252 25 264 41 q 220 -3 241 8 q 168 -14 200 -14 m 168 29 q 221 53 200 29 q 252 108 242 77 q 263 159 263 139 l 263 418 q 235 378 261 399 q 175 332 208 358 q 115 265 141 305 q 90 164 90 224 q 109 64 90 98 q 168 29 129 29 m 179 781 q 116 798 140 781 q 81 842 92 814 q 69 906 69 871 l 108 906 q 128 844 111 866 q 179 823 146 823 q 231 844 213 823 q 251 906 248 866 l 290 906 q 279 842 290 871 q 243 798 268 814 q 179 781 219 781 m 258 926 l 124 988 q 99 1003 108 996 q 90 1025 90 1010 q 98 1045 90 1039 q 120 1052 107 1052 q 142 1048 133 1052 q 160 1035 151 1043 l 272 944 l 258 926 z "},"ẳ":{"ha":382,"x_min":42,"x_max":375,"o":"m 168 -14 q 101 6 130 -14 q 57 65 73 25 q 42 164 42 104 q 64 268 42 226 q 119 339 86 310 q 185 393 152 369 q 240 444 218 418 q 263 508 263 471 q 255 602 263 562 q 229 666 247 643 q 178 688 210 688 q 118 661 142 688 q 94 601 94 634 q 97 581 94 588 q 100 568 99 574 q 102 551 102 563 q 96 524 102 535 q 76 513 90 513 q 57 524 63 513 q 51 557 51 536 q 66 646 51 606 q 110 708 82 685 q 178 731 139 731 q 245 711 217 731 q 289 645 273 690 q 304 525 304 600 l 304 77 q 311 44 304 53 q 330 35 317 35 q 346 39 340 35 q 355 45 352 42 l 375 8 q 355 -2 368 1 q 326 -6 342 -6 q 299 0 312 -6 q 277 20 285 6 q 269 56 269 33 q 252 25 264 41 q 220 -3 241 8 q 168 -14 200 -14 m 168 29 q 221 53 200 29 q 252 108 242 77 q 263 159 263 139 l 263 418 q 235 378 261 399 q 175 332 208 358 q 115 265 141 305 q 90 164 90 224 q 109 64 90 98 q 168 29 129 29 m 180 782 q 117 798 141 782 q 81 843 92 815 q 70 907 70 872 l 109 907 q 129 845 112 867 q 180 824 147 824 q 231 845 214 824 q 251 907 249 867 l 291 907 q 280 843 291 872 q 244 798 269 815 q 180 782 219 782 m 179 1077 q 243 1059 216 1077 q 271 1006 271 1042 q 253 955 271 975 q 218 920 236 935 q 201 888 201 905 l 162 888 q 177 932 162 915 q 208 964 193 949 q 224 1002 224 979 q 208 1033 224 1026 q 167 1040 192 1040 q 134 1034 151 1040 q 108 1020 118 1028 l 81 1049 q 123 1070 94 1063 q 179 1077 151 1077 z "},"ẵ":{"ha":382,"x_min":37,"x_max":375,"o":"m 168 -14 q 101 6 130 -14 q 57 65 73 25 q 42 164 42 104 q 64 268 42 226 q 119 339 86 310 q 185 393 152 369 q 240 444 218 418 q 263 508 263 471 q 255 602 263 562 q 229 666 247 643 q 178 688 210 688 q 118 661 142 688 q 94 601 94 634 q 97 581 94 588 q 100 568 99 574 q 102 551 102 563 q 96 524 102 535 q 76 513 90 513 q 57 524 63 513 q 51 557 51 536 q 66 646 51 606 q 110 708 82 685 q 178 731 139 731 q 245 711 217 731 q 289 645 273 690 q 304 525 304 600 l 304 77 q 311 44 304 53 q 330 35 317 35 q 346 39 340 35 q 355 45 352 42 l 375 8 q 355 -2 368 1 q 326 -6 342 -6 q 299 0 312 -6 q 277 20 285 6 q 269 56 269 33 q 252 25 264 41 q 220 -3 241 8 q 168 -14 200 -14 m 168 29 q 221 53 200 29 q 252 108 242 77 q 263 159 263 139 l 263 418 q 235 378 261 399 q 175 332 208 358 q 115 265 141 305 q 90 164 90 224 q 109 64 90 98 q 168 29 129 29 m 179 781 q 116 798 140 781 q 81 842 92 814 q 69 906 69 871 l 108 906 q 128 844 111 866 q 179 823 146 823 q 231 844 213 823 q 251 906 248 866 l 290 906 q 279 842 290 871 q 243 798 268 814 q 179 781 219 781 m 240 938 q 193 950 213 938 q 156 976 174 963 q 120 989 139 989 q 88 974 100 989 q 72 949 75 958 l 37 967 q 52 997 40 981 q 82 1027 64 1014 q 124 1040 101 1040 q 170 1026 150 1040 q 207 1000 190 1013 q 244 987 225 987 q 274 999 264 987 q 289 1019 284 1010 l 324 999 q 309 973 321 988 q 280 948 297 958 q 240 938 262 938 z "},"ǎ":{"ha":382,"x_min":42,"x_max":375,"o":"m 168 -14 q 101 6 130 -14 q 57 65 73 25 q 42 164 42 104 q 64 268 42 226 q 119 339 86 310 q 185 393 152 369 q 240 444 218 418 q 263 508 263 471 q 255 602 263 562 q 229 666 247 643 q 178 688 210 688 q 118 661 142 688 q 94 601 94 634 q 97 581 94 588 q 100 568 99 574 q 102 551 102 563 q 96 524 102 535 q 76 513 90 513 q 57 524 63 513 q 51 557 51 536 q 66 646 51 606 q 110 708 82 685 q 178 731 139 731 q 245 711 217 731 q 289 645 273 690 q 304 525 304 600 l 304 77 q 311 44 304 53 q 330 35 317 35 q 346 39 340 35 q 355 45 352 42 l 375 8 q 355 -2 368 1 q 326 -6 342 -6 q 299 0 312 -6 q 277 20 285 6 q 269 56 269 33 q 252 25 264 41 q 220 -3 241 8 q 168 -14 200 -14 m 168 29 q 221 53 200 29 q 252 108 242 77 q 263 159 263 139 l 263 418 q 235 378 261 399 q 175 332 208 358 q 115 265 141 305 q 90 164 90 224 q 109 64 90 98 q 168 29 129 29 m 156 765 l 54 910 l 96 910 l 181 811 l 265 910 l 307 910 l 206 765 l 156 765 z "},"â":{"ha":382,"x_min":42,"x_max":375,"o":"m 168 -14 q 101 6 130 -14 q 57 65 73 25 q 42 164 42 104 q 64 268 42 226 q 119 339 86 310 q 185 393 152 369 q 240 444 218 418 q 263 508 263 471 q 255 602 263 562 q 229 666 247 643 q 178 688 210 688 q 118 661 142 688 q 94 601 94 634 q 97 581 94 588 q 100 568 99 574 q 102 551 102 563 q 96 524 102 535 q 76 513 90 513 q 57 524 63 513 q 51 557 51 536 q 66 646 51 606 q 110 708 82 685 q 178 731 139 731 q 245 711 217 731 q 289 645 273 690 q 304 525 304 600 l 304 77 q 311 44 304 53 q 330 35 317 35 q 346 39 340 35 q 355 45 352 42 l 375 8 q 355 -2 368 1 q 326 -6 342 -6 q 299 0 312 -6 q 277 20 285 6 q 269 56 269 33 q 252 25 264 41 q 220 -3 241 8 q 168 -14 200 -14 m 168 29 q 221 53 200 29 q 252 108 242 77 q 263 159 263 139 l 263 418 q 235 378 261 399 q 175 332 208 358 q 115 265 141 305 q 90 164 90 224 q 109 64 90 98 q 168 29 129 29 m 54 776 l 156 921 l 206 921 l 307 776 l 265 776 l 181 875 l 96 776 l 54 776 z "},"ấ":{"ha":382,"x_min":42,"x_max":410,"o":"m 168 -14 q 101 6 130 -14 q 57 65 73 25 q 42 164 42 104 q 64 268 42 226 q 119 339 86 310 q 185 393 152 369 q 240 444 218 418 q 263 508 263 471 q 255 602 263 562 q 229 666 247 643 q 178 688 210 688 q 118 661 142 688 q 94 601 94 634 q 97 581 94 588 q 100 568 99 574 q 102 551 102 563 q 96 524 102 535 q 76 513 90 513 q 57 524 63 513 q 51 557 51 536 q 66 646 51 606 q 110 708 82 685 q 178 731 139 731 q 245 711 217 731 q 289 645 273 690 q 304 525 304 600 l 304 77 q 311 44 304 53 q 330 35 317 35 q 346 39 340 35 q 355 45 352 42 l 375 8 q 355 -2 368 1 q 326 -6 342 -6 q 299 0 312 -6 q 277 20 285 6 q 269 56 269 33 q 252 25 264 41 q 220 -3 241 8 q 168 -14 200 -14 m 168 29 q 221 53 200 29 q 252 108 242 77 q 263 159 263 139 l 263 418 q 235 378 261 399 q 175 332 208 358 q 115 265 141 305 q 90 164 90 224 q 109 64 90 98 q 168 29 129 29 m 54 769 l 156 915 l 206 915 l 307 769 l 265 769 l 181 869 l 96 769 l 54 769 m 269 906 l 255 922 l 352 998 q 388 1014 372 1014 q 399 1011 394 1014 q 407 1003 404 1008 q 410 993 410 999 q 398 973 410 982 q 373 957 386 963 l 269 906 z "},"ậ":{"ha":382,"x_min":42,"x_max":375,"o":"m 168 -14 q 101 6 130 -14 q 57 65 73 25 q 42 164 42 104 q 64 268 42 226 q 119 339 86 310 q 185 393 152 369 q 240 444 218 418 q 263 508 263 471 q 255 602 263 562 q 229 666 247 643 q 178 688 210 688 q 118 661 142 688 q 94 601 94 634 q 97 581 94 588 q 100 568 99 574 q 102 551 102 563 q 96 524 102 535 q 76 513 90 513 q 57 524 63 513 q 51 557 51 536 q 66 646 51 606 q 110 708 82 685 q 178 731 139 731 q 245 711 217 731 q 289 645 273 690 q 304 525 304 600 l 304 77 q 311 44 304 53 q 330 35 317 35 q 346 39 340 35 q 355 45 352 42 l 375 8 q 355 -2 368 1 q 326 -6 342 -6 q 299 0 312 -6 q 277 20 285 6 q 269 56 269 33 q 252 25 264 41 q 220 -3 241 8 q 168 -14 200 -14 m 168 29 q 221 53 200 29 q 252 108 242 77 q 263 159 263 139 l 263 418 q 235 378 261 399 q 175 332 208 358 q 115 265 141 305 q 90 164 90 224 q 109 64 90 98 q 168 29 129 29 m 205 -174 q 174 -161 188 -174 q 160 -131 160 -148 q 174 -99 160 -112 q 205 -85 188 -85 q 236 -99 222 -85 q 249 -131 249 -112 q 236 -161 249 -148 q 205 -174 222 -174 m 54 776 l 156 921 l 206 921 l 307 776 l 265 776 l 181 875 l 96 776 l 54 776 z "},"ầ":{"ha":382,"x_min":42,"x_max":375,"o":"m 168 -14 q 101 6 130 -14 q 57 65 73 25 q 42 164 42 104 q 64 268 42 226 q 119 339 86 310 q 185 393 152 369 q 240 444 218 418 q 263 508 263 471 q 255 602 263 562 q 229 666 247 643 q 178 688 210 688 q 118 661 142 688 q 94 601 94 634 q 97 581 94 588 q 100 568 99 574 q 102 551 102 563 q 96 524 102 535 q 76 513 90 513 q 57 524 63 513 q 51 557 51 536 q 66 646 51 606 q 110 708 82 685 q 178 731 139 731 q 245 711 217 731 q 289 645 273 690 q 304 525 304 600 l 304 77 q 311 44 304 53 q 330 35 317 35 q 346 39 340 35 q 355 45 352 42 l 375 8 q 355 -2 368 1 q 326 -6 342 -6 q 299 0 312 -6 q 277 20 285 6 q 269 56 269 33 q 252 25 264 41 q 220 -3 241 8 q 168 -14 200 -14 m 168 29 q 221 53 200 29 q 252 108 242 77 q 263 159 263 139 l 263 418 q 235 378 261 399 q 175 332 208 358 q 115 265 141 305 q 90 164 90 224 q 109 64 90 98 q 168 29 129 29 m 54 769 l 156 915 l 206 915 l 307 769 l 265 769 l 181 869 l 96 769 l 54 769 m 320 899 l 204 951 q 183 964 191 958 q 175 983 175 970 q 183 1001 175 995 q 201 1007 190 1007 q 220 1003 213 1007 q 236 992 228 999 l 332 914 l 320 899 z "},"ẩ":{"ha":382,"x_min":42,"x_max":375,"o":"m 168 -14 q 101 6 130 -14 q 57 65 73 25 q 42 164 42 104 q 64 268 42 226 q 119 339 86 310 q 185 393 152 369 q 240 444 218 418 q 263 508 263 471 q 255 602 263 562 q 229 666 247 643 q 178 688 210 688 q 118 661 142 688 q 94 601 94 634 q 97 581 94 588 q 100 568 99 574 q 102 551 102 563 q 96 524 102 535 q 76 513 90 513 q 57 524 63 513 q 51 557 51 536 q 66 646 51 606 q 110 708 82 685 q 178 731 139 731 q 245 711 217 731 q 289 645 273 690 q 304 525 304 600 l 304 77 q 311 44 304 53 q 330 35 317 35 q 346 39 340 35 q 355 45 352 42 l 375 8 q 355 -2 368 1 q 326 -6 342 -6 q 299 0 312 -6 q 277 20 285 6 q 269 56 269 33 q 252 25 264 41 q 220 -3 241 8 q 168 -14 200 -14 m 168 29 q 221 53 200 29 q 252 108 242 77 q 263 159 263 139 l 263 418 q 235 378 261 399 q 175 332 208 358 q 115 265 141 305 q 90 164 90 224 q 109 64 90 98 q 168 29 129 29 m 53 770 l 155 915 l 204 915 l 306 770 l 264 770 l 179 869 l 94 770 l 53 770 m 283 1034 q 334 1020 312 1034 q 356 977 356 1006 q 342 937 356 953 q 314 909 328 921 q 299 883 299 897 l 269 883 q 281 918 269 905 q 306 944 294 931 q 318 974 318 956 q 306 998 318 992 q 273 1004 293 1004 q 247 1000 260 1004 q 226 988 234 995 l 205 1011 q 238 1028 215 1022 q 283 1034 261 1034 z "},"ẫ":{"ha":382,"x_min":37,"x_max":375,"o":"m 168 -14 q 101 6 130 -14 q 57 65 73 25 q 42 164 42 104 q 64 268 42 226 q 119 339 86 310 q 185 393 152 369 q 240 444 218 418 q 263 508 263 471 q 255 602 263 562 q 229 666 247 643 q 178 688 210 688 q 118 661 142 688 q 94 601 94 634 q 97 581 94 588 q 100 568 99 574 q 102 551 102 563 q 96 524 102 535 q 76 513 90 513 q 57 524 63 513 q 51 557 51 536 q 66 646 51 606 q 110 708 82 685 q 178 731 139 731 q 245 711 217 731 q 289 645 273 690 q 304 525 304 600 l 304 77 q 311 44 304 53 q 330 35 317 35 q 346 39 340 35 q 355 45 352 42 l 375 8 q 355 -2 368 1 q 326 -6 342 -6 q 299 0 312 -6 q 277 20 285 6 q 269 56 269 33 q 252 25 264 41 q 220 -3 241 8 q 168 -14 200 -14 m 168 29 q 221 53 200 29 q 252 108 242 77 q 263 159 263 139 l 263 418 q 235 378 261 399 q 175 332 208 358 q 115 265 141 305 q 90 164 90 224 q 109 64 90 98 q 168 29 129 29 m 54 770 l 156 915 l 206 915 l 307 770 l 265 770 l 181 869 l 96 770 l 54 770 m 240 943 q 193 956 213 943 q 156 982 174 969 q 120 994 139 994 q 88 979 100 994 q 72 954 75 964 l 37 973 q 52 1003 40 986 q 82 1032 64 1019 q 124 1045 101 1045 q 170 1032 150 1045 q 207 1006 190 1019 q 244 992 225 992 q 274 1004 264 992 q 289 1025 284 1016 l 324 1005 q 309 978 321 993 q 280 953 297 964 q 240 943 262 943 z "},"ȁ":{"ha":382,"x_min":11,"x_max":375,"o":"m 168 -14 q 101 6 130 -14 q 57 65 73 25 q 42 164 42 104 q 64 268 42 226 q 119 339 86 310 q 185 393 152 369 q 240 444 218 418 q 263 508 263 471 q 255 602 263 562 q 229 666 247 643 q 178 688 210 688 q 118 661 142 688 q 94 601 94 634 q 97 581 94 588 q 100 568 99 574 q 102 551 102 563 q 96 524 102 535 q 76 513 90 513 q 57 524 63 513 q 51 557 51 536 q 66 646 51 606 q 110 708 82 685 q 178 731 139 731 q 245 711 217 731 q 289 645 273 690 q 304 525 304 600 l 304 77 q 311 44 304 53 q 330 35 317 35 q 346 39 340 35 q 355 45 352 42 l 375 8 q 355 -2 368 1 q 326 -6 342 -6 q 299 0 312 -6 q 277 20 285 6 q 269 56 269 33 q 252 25 264 41 q 220 -3 241 8 q 168 -14 200 -14 m 168 29 q 221 53 200 29 q 252 108 242 77 q 263 159 263 139 l 263 418 q 235 378 261 399 q 175 332 208 358 q 115 265 141 305 q 90 164 90 224 q 109 64 90 98 q 168 29 129 29 m 259 771 l 153 875 q 138 893 144 885 q 132 910 132 901 q 141 932 132 925 q 160 940 149 940 q 189 930 179 940 q 205 907 198 919 l 278 783 l 259 771 m 138 771 l 33 875 q 17 893 23 885 q 11 910 11 901 q 20 932 11 925 q 40 940 28 940 q 68 930 58 940 q 84 907 77 919 l 157 783 l 138 771 z "},"ä":{"ha":382,"x_min":42,"x_max":375,"o":"m 168 -14 q 101 6 130 -14 q 57 65 73 25 q 42 164 42 104 q 64 268 42 226 q 119 339 86 310 q 185 393 152 369 q 240 444 218 418 q 263 508 263 471 q 255 602 263 562 q 229 666 247 643 q 178 688 210 688 q 118 661 142 688 q 94 601 94 634 q 97 581 94 588 q 100 568 99 574 q 102 551 102 563 q 96 524 102 535 q 76 513 90 513 q 57 524 63 513 q 51 557 51 536 q 66 646 51 606 q 110 708 82 685 q 178 731 139 731 q 245 711 217 731 q 289 645 273 690 q 304 525 304 600 l 304 77 q 311 44 304 53 q 330 35 317 35 q 346 39 340 35 q 355 45 352 42 l 375 8 q 355 -2 368 1 q 326 -6 342 -6 q 299 0 312 -6 q 277 20 285 6 q 269 56 269 33 q 252 25 264 41 q 220 -3 241 8 q 168 -14 200 -14 m 168 29 q 221 53 200 29 q 252 108 242 77 q 263 159 263 139 l 263 418 q 235 378 261 399 q 175 332 208 358 q 115 265 141 305 q 90 164 90 224 q 109 64 90 98 q 168 29 129 29 m 255 778 q 224 791 237 778 q 210 822 210 804 q 224 854 210 840 q 255 868 237 868 q 285 854 272 868 q 299 822 299 840 q 285 791 299 804 q 255 778 272 778 m 106 778 q 75 791 89 778 q 62 822 62 804 q 75 854 62 840 q 106 868 89 868 q 138 854 124 868 q 151 822 151 840 q 138 791 151 804 q 106 778 124 778 z "},"ǟ":{"ha":382,"x_min":42,"x_max":375,"o":"m 168 -14 q 101 6 130 -14 q 57 65 73 25 q 42 164 42 104 q 64 268 42 226 q 119 339 86 310 q 185 393 152 369 q 240 444 218 418 q 263 508 263 471 q 255 602 263 562 q 229 666 247 643 q 178 688 210 688 q 118 661 142 688 q 94 601 94 634 q 97 581 94 588 q 100 568 99 574 q 102 551 102 563 q 96 524 102 535 q 76 513 90 513 q 57 524 63 513 q 51 557 51 536 q 66 646 51 606 q 110 708 82 685 q 178 731 139 731 q 245 711 217 731 q 289 645 273 690 q 304 525 304 600 l 304 77 q 311 44 304 53 q 330 35 317 35 q 346 39 340 35 q 355 45 352 42 l 375 8 q 355 -2 368 1 q 326 -6 342 -6 q 299 0 312 -6 q 277 20 285 6 q 269 56 269 33 q 252 25 264 41 q 220 -3 241 8 q 168 -14 200 -14 m 168 29 q 221 53 200 29 q 252 108 242 77 q 263 159 263 139 l 263 418 q 235 378 261 399 q 175 332 208 358 q 115 265 141 305 q 90 164 90 224 q 109 64 90 98 q 168 29 129 29 m 255 778 q 224 791 237 778 q 210 822 210 804 q 224 854 210 840 q 255 868 237 868 q 285 854 272 868 q 299 822 299 840 q 285 791 299 804 q 255 778 272 778 m 106 778 q 75 791 89 778 q 62 822 62 804 q 75 854 62 840 q 106 868 89 868 q 138 854 124 868 q 151 822 151 840 q 138 791 151 804 q 106 778 124 778 m 56 926 l 56 967 l 305 967 l 305 926 l 56 926 z "},"ạ":{"ha":382,"x_min":42,"x_max":375,"o":"m 168 -14 q 101 6 130 -14 q 57 65 73 25 q 42 164 42 104 q 64 268 42 226 q 119 339 86 310 q 185 393 152 369 q 240 444 218 418 q 263 508 263 471 q 255 602 263 562 q 229 666 247 643 q 178 688 210 688 q 118 661 142 688 q 94 601 94 634 q 97 581 94 588 q 100 568 99 574 q 102 551 102 563 q 96 524 102 535 q 76 513 90 513 q 57 524 63 513 q 51 557 51 536 q 66 646 51 606 q 110 708 82 685 q 178 731 139 731 q 245 711 217 731 q 289 645 273 690 q 304 525 304 600 l 304 77 q 311 44 304 53 q 330 35 317 35 q 346 39 340 35 q 355 45 352 42 l 375 8 q 355 -2 368 1 q 326 -6 342 -6 q 299 0 312 -6 q 277 20 285 6 q 269 56 269 33 q 252 25 264 41 q 220 -3 241 8 q 168 -14 200 -14 m 168 29 q 221 53 200 29 q 252 108 242 77 q 263 159 263 139 l 263 418 q 235 378 261 399 q 175 332 208 358 q 115 265 141 305 q 90 164 90 224 q 109 64 90 98 q 168 29 129 29 m 205 -174 q 174 -161 188 -174 q 160 -131 160 -148 q 174 -99 160 -112 q 205 -85 188 -85 q 236 -99 222 -85 q 249 -131 249 -112 q 236 -161 249 -148 q 205 -174 222 -174 z "},"à":{"ha":382,"x_min":42,"x_max":375,"o":"m 168 -14 q 101 6 130 -14 q 57 65 73 25 q 42 164 42 104 q 64 268 42 226 q 119 339 86 310 q 185 393 152 369 q 240 444 218 418 q 263 508 263 471 q 255 602 263 562 q 229 666 247 643 q 178 688 210 688 q 118 661 142 688 q 94 601 94 634 q 97 581 94 588 q 100 568 99 574 q 102 551 102 563 q 96 524 102 535 q 76 513 90 513 q 57 524 63 513 q 51 557 51 536 q 66 646 51 606 q 110 708 82 685 q 178 731 139 731 q 245 711 217 731 q 289 645 273 690 q 304 525 304 600 l 304 77 q 311 44 304 53 q 330 35 317 35 q 346 39 340 35 q 355 45 352 42 l 375 8 q 355 -2 368 1 q 326 -6 342 -6 q 299 0 312 -6 q 277 20 285 6 q 269 56 269 33 q 252 25 264 41 q 220 -3 241 8 q 168 -14 200 -14 m 168 29 q 221 53 200 29 q 252 108 242 77 q 263 159 263 139 l 263 418 q 235 378 261 399 q 175 332 208 358 q 115 265 141 305 q 90 164 90 224 q 109 64 90 98 q 168 29 129 29 m 261 765 l 126 827 q 101 842 110 835 q 92 864 92 849 q 101 884 92 878 q 123 891 110 891 q 144 886 135 891 q 163 874 153 882 l 275 783 l 261 765 z "},"ả":{"ha":382,"x_min":42,"x_max":375,"o":"m 168 -14 q 101 6 130 -14 q 57 65 73 25 q 42 164 42 104 q 64 268 42 226 q 119 339 86 310 q 185 393 152 369 q 240 444 218 418 q 263 508 263 471 q 255 602 263 562 q 229 666 247 643 q 178 688 210 688 q 118 661 142 688 q 94 601 94 634 q 97 581 94 588 q 100 568 99 574 q 102 551 102 563 q 96 524 102 535 q 76 513 90 513 q 57 524 63 513 q 51 557 51 536 q 66 646 51 606 q 110 708 82 685 q 178 731 139 731 q 245 711 217 731 q 289 645 273 690 q 304 525 304 600 l 304 77 q 311 44 304 53 q 330 35 317 35 q 346 39 340 35 q 355 45 352 42 l 375 8 q 355 -2 368 1 q 326 -6 342 -6 q 299 0 312 -6 q 277 20 285 6 q 269 56 269 33 q 252 25 264 41 q 220 -3 241 8 q 168 -14 200 -14 m 168 29 q 221 53 200 29 q 252 108 242 77 q 263 159 263 139 l 263 418 q 235 378 261 399 q 175 332 208 358 q 115 265 141 305 q 90 164 90 224 q 109 64 90 98 q 168 29 129 29 m 177 978 q 241 961 214 978 q 269 907 269 943 q 251 856 269 876 q 216 821 234 836 q 199 790 199 806 l 160 790 q 175 833 160 817 q 206 865 191 850 q 222 903 222 881 q 206 934 222 927 q 165 941 190 941 q 132 935 149 941 q 106 922 116 930 l 79 950 q 120 971 92 964 q 177 978 149 978 z "},"ȃ":{"ha":382,"x_min":42,"x_max":375,"o":"m 168 -14 q 101 6 130 -14 q 57 65 73 25 q 42 164 42 104 q 64 268 42 226 q 119 339 86 310 q 185 393 152 369 q 240 444 218 418 q 263 508 263 471 q 255 602 263 562 q 229 666 247 643 q 178 688 210 688 q 118 661 142 688 q 94 601 94 634 q 97 581 94 588 q 100 568 99 574 q 102 551 102 563 q 96 524 102 535 q 76 513 90 513 q 57 524 63 513 q 51 557 51 536 q 66 646 51 606 q 110 708 82 685 q 178 731 139 731 q 245 711 217 731 q 289 645 273 690 q 304 525 304 600 l 304 77 q 311 44 304 53 q 330 35 317 35 q 346 39 340 35 q 355 45 352 42 l 375 8 q 355 -2 368 1 q 326 -6 342 -6 q 299 0 312 -6 q 277 20 285 6 q 269 56 269 33 q 252 25 264 41 q 220 -3 241 8 q 168 -14 200 -14 m 168 29 q 221 53 200 29 q 252 108 242 77 q 263 159 263 139 l 263 418 q 235 378 261 399 q 175 332 208 358 q 115 265 141 305 q 90 164 90 224 q 109 64 90 98 q 168 29 129 29 m 181 904 q 245 888 220 904 q 281 843 269 872 q 292 779 292 815 l 252 779 q 232 841 249 820 q 181 863 215 863 q 130 841 147 863 q 110 779 113 820 l 71 779 q 82 843 71 815 q 117 888 93 872 q 181 904 142 904 z "},"ā":{"ha":382,"x_min":42,"x_max":375,"o":"m 168 -14 q 101 6 130 -14 q 57 65 73 25 q 42 164 42 104 q 64 268 42 226 q 119 339 86 310 q 185 393 152 369 q 240 444 218 418 q 263 508 263 471 q 255 602 263 562 q 229 666 247 643 q 178 688 210 688 q 118 661 142 688 q 94 601 94 634 q 97 581 94 588 q 100 568 99 574 q 102 551 102 563 q 96 524 102 535 q 76 513 90 513 q 57 524 63 513 q 51 557 51 536 q 66 646 51 606 q 110 708 82 685 q 178 731 139 731 q 245 711 217 731 q 289 645 273 690 q 304 525 304 600 l 304 77 q 311 44 304 53 q 330 35 317 35 q 346 39 340 35 q 355 45 352 42 l 375 8 q 355 -2 368 1 q 326 -6 342 -6 q 299 0 312 -6 q 277 20 285 6 q 269 56 269 33 q 252 25 264 41 q 220 -3 241 8 q 168 -14 200 -14 m 168 29 q 221 53 200 29 q 252 108 242 77 q 263 159 263 139 l 263 418 q 235 378 261 399 q 175 332 208 358 q 115 265 141 305 q 90 164 90 224 q 109 64 90 98 q 168 29 129 29 m 56 784 l 56 826 l 305 826 l 305 784 l 56 784 z "},"ą":{"ha":382,"x_min":42,"x_max":491,"o":"m 168 -14 q 101 6 130 -14 q 57 65 73 25 q 42 164 42 104 q 64 268 42 226 q 119 339 86 310 q 185 393 152 369 q 240 444 218 418 q 263 508 263 471 q 255 602 263 562 q 229 666 247 643 q 178 688 210 688 q 119 661 142 688 q 97 601 97 634 q 99 579 97 588 q 101 563 100 571 q 102 544 102 556 q 96 517 102 528 q 76 506 90 506 q 56 518 63 506 q 49 551 49 530 q 65 641 49 600 q 110 707 81 682 q 178 731 139 731 q 245 711 217 731 q 289 645 273 690 q 304 525 304 600 l 304 77 q 311 44 304 53 q 330 35 317 35 q 346 39 340 35 q 355 45 352 42 l 375 8 q 355 -2 368 1 q 326 -6 342 -6 q 299 0 312 -6 q 277 20 285 6 q 269 56 269 33 q 252 25 264 41 q 220 -3 241 8 q 168 -14 200 -14 m 168 29 q 221 53 200 29 q 252 108 242 77 q 263 159 263 139 l 263 418 q 235 378 261 399 q 175 332 208 358 q 115 265 141 305 q 90 164 90 224 q 109 64 90 98 q 168 29 129 29 m 382 -189 q 331 -180 357 -189 q 286 -150 304 -172 q 269 -93 269 -129 q 285 -42 269 -65 q 322 -3 301 -19 q 358 21 343 13 l 375 8 q 342 -31 361 -6 q 324 -90 324 -56 q 347 -137 324 -128 q 394 -147 370 -147 q 433 -142 410 -147 q 473 -129 457 -138 l 491 -158 q 447 -179 476 -169 q 382 -189 418 -189 z "},"å":{"ha":382,"x_min":42,"x_max":375,"o":"m 168 -14 q 101 6 130 -14 q 57 65 73 25 q 42 164 42 104 q 64 268 42 226 q 119 339 86 310 q 185 393 152 369 q 240 444 218 418 q 263 508 263 471 q 255 602 263 562 q 229 666 247 643 q 178 688 210 688 q 118 661 142 688 q 94 601 94 634 q 97 581 94 588 q 100 568 99 574 q 102 551 102 563 q 96 524 102 535 q 76 513 90 513 q 57 524 63 513 q 51 557 51 536 q 66 646 51 606 q 110 708 82 685 q 178 731 139 731 q 245 711 217 731 q 289 645 273 690 q 304 525 304 600 l 304 77 q 311 44 304 53 q 330 35 317 35 q 346 39 340 35 q 355 45 352 42 l 375 8 q 355 -2 368 1 q 326 -6 342 -6 q 299 0 312 -6 q 277 20 285 6 q 269 56 269 33 q 252 25 264 41 q 220 -3 241 8 q 168 -14 200 -14 m 168 29 q 221 53 200 29 q 252 108 242 77 q 263 159 263 139 l 263 418 q 235 378 261 399 q 175 332 208 358 q 115 265 141 305 q 90 164 90 224 q 109 64 90 98 q 168 29 129 29 m 181 758 q 129 780 149 758 q 108 840 108 803 q 129 900 108 878 q 181 922 149 922 q 233 900 212 922 q 253 840 253 878 q 233 780 253 803 q 181 758 212 758 m 181 785 q 209 801 201 785 q 218 841 218 817 q 209 878 218 862 q 181 894 201 894 q 153 878 163 894 q 144 841 144 862 q 153 801 144 817 q 181 785 163 785 z "},"ǻ":{"ha":382,"x_min":42,"x_max":375,"o":"m 168 -14 q 101 6 130 -14 q 57 65 73 25 q 42 164 42 104 q 64 268 42 226 q 119 339 86 310 q 185 393 152 369 q 240 444 218 418 q 263 508 263 471 q 255 602 263 562 q 229 666 247 643 q 178 688 210 688 q 118 661 142 688 q 94 601 94 634 q 97 581 94 588 q 100 568 99 574 q 102 551 102 563 q 96 524 102 535 q 76 513 90 513 q 57 524 63 513 q 51 557 51 536 q 66 646 51 606 q 110 708 82 685 q 178 731 139 731 q 245 711 217 731 q 289 645 273 690 q 304 525 304 600 l 304 77 q 311 44 304 53 q 330 35 317 35 q 346 39 340 35 q 355 45 352 42 l 375 8 q 355 -2 368 1 q 326 -6 342 -6 q 299 0 312 -6 q 277 20 285 6 q 269 56 269 33 q 252 25 264 41 q 220 -3 241 8 q 168 -14 200 -14 m 168 29 q 221 53 200 29 q 252 108 242 77 q 263 159 263 139 l 263 418 q 235 378 261 399 q 175 332 208 358 q 115 265 141 305 q 90 164 90 224 q 109 64 90 98 q 168 29 129 29 m 181 758 q 129 780 149 758 q 108 840 108 803 q 129 900 108 878 q 181 922 149 922 q 233 900 212 922 q 253 840 253 878 q 233 780 253 803 q 181 758 212 758 m 181 785 q 209 801 201 785 q 218 841 218 817 q 209 878 218 862 q 181 894 201 894 q 153 878 163 894 q 144 841 144 862 q 153 801 144 817 q 181 785 163 785 m 103 941 l 86 960 l 201 1049 q 222 1063 211 1058 q 243 1069 233 1069 q 256 1066 250 1069 q 265 1056 262 1063 q 268 1044 268 1051 q 255 1020 268 1031 q 225 1001 241 1009 l 103 941 z "},"ã":{"ha":382,"x_min":42,"x_max":375,"o":"m 168 -14 q 101 6 130 -14 q 57 65 73 25 q 42 164 42 104 q 64 268 42 226 q 119 339 86 310 q 185 393 152 369 q 240 444 218 418 q 263 508 263 471 q 255 602 263 562 q 229 666 247 643 q 178 688 210 688 q 118 661 142 688 q 94 601 94 634 q 97 581 94 588 q 100 568 99 574 q 102 551 102 563 q 96 524 102 535 q 76 513 90 513 q 57 524 63 513 q 51 557 51 536 q 66 646 51 606 q 110 708 82 685 q 178 731 139 731 q 245 711 217 731 q 289 645 273 690 q 304 525 304 600 l 304 77 q 311 44 304 53 q 330 35 317 35 q 346 39 340 35 q 355 45 352 42 l 375 8 q 355 -2 368 1 q 326 -6 342 -6 q 299 0 312 -6 q 277 20 285 6 q 269 56 269 33 q 252 25 264 41 q 220 -3 241 8 q 168 -14 200 -14 m 168 29 q 221 53 200 29 q 252 108 242 77 q 263 159 263 139 l 263 418 q 235 378 261 399 q 175 332 208 358 q 115 265 141 305 q 90 164 90 224 q 109 64 90 98 q 168 29 129 29 m 240 778 q 195 791 213 778 q 161 817 177 804 q 127 830 146 830 q 97 815 107 830 q 83 790 86 799 l 44 813 q 57 841 47 826 q 84 869 67 857 q 124 881 101 881 q 169 867 150 881 q 206 841 189 854 q 241 828 223 828 q 266 840 257 828 q 280 860 275 851 l 317 833 q 304 809 314 822 q 278 787 294 796 q 240 778 262 778 z "},"æ":{"ha":547,"x_min":42,"x_max":506,"o":"m 150 -11 q 71 31 100 -11 q 42 136 42 72 q 62 253 42 207 q 113 332 83 300 q 174 388 143 363 q 225 439 204 413 q 245 501 245 465 q 239 587 245 544 q 216 659 233 630 q 168 688 199 688 q 123 671 144 688 q 101 616 101 654 q 102 595 101 602 q 104 582 103 588 q 105 565 105 576 q 99 538 105 549 q 80 526 94 526 q 61 538 67 526 q 56 571 56 550 q 68 650 56 613 q 107 709 81 686 q 169 731 132 731 q 234 704 208 731 q 273 624 260 676 q 287 497 287 572 l 287 191 q 284 140 287 162 q 275 97 282 117 q 253 51 267 76 q 215 11 243 33 q 150 -11 187 -11 m 156 33 q 218 72 191 33 q 245 162 245 111 l 245 409 q 220 369 244 390 q 165 322 196 349 q 111 253 135 295 q 88 149 88 212 q 94 90 88 116 q 116 48 101 63 q 156 33 131 33 m 381 -15 q 306 20 334 -15 q 264 111 278 55 q 245 235 249 168 q 240 365 240 301 q 249 520 240 452 q 276 636 258 589 q 321 707 294 683 q 382 731 347 731 q 447 703 422 731 q 484 629 472 674 q 502 530 497 583 q 506 428 506 477 q 506 398 506 413 q 506 369 506 383 l 276 369 l 276 411 l 461 411 q 455 547 461 483 q 432 650 449 610 q 382 690 415 690 q 330 651 351 690 q 296 543 308 612 q 285 386 285 475 q 288 258 285 322 q 301 142 292 194 q 330 59 311 90 q 381 28 349 28 q 436 52 417 28 q 460 97 455 76 l 498 82 q 456 14 488 42 q 381 -15 424 -15 z "},"ǽ":{"ha":547,"x_min":42,"x_max":506,"o":"m 150 -11 q 71 31 100 -11 q 42 136 42 72 q 62 253 42 207 q 113 332 83 300 q 174 388 143 363 q 225 439 204 413 q 245 501 245 465 q 239 587 245 544 q 216 659 233 630 q 168 688 199 688 q 123 671 144 688 q 101 616 101 654 q 102 595 101 602 q 104 582 103 588 q 105 565 105 576 q 99 538 105 549 q 80 526 94 526 q 61 538 67 526 q 56 571 56 550 q 68 650 56 613 q 107 709 81 686 q 169 731 132 731 q 234 704 208 731 q 273 624 260 676 q 287 497 287 572 l 287 191 q 284 140 287 162 q 275 97 282 117 q 253 51 267 76 q 215 11 243 33 q 150 -11 187 -11 m 156 33 q 218 72 191 33 q 245 162 245 111 l 245 409 q 220 369 244 390 q 165 322 196 349 q 111 253 135 295 q 88 149 88 212 q 94 90 88 116 q 116 48 101 63 q 156 33 131 33 m 381 -15 q 306 20 334 -15 q 264 111 278 55 q 245 235 249 168 q 240 365 240 301 q 249 520 240 452 q 276 636 258 589 q 321 707 294 683 q 382 731 347 731 q 447 703 422 731 q 484 629 472 674 q 502 530 497 583 q 506 428 506 477 q 506 398 506 413 q 506 369 506 383 l 276 369 l 276 411 l 461 411 q 455 547 461 483 q 432 650 449 610 q 382 690 415 690 q 330 651 351 690 q 296 543 308 612 q 285 386 285 475 q 288 258 285 322 q 301 142 292 194 q 330 59 311 90 q 381 28 349 28 q 436 52 417 28 q 460 97 455 76 l 498 82 q 456 14 488 42 q 381 -15 424 -15 m 210 747 l 194 765 l 309 855 q 330 869 319 863 q 351 874 341 874 q 364 871 358 874 q 373 861 369 868 q 376 850 376 856 q 362 826 376 837 q 333 807 349 815 l 210 747 z "},"b":{"ha":403,"x_min":13,"x_max":356,"o":"m 219 -14 q 169 5 188 -14 q 141 49 151 24 q 130 94 132 74 l 130 0 l 13 0 l 13 42 l 88 42 l 88 1000 l 13 1000 l 13 1042 l 130 1042 l 130 636 q 144 674 133 651 q 175 713 155 696 q 226 730 195 730 q 297 694 267 730 q 341 576 326 658 q 356 360 356 495 q 340 145 356 227 q 292 24 323 63 q 219 -14 262 -14 m 219 29 q 260 49 242 29 q 289 109 277 69 q 306 211 300 150 q 312 356 312 273 q 307 488 312 428 q 291 590 302 547 q 264 657 281 633 q 224 681 247 681 q 178 655 198 681 q 145 595 158 630 q 130 533 133 560 l 130 235 q 143 145 133 193 q 173 63 153 97 q 219 29 192 29 z "},"ḅ":{"ha":403,"x_min":13,"x_max":356,"o":"m 219 -14 q 169 5 188 -14 q 141 49 151 24 q 130 94 132 74 l 130 0 l 13 0 l 13 42 l 88 42 l 88 1000 l 13 1000 l 13 1042 l 130 1042 l 130 636 q 144 674 133 651 q 175 713 155 696 q 226 730 195 730 q 297 694 267 730 q 341 576 326 658 q 356 360 356 495 q 340 145 356 227 q 292 24 323 63 q 219 -14 262 -14 m 219 29 q 260 49 242 29 q 289 109 277 69 q 306 211 300 150 q 312 356 312 273 q 307 488 312 428 q 291 590 302 547 q 264 657 281 633 q 224 681 247 681 q 178 655 198 681 q 145 595 158 630 q 130 533 133 560 l 130 235 q 143 145 133 193 q 173 63 153 97 q 219 29 192 29 m 206 -174 q 174 -161 188 -174 q 160 -131 160 -148 q 174 -99 160 -112 q 206 -85 188 -85 q 236 -99 223 -85 q 250 -131 250 -112 q 236 -161 250 -148 q 206 -174 223 -174 z "},"c":{"ha":360,"x_min":34,"x_max":319,"o":"m 203 -14 q 122 22 155 -14 q 70 116 90 58 q 42 242 51 174 q 34 372 34 309 q 47 522 34 456 q 84 635 60 589 q 138 707 107 682 q 202 731 168 731 q 268 705 242 731 q 306 639 294 679 q 319 557 319 599 q 313 524 319 536 q 294 513 307 513 q 274 524 281 513 q 267 551 267 535 q 269 567 267 562 q 274 580 272 573 q 276 601 276 587 q 256 664 276 640 q 202 688 235 688 q 148 663 171 688 q 110 593 125 637 q 87 493 94 549 q 80 375 80 437 q 86 257 80 318 q 107 145 92 197 q 144 61 121 93 q 203 29 168 29 q 258 46 238 29 q 288 94 277 63 l 319 69 q 282 16 309 45 q 203 -14 255 -14 z "},"ć":{"ha":360,"x_min":34,"x_max":319,"o":"m 203 -14 q 122 22 155 -14 q 70 116 90 58 q 42 242 51 174 q 34 372 34 309 q 47 522 34 456 q 84 635 60 589 q 138 707 107 682 q 202 731 168 731 q 268 705 242 731 q 306 639 294 679 q 319 557 319 599 q 313 524 319 536 q 294 513 307 513 q 274 524 281 513 q 267 551 267 535 q 269 567 267 562 q 274 580 272 573 q 276 601 276 587 q 256 664 276 640 q 202 688 235 688 q 148 663 171 688 q 110 593 125 637 q 87 493 94 549 q 80 375 80 437 q 86 257 80 318 q 107 145 92 197 q 144 61 121 93 q 203 29 168 29 q 258 46 238 29 q 288 94 277 63 l 319 69 q 282 16 309 45 q 203 -14 255 -14 m 113 747 l 97 765 l 212 855 q 233 869 222 863 q 253 874 244 874 q 266 871 260 874 q 276 861 272 868 q 278 850 278 856 q 265 826 278 837 q 235 807 251 815 l 113 747 z "},"č":{"ha":360,"x_min":34,"x_max":319,"o":"m 203 -14 q 122 22 155 -14 q 70 116 90 58 q 42 242 51 174 q 34 372 34 309 q 47 522 34 456 q 84 635 60 589 q 138 707 107 682 q 202 731 168 731 q 268 705 242 731 q 306 639 294 679 q 319 557 319 599 q 313 524 319 536 q 294 513 307 513 q 274 524 281 513 q 267 551 267 535 q 269 567 267 562 q 274 580 272 573 q 276 601 276 587 q 256 664 276 640 q 202 688 235 688 q 148 663 171 688 q 110 593 125 637 q 87 493 94 549 q 80 375 80 437 q 86 257 80 318 q 107 145 92 197 q 144 61 121 93 q 203 29 168 29 q 258 46 238 29 q 288 94 277 63 l 319 69 q 282 16 309 45 q 203 -14 255 -14 m 167 765 l 65 910 l 106 910 l 191 811 l 276 910 l 317 910 l 216 765 l 167 765 z "},"ç":{"ha":360,"x_min":34,"x_max":329,"o":"m 203 -14 q 122 22 155 -14 q 70 116 90 58 q 42 242 51 174 q 34 372 34 309 q 47 522 34 456 q 84 635 60 589 q 138 707 107 682 q 202 731 168 731 q 268 705 242 731 q 306 639 294 679 q 319 557 319 599 q 313 524 319 536 q 294 513 307 513 q 274 524 281 513 q 267 551 267 535 q 269 567 267 562 q 274 580 272 573 q 276 601 276 587 q 256 664 276 640 q 202 688 235 688 q 148 663 171 688 q 110 593 125 637 q 87 493 94 549 q 80 375 80 437 q 86 257 80 318 q 107 145 92 197 q 144 61 121 93 q 203 29 168 29 q 258 46 238 29 q 288 94 277 63 l 319 69 q 282 16 309 45 q 203 -14 255 -14 m 228 -193 q 165 -186 189 -193 q 130 -174 140 -180 l 144 -141 q 173 -152 151 -146 q 229 -158 194 -158 q 270 -148 251 -158 q 290 -118 290 -137 q 276 -91 290 -97 q 246 -85 263 -85 q 219 -90 235 -85 q 194 -105 204 -95 l 155 -102 l 199 1 l 240 1 l 206 -69 q 225 -58 210 -65 q 260 -51 241 -51 q 307 -66 285 -51 q 329 -119 329 -81 q 312 -164 329 -148 q 270 -187 294 -181 q 228 -193 247 -193 z "},"ḉ":{"ha":360,"x_min":34,"x_max":329,"o":"m 113 747 l 97 765 l 212 855 q 233 869 222 863 q 253 874 244 874 q 266 871 260 874 q 276 861 272 868 q 278 850 278 856 q 265 826 278 837 q 235 807 251 815 l 113 747 m 203 -14 q 122 22 155 -14 q 70 116 90 58 q 42 242 51 174 q 34 372 34 309 q 47 522 34 456 q 84 635 60 589 q 138 707 107 682 q 202 731 168 731 q 268 705 242 731 q 306 639 294 679 q 319 557 319 599 q 313 524 319 536 q 294 513 307 513 q 274 524 281 513 q 267 551 267 535 q 269 567 267 562 q 274 580 272 573 q 276 601 276 587 q 256 664 276 640 q 202 688 235 688 q 148 663 171 688 q 110 593 125 637 q 87 493 94 549 q 80 375 80 437 q 86 257 80 318 q 107 145 92 197 q 144 61 121 93 q 203 29 168 29 q 258 46 238 29 q 288 94 277 63 l 319 69 q 282 16 309 45 q 203 -14 255 -14 m 228 -193 q 165 -186 189 -193 q 130 -174 140 -180 l 144 -141 q 173 -152 151 -146 q 229 -158 194 -158 q 270 -148 251 -158 q 290 -118 290 -137 q 276 -91 290 -97 q 246 -85 263 -85 q 219 -90 235 -85 q 194 -105 204 -95 l 155 -102 l 199 1 l 240 1 l 206 -69 q 225 -58 210 -65 q 260 -51 241 -51 q 307 -66 285 -51 q 329 -119 329 -81 q 312 -164 329 -148 q 270 -187 294 -181 q 228 -193 247 -193 z "},"ĉ":{"ha":360,"x_min":34,"x_max":319,"o":"m 203 -14 q 122 22 155 -14 q 70 116 90 58 q 42 242 51 174 q 34 372 34 309 q 47 522 34 456 q 84 635 60 589 q 138 707 107 682 q 202 731 168 731 q 268 705 242 731 q 306 639 294 679 q 319 557 319 599 q 313 524 319 536 q 294 513 307 513 q 274 524 281 513 q 267 551 267 535 q 269 567 267 562 q 274 580 272 573 q 276 601 276 587 q 256 664 276 640 q 202 688 235 688 q 148 663 171 688 q 110 593 125 637 q 87 493 94 549 q 80 375 80 437 q 86 257 80 318 q 107 145 92 197 q 144 61 121 93 q 203 29 168 29 q 258 46 238 29 q 288 94 277 63 l 319 69 q 282 16 309 45 q 203 -14 255 -14 m 65 776 l 167 921 l 216 921 l 317 776 l 276 776 l 191 875 l 106 776 l 65 776 z "},"ċ":{"ha":360,"x_min":34,"x_max":319,"o":"m 203 -14 q 122 22 155 -14 q 70 116 90 58 q 42 242 51 174 q 34 372 34 309 q 47 522 34 456 q 84 635 60 589 q 138 707 107 682 q 202 731 168 731 q 268 705 242 731 q 306 639 294 679 q 319 557 319 599 q 313 524 319 536 q 294 513 307 513 q 274 524 281 513 q 267 551 267 535 q 269 567 267 562 q 274 580 272 573 q 276 601 276 587 q 256 664 276 640 q 202 688 235 688 q 148 663 171 688 q 110 593 125 637 q 87 493 94 549 q 80 375 80 437 q 86 257 80 318 q 107 145 92 197 q 144 61 121 93 q 203 29 168 29 q 258 46 238 29 q 288 94 277 63 l 319 69 q 282 16 309 45 q 203 -14 255 -14 m 191 781 q 160 794 174 781 q 146 824 146 807 q 160 856 146 842 q 191 870 174 870 q 222 856 208 870 q 235 824 235 842 q 222 794 235 807 q 191 781 208 781 z "},"d":{"ha":405,"x_min":54,"x_max":398,"o":"m 188 -14 q 116 24 146 -14 q 70 145 86 63 q 54 360 54 227 q 70 576 54 495 q 116 694 87 658 q 185 730 146 730 q 236 715 216 730 q 267 680 256 701 q 281 642 278 660 l 281 1000 l 206 1000 l 206 1042 l 323 1042 l 323 42 l 398 42 l 398 0 l 281 0 l 281 94 q 268 50 279 76 q 238 5 258 24 q 188 -14 219 -14 m 193 29 q 236 60 218 29 q 267 135 255 90 q 281 221 278 179 l 281 533 q 264 601 278 567 q 231 658 251 635 q 188 681 211 681 q 144 655 162 681 q 117 585 127 630 q 103 482 107 540 q 99 356 99 423 q 104 211 99 273 q 121 109 110 150 q 150 49 132 69 q 193 29 168 29 z "},"ð":{"ha":462,"x_min":68,"x_max":380,"o":"m 222 -15 q 138 36 172 -15 q 86 174 103 87 q 68 367 68 260 q 80 522 68 454 q 112 636 91 590 q 161 707 133 683 q 222 731 189 731 q 269 718 250 731 q 300 686 289 705 q 317 653 312 668 q 295 749 309 706 q 263 823 281 792 q 224 874 244 855 l 179 803 l 149 824 l 199 900 q 156 932 183 916 q 106 956 128 949 l 120 988 q 149 977 133 984 q 180 961 165 969 q 205 944 195 952 l 221 932 l 253 985 l 283 965 l 247 909 q 310 824 285 873 q 351 710 335 776 q 373 560 367 645 q 380 366 380 476 q 360 169 380 256 q 305 34 340 83 q 222 -15 269 -15 m 222 26 q 272 58 247 26 q 314 164 297 90 q 331 366 331 238 q 314 562 331 492 q 272 661 297 633 q 222 690 247 690 q 174 661 199 690 q 130 562 148 633 q 113 366 113 492 q 130 164 113 238 q 174 58 148 90 q 222 26 199 26 z "},"ď":{"ha":462,"x_min":54,"x_max":428,"o":"m 366 837 q 378 903 374 867 q 383 972 383 938 q 389 1010 383 997 q 407 1023 394 1023 q 425 1011 421 1023 q 428 979 428 999 q 422 908 428 951 q 399 823 415 865 l 366 837 m 188 -14 q 116 24 146 -14 q 70 145 86 63 q 54 360 54 227 q 70 576 54 495 q 116 694 87 658 q 185 730 146 730 q 236 715 216 730 q 267 680 256 701 q 281 642 278 660 l 281 1000 l 206 1000 l 206 1042 l 323 1042 l 323 42 l 398 42 l 398 0 l 281 0 l 281 94 q 268 50 279 76 q 238 5 258 24 q 188 -14 219 -14 m 193 29 q 236 60 218 29 q 267 135 255 90 q 281 221 278 179 l 281 533 q 264 601 278 567 q 231 658 251 635 q 188 681 211 681 q 144 655 162 681 q 117 585 127 630 q 103 482 107 540 q 99 356 99 423 q 104 211 99 273 q 121 109 110 150 q 150 49 132 69 q 193 29 168 29 z "},"đ":{"ha":405,"x_min":54,"x_max":399,"o":"m 134 872 l 134 913 l 399 913 l 399 872 l 134 872 m 188 -14 q 116 24 146 -14 q 70 145 86 63 q 54 360 54 227 q 70 576 54 495 q 116 694 87 658 q 185 730 146 730 q 236 715 216 730 q 267 680 256 701 q 281 642 278 660 l 281 1000 l 206 1000 l 206 1042 l 323 1042 l 323 42 l 398 42 l 398 0 l 281 0 l 281 94 q 268 50 279 76 q 238 5 258 24 q 188 -14 219 -14 m 193 29 q 236 60 218 29 q 267 135 255 90 q 281 221 278 179 l 281 533 q 264 601 278 567 q 231 658 251 635 q 188 681 211 681 q 144 655 162 681 q 117 585 127 630 q 103 482 107 540 q 99 356 99 423 q 104 211 99 273 q 121 109 110 150 q 150 49 132 69 q 193 29 168 29 z "},"ḍ":{"ha":405,"x_min":54,"x_max":398,"o":"m 188 -14 q 116 24 146 -14 q 70 145 86 63 q 54 360 54 227 q 70 576 54 495 q 116 694 87 658 q 185 730 146 730 q 236 715 216 730 q 267 680 256 701 q 281 642 278 660 l 281 1000 l 206 1000 l 206 1042 l 323 1042 l 323 42 l 398 42 l 398 0 l 281 0 l 281 94 q 268 50 279 76 q 238 5 258 24 q 188 -14 219 -14 m 193 29 q 236 60 218 29 q 267 135 255 90 q 281 221 278 179 l 281 533 q 264 601 278 567 q 231 658 251 635 q 188 681 211 681 q 144 655 162 681 q 117 585 127 630 q 103 482 107 540 q 99 356 99 423 q 104 211 99 273 q 121 109 110 150 q 150 49 132 69 q 193 29 168 29 m 206 -174 q 174 -161 188 -174 q 160 -131 160 -148 q 174 -99 160 -112 q 206 -85 188 -85 q 236 -99 223 -85 q 250 -131 250 -112 q 236 -161 250 -148 q 206 -174 223 -174 z "},"ḏ":{"ha":405,"x_min":-13,"x_max":398,"o":"m 188 -14 q 116 24 146 -14 q 70 145 86 63 q 54 360 54 227 q 70 576 54 495 q 116 694 87 658 q 185 730 146 730 q 236 715 216 730 q 267 680 256 701 q 281 642 278 660 l 281 1000 l 206 1000 l 206 1042 l 323 1042 l 323 42 l 398 42 l 398 0 l 281 0 l 281 94 q 268 50 279 76 q 238 5 258 24 q 188 -14 219 -14 m 193 29 q 236 60 218 29 q 267 135 255 90 q 281 221 278 179 l 281 533 q 264 601 278 567 q 231 658 251 635 q 188 681 211 681 q 144 655 162 681 q 117 585 127 630 q 103 482 107 540 q 99 356 99 423 q 104 211 99 273 q 121 109 110 150 q 150 49 132 69 q 193 29 168 29 m -13 -181 l -13 -140 l 351 -140 l 351 -181 l -13 -181 z "},"ǆ":{"ha":729,"x_min":54,"x_max":694,"o":"m 188 -14 q 116 24 146 -14 q 70 145 86 63 q 54 360 54 227 q 70 576 54 495 q 116 694 87 658 q 185 730 146 730 q 236 715 216 730 q 267 680 256 701 q 281 642 278 660 l 281 1000 l 206 1000 l 206 1042 l 323 1042 l 323 42 l 398 42 l 398 0 l 281 0 l 281 94 q 268 50 279 76 q 238 5 258 24 q 188 -14 219 -14 m 193 29 q 236 60 218 29 q 267 135 255 90 q 281 221 278 179 l 281 533 q 264 601 278 567 q 231 658 251 635 q 188 681 211 681 q 144 655 162 681 q 117 585 127 630 q 103 482 107 540 q 99 356 99 423 q 104 211 99 273 q 121 109 110 150 q 150 49 132 69 q 193 29 168 29 m 454 0 l 454 42 l 632 685 l 561 685 q 518 677 531 685 q 502 640 505 669 q 499 548 499 610 l 459 548 l 459 727 l 674 727 l 674 685 l 496 42 l 559 42 q 611 51 596 42 q 630 91 626 60 q 633 185 633 122 l 675 185 l 675 0 l 454 0 m 544 765 l 442 910 l 483 910 l 568 811 l 653 910 l 694 910 l 593 765 l 544 765 z "},"e":{"ha":342,"x_min":35,"x_max":301,"o":"m 175 -15 q 100 20 128 -15 q 58 111 72 55 q 39 235 44 168 q 35 365 35 301 q 44 520 35 452 q 71 636 53 589 q 115 707 89 683 q 176 731 142 731 q 241 703 217 731 q 279 629 266 674 q 296 530 292 583 q 301 428 301 477 q 301 398 301 413 q 300 369 301 383 l 70 369 l 70 411 l 256 411 q 249 547 256 483 q 226 650 243 610 q 176 690 209 690 q 124 651 146 690 q 91 543 102 612 q 79 386 79 475 q 83 258 79 322 q 96 142 86 194 q 125 59 106 90 q 175 28 144 28 q 231 52 212 28 q 255 97 249 76 l 292 82 q 250 14 283 42 q 175 -15 218 -15 z "},"é":{"ha":342,"x_min":35,"x_max":301,"o":"m 175 -15 q 100 20 128 -15 q 58 111 72 55 q 39 235 44 168 q 35 365 35 301 q 44 520 35 452 q 71 636 53 589 q 115 707 89 683 q 176 731 142 731 q 241 703 217 731 q 279 629 266 674 q 296 530 292 583 q 301 428 301 477 q 301 398 301 413 q 300 369 301 383 l 70 369 l 70 411 l 256 411 q 249 547 256 483 q 226 650 243 610 q 176 690 209 690 q 124 651 146 690 q 91 543 102 612 q 79 386 79 475 q 83 258 79 322 q 96 142 86 194 q 125 59 106 90 q 175 28 144 28 q 231 52 212 28 q 255 97 249 76 l 292 82 q 250 14 283 42 q 175 -15 218 -15 m 97 745 l 81 764 l 196 853 q 217 867 206 862 q 238 873 228 873 q 250 870 244 873 q 260 860 256 867 q 263 849 263 855 q 249 824 263 835 q 219 806 235 813 l 97 745 z "},"ĕ":{"ha":342,"x_min":35,"x_max":301,"o":"m 175 -15 q 100 20 128 -15 q 58 111 72 55 q 39 235 44 168 q 35 365 35 301 q 44 520 35 452 q 71 636 53 589 q 115 707 89 683 q 176 731 142 731 q 241 703 217 731 q 279 629 266 674 q 296 530 292 583 q 301 428 301 477 q 301 398 301 413 q 300 369 301 383 l 70 369 l 70 411 l 256 411 q 249 547 256 483 q 226 650 243 610 q 176 690 209 690 q 124 651 146 690 q 91 543 102 612 q 79 386 79 475 q 83 258 79 322 q 96 142 86 194 q 125 59 106 90 q 175 28 144 28 q 231 52 212 28 q 255 97 249 76 l 292 82 q 250 14 283 42 q 175 -15 218 -15 m 174 763 q 110 780 135 763 q 75 824 86 796 q 64 888 64 853 l 103 888 q 123 826 106 848 q 174 805 140 805 q 225 826 208 805 q 245 888 242 848 l 285 888 q 274 824 285 853 q 238 780 263 796 q 174 763 213 763 z "},"ě":{"ha":342,"x_min":35,"x_max":301,"o":"m 175 -15 q 100 20 128 -15 q 58 111 72 55 q 39 235 44 168 q 35 365 35 301 q 44 520 35 452 q 71 636 53 589 q 115 707 89 683 q 176 731 142 731 q 241 703 217 731 q 279 629 266 674 q 296 530 292 583 q 301 428 301 477 q 301 398 301 413 q 300 369 301 383 l 70 369 l 70 411 l 256 411 q 249 547 256 483 q 226 650 243 610 q 176 690 209 690 q 124 651 146 690 q 91 543 102 612 q 79 386 79 475 q 83 258 79 322 q 96 142 86 194 q 125 59 106 90 q 175 28 144 28 q 231 52 212 28 q 255 97 249 76 l 292 82 q 250 14 283 42 q 175 -15 218 -15 m 151 763 l 49 908 l 90 908 l 175 810 l 260 908 l 301 908 l 200 763 l 151 763 z "},"ȩ":{"ha":342,"x_min":35,"x_max":301,"o":"m 175 -15 q 100 20 128 -15 q 58 111 72 55 q 39 235 44 168 q 35 365 35 301 q 44 520 35 452 q 71 636 53 589 q 115 707 89 683 q 176 731 142 731 q 241 703 217 731 q 279 629 266 674 q 296 530 292 583 q 301 428 301 477 q 301 398 301 413 q 300 369 301 383 l 70 369 l 70 411 l 256 411 q 249 547 256 483 q 226 650 243 610 q 176 690 209 690 q 124 651 146 690 q 91 543 102 612 q 79 386 79 475 q 83 258 79 322 q 96 142 86 194 q 125 59 106 90 q 175 28 144 28 q 231 52 212 28 q 255 97 249 76 l 292 82 q 250 14 283 42 q 175 -15 218 -15 m 200 -194 q 137 -188 161 -194 q 102 -176 113 -181 l 117 -142 q 145 -153 124 -147 q 201 -159 166 -159 q 243 -149 224 -159 q 262 -119 262 -139 q 249 -92 262 -99 q 218 -86 235 -86 q 192 -91 207 -86 q 167 -106 176 -97 l 127 -103 l 171 0 l 213 0 l 178 -71 q 198 -59 182 -66 q 232 -53 213 -53 q 280 -68 258 -53 q 301 -120 301 -83 q 284 -166 301 -149 q 243 -188 267 -182 q 200 -194 219 -194 z "},"ḝ":{"ha":342,"x_min":35,"x_max":301,"o":"m 174 763 q 110 780 135 763 q 75 824 86 796 q 64 888 64 853 l 103 888 q 123 826 106 848 q 174 805 140 805 q 225 826 208 805 q 245 888 242 848 l 285 888 q 274 824 285 853 q 238 780 263 796 q 174 763 213 763 m 175 -15 q 100 20 128 -15 q 58 111 72 55 q 39 235 44 168 q 35 365 35 301 q 44 520 35 452 q 71 636 53 589 q 115 707 89 683 q 176 731 142 731 q 241 703 217 731 q 279 629 266 674 q 296 530 292 583 q 301 428 301 477 q 301 398 301 413 q 300 369 301 383 l 70 369 l 70 411 l 256 411 q 249 547 256 483 q 226 650 243 610 q 176 690 209 690 q 124 651 146 690 q 91 543 102 612 q 79 386 79 475 q 83 258 79 322 q 96 142 86 194 q 125 59 106 90 q 175 28 144 28 q 231 52 212 28 q 255 97 249 76 l 292 82 q 250 14 283 42 q 175 -15 218 -15 m 200 -194 q 137 -188 161 -194 q 102 -176 113 -181 l 117 -142 q 145 -153 124 -147 q 201 -159 166 -159 q 243 -149 224 -159 q 262 -119 262 -139 q 249 -92 262 -99 q 218 -86 235 -86 q 192 -91 207 -86 q 167 -106 176 -97 l 127 -103 l 171 0 l 213 0 l 178 -71 q 198 -59 182 -66 q 232 -53 213 -53 q 280 -68 258 -53 q 301 -120 301 -83 q 284 -166 301 -149 q 243 -188 267 -182 q 200 -194 219 -194 z "},"ê":{"ha":342,"x_min":35,"x_max":301,"o":"m 175 -15 q 100 20 128 -15 q 58 111 72 55 q 39 235 44 168 q 35 365 35 301 q 44 520 35 452 q 71 636 53 589 q 115 707 89 683 q 176 731 142 731 q 241 703 217 731 q 279 629 266 674 q 296 530 292 583 q 301 428 301 477 q 301 398 301 413 q 300 369 301 383 l 70 369 l 70 411 l 256 411 q 249 547 256 483 q 226 650 243 610 q 176 690 209 690 q 124 651 146 690 q 91 543 102 612 q 79 386 79 475 q 83 258 79 322 q 96 142 86 194 q 125 59 106 90 q 175 28 144 28 q 231 52 212 28 q 255 97 249 76 l 292 82 q 250 14 283 42 q 175 -15 218 -15 m 49 774 l 151 919 l 200 919 l 301 774 l 260 774 l 175 874 l 90 774 l 49 774 z "},"ế":{"ha":342,"x_min":35,"x_max":404,"o":"m 175 -15 q 100 20 128 -15 q 58 111 72 55 q 39 235 44 168 q 35 365 35 301 q 44 520 35 452 q 71 636 53 589 q 115 707 89 683 q 176 731 142 731 q 241 703 217 731 q 279 629 266 674 q 296 530 292 583 q 301 428 301 477 q 301 398 301 413 q 300 369 301 383 l 70 369 l 70 411 l 256 411 q 249 547 256 483 q 226 650 243 610 q 176 690 209 690 q 124 651 146 690 q 91 543 102 612 q 79 386 79 475 q 83 258 79 322 q 96 142 86 194 q 125 59 106 90 q 175 28 144 28 q 231 52 212 28 q 255 97 249 76 l 292 82 q 250 14 283 42 q 175 -15 218 -15 m 49 768 l 151 913 l 200 913 l 301 768 l 260 768 l 175 867 l 90 768 l 49 768 m 263 904 l 249 920 l 347 997 q 383 1013 366 1013 q 393 1010 388 1013 q 401 1001 399 1007 q 404 992 404 998 q 392 971 404 981 q 367 956 381 962 l 263 904 z "},"ệ":{"ha":342,"x_min":35,"x_max":301,"o":"m 175 -15 q 100 20 128 -15 q 58 111 72 55 q 39 235 44 168 q 35 365 35 301 q 44 520 35 452 q 71 636 53 589 q 115 707 89 683 q 176 731 142 731 q 241 703 217 731 q 279 629 266 674 q 296 530 292 583 q 301 428 301 477 q 301 398 301 413 q 300 369 301 383 l 70 369 l 70 411 l 256 411 q 249 547 256 483 q 226 650 243 610 q 176 690 209 690 q 124 651 146 690 q 91 543 102 612 q 79 386 79 475 q 83 258 79 322 q 96 142 86 194 q 125 59 106 90 q 175 28 144 28 q 231 52 212 28 q 255 97 249 76 l 292 82 q 250 14 283 42 q 175 -15 218 -15 m 192 -174 q 160 -161 174 -174 q 147 -131 147 -148 q 160 -99 147 -112 q 192 -85 174 -85 q 223 -99 209 -85 q 236 -131 236 -112 q 223 -161 236 -148 q 192 -174 209 -174 m 49 774 l 151 919 l 200 919 l 301 774 l 260 774 l 175 874 l 90 774 l 49 774 z "},"ề":{"ha":342,"x_min":35,"x_max":326,"o":"m 175 -15 q 100 20 128 -15 q 58 111 72 55 q 39 235 44 168 q 35 365 35 301 q 44 520 35 452 q 71 636 53 589 q 115 707 89 683 q 176 731 142 731 q 241 703 217 731 q 279 629 266 674 q 296 530 292 583 q 301 428 301 477 q 301 398 301 413 q 300 369 301 383 l 70 369 l 70 411 l 256 411 q 249 547 256 483 q 226 650 243 610 q 176 690 209 690 q 124 651 146 690 q 91 543 102 612 q 79 386 79 475 q 83 258 79 322 q 96 142 86 194 q 125 59 106 90 q 175 28 144 28 q 231 52 212 28 q 255 97 249 76 l 292 82 q 250 14 283 42 q 175 -15 218 -15 m 49 768 l 151 913 l 200 913 l 301 768 l 260 768 l 175 867 l 90 768 l 49 768 m 315 897 l 199 950 q 177 963 185 956 q 169 982 169 969 q 177 1000 169 994 q 196 1006 185 1006 q 215 1002 207 1006 q 231 991 223 998 l 326 913 l 315 897 z "},"ể":{"ha":342,"x_min":35,"x_max":350,"o":"m 175 -15 q 100 20 128 -15 q 58 111 72 55 q 39 235 44 168 q 35 365 35 301 q 44 520 35 452 q 71 636 53 589 q 115 707 89 683 q 176 731 142 731 q 241 703 217 731 q 279 629 266 674 q 296 530 292 583 q 301 428 301 477 q 301 398 301 413 q 300 369 301 383 l 70 369 l 70 411 l 256 411 q 249 547 256 483 q 226 650 243 610 q 176 690 209 690 q 124 651 146 690 q 91 543 102 612 q 79 386 79 475 q 83 258 79 322 q 96 142 86 194 q 125 59 106 90 q 175 28 144 28 q 231 52 212 28 q 255 97 249 76 l 292 82 q 250 14 283 42 q 175 -15 218 -15 m 47 769 l 149 914 l 199 914 l 300 769 l 258 769 l 174 868 l 89 769 l 47 769 m 277 1033 q 328 1018 306 1033 q 350 976 350 1004 q 336 935 350 951 q 308 908 322 919 q 294 882 294 896 l 263 882 q 276 917 263 903 q 300 942 288 930 q 313 973 313 955 q 300 997 313 991 q 267 1003 288 1003 q 241 998 254 1003 q 221 987 228 994 l 199 1010 q 232 1027 209 1021 q 277 1033 256 1033 z "},"ễ":{"ha":342,"x_min":31,"x_max":319,"o":"m 175 -15 q 100 20 128 -15 q 58 111 72 55 q 39 235 44 168 q 35 365 35 301 q 44 520 35 452 q 71 636 53 589 q 115 707 89 683 q 176 731 142 731 q 241 703 217 731 q 279 629 266 674 q 296 530 292 583 q 301 428 301 477 q 301 398 301 413 q 300 369 301 383 l 70 369 l 70 411 l 256 411 q 249 547 256 483 q 226 650 243 610 q 176 690 209 690 q 124 651 146 690 q 91 543 102 612 q 79 386 79 475 q 83 258 79 322 q 96 142 86 194 q 125 59 106 90 q 175 28 144 28 q 231 52 212 28 q 255 97 249 76 l 292 82 q 250 14 283 42 q 175 -15 218 -15 m 49 769 l 151 914 l 200 914 l 301 769 l 260 769 l 175 868 l 90 769 l 49 769 m 234 942 q 188 955 208 942 q 151 980 168 967 q 115 993 133 993 q 82 978 94 993 q 66 953 69 963 l 31 972 q 47 1001 35 985 q 77 1031 58 1018 q 118 1044 95 1044 q 164 1031 144 1044 q 202 1004 184 1017 q 238 991 219 991 q 268 1003 258 991 q 283 1024 278 1015 l 319 1003 q 303 977 315 992 q 274 952 292 963 q 234 942 256 942 z "},"ȅ":{"ha":342,"x_min":35,"x_max":306,"o":"m 175 -15 q 100 20 128 -15 q 58 111 72 55 q 39 235 44 168 q 35 365 35 301 q 44 520 35 452 q 71 636 53 589 q 115 707 89 683 q 176 731 142 731 q 241 703 217 731 q 279 629 266 674 q 296 530 292 583 q 301 428 301 477 q 301 398 301 413 q 300 369 301 383 l 70 369 l 70 411 l 256 411 q 249 547 256 483 q 226 650 243 610 q 176 690 209 690 q 124 651 146 690 q 91 543 102 612 q 79 386 79 475 q 83 258 79 322 q 96 142 86 194 q 125 59 106 90 q 175 28 144 28 q 231 52 212 28 q 255 97 249 76 l 292 82 q 250 14 283 42 q 175 -15 218 -15 m 288 769 l 182 874 q 166 891 172 883 q 160 908 160 899 q 169 931 160 924 q 189 938 178 938 q 217 928 208 938 q 233 906 226 918 l 306 781 l 288 769 m 167 769 l 61 874 q 45 891 51 883 q 40 908 40 899 q 48 931 40 924 q 68 938 57 938 q 96 928 87 938 q 113 906 106 918 l 185 781 l 167 769 z "},"ë":{"ha":342,"x_min":35,"x_max":301,"o":"m 175 -15 q 100 20 128 -15 q 58 111 72 55 q 39 235 44 168 q 35 365 35 301 q 44 520 35 452 q 71 636 53 589 q 115 707 89 683 q 176 731 142 731 q 241 703 217 731 q 279 629 266 674 q 296 530 292 583 q 301 428 301 477 q 301 398 301 413 q 300 369 301 383 l 70 369 l 70 411 l 256 411 q 249 547 256 483 q 226 650 243 610 q 176 690 209 690 q 124 651 146 690 q 91 543 102 612 q 79 386 79 475 q 83 258 79 322 q 96 142 86 194 q 125 59 106 90 q 175 28 144 28 q 231 52 212 28 q 255 97 249 76 l 292 82 q 250 14 283 42 q 175 -15 218 -15 m 249 777 q 218 790 231 777 q 205 820 205 803 q 218 853 205 839 q 249 867 231 867 q 280 853 267 867 q 293 820 293 839 q 280 790 293 803 q 249 777 267 777 m 100 777 q 70 790 83 777 q 56 820 56 803 q 70 853 56 839 q 100 867 83 867 q 132 853 118 867 q 146 820 146 839 q 132 790 146 803 q 100 777 118 777 z "},"ė":{"ha":342,"x_min":35,"x_max":301,"o":"m 175 -15 q 100 20 128 -15 q 58 111 72 55 q 39 235 44 168 q 35 365 35 301 q 44 520 35 452 q 71 636 53 589 q 115 707 89 683 q 176 731 142 731 q 241 703 217 731 q 279 629 266 674 q 296 530 292 583 q 301 428 301 477 q 301 398 301 413 q 300 369 301 383 l 70 369 l 70 411 l 256 411 q 249 547 256 483 q 226 650 243 610 q 176 690 209 690 q 124 651 146 690 q 91 543 102 612 q 79 386 79 475 q 83 258 79 322 q 96 142 86 194 q 125 59 106 90 q 175 28 144 28 q 231 52 212 28 q 255 97 249 76 l 292 82 q 250 14 283 42 q 175 -15 218 -15 m 175 780 q 144 793 158 780 q 130 823 130 806 q 144 855 130 841 q 175 869 158 869 q 206 855 192 869 q 219 823 219 841 q 206 793 219 806 q 175 780 192 780 z "},"ẹ":{"ha":342,"x_min":35,"x_max":301,"o":"m 175 -15 q 100 20 128 -15 q 58 111 72 55 q 39 235 44 168 q 35 365 35 301 q 44 520 35 452 q 71 636 53 589 q 115 707 89 683 q 176 731 142 731 q 241 703 217 731 q 279 629 266 674 q 296 530 292 583 q 301 428 301 477 q 301 398 301 413 q 300 369 301 383 l 70 369 l 70 411 l 256 411 q 249 547 256 483 q 226 650 243 610 q 176 690 209 690 q 124 651 146 690 q 91 543 102 612 q 79 386 79 475 q 83 258 79 322 q 96 142 86 194 q 125 59 106 90 q 175 28 144 28 q 231 52 212 28 q 255 97 249 76 l 292 82 q 250 14 283 42 q 175 -15 218 -15 m 192 -174 q 160 -161 174 -174 q 147 -131 147 -148 q 160 -99 147 -112 q 192 -85 174 -85 q 223 -99 209 -85 q 236 -131 236 -112 q 223 -161 236 -148 q 192 -174 209 -174 z "},"è":{"ha":342,"x_min":35,"x_max":301,"o":"m 175 -15 q 100 20 128 -15 q 58 111 72 55 q 39 235 44 168 q 35 365 35 301 q 44 520 35 452 q 71 636 53 589 q 115 707 89 683 q 176 731 142 731 q 241 703 217 731 q 279 629 266 674 q 296 530 292 583 q 301 428 301 477 q 301 398 301 413 q 300 369 301 383 l 70 369 l 70 411 l 256 411 q 249 547 256 483 q 226 650 243 610 q 176 690 209 690 q 124 651 146 690 q 91 543 102 612 q 79 386 79 475 q 83 258 79 322 q 96 142 86 194 q 125 59 106 90 q 175 28 144 28 q 231 52 212 28 q 255 97 249 76 l 292 82 q 250 14 283 42 q 175 -15 218 -15 m 256 764 l 121 826 q 96 840 105 833 q 87 863 87 847 q 95 883 87 876 q 117 890 104 890 q 139 885 130 890 q 157 873 148 881 l 269 781 l 256 764 z "},"ẻ":{"ha":342,"x_min":35,"x_max":301,"o":"m 175 -15 q 100 20 128 -15 q 58 111 72 55 q 39 235 44 168 q 35 365 35 301 q 44 520 35 452 q 71 636 53 589 q 115 707 89 683 q 176 731 142 731 q 241 703 217 731 q 279 629 266 674 q 296 530 292 583 q 301 428 301 477 q 301 398 301 413 q 300 369 301 383 l 70 369 l 70 411 l 256 411 q 249 547 256 483 q 226 650 243 610 q 176 690 209 690 q 124 651 146 690 q 91 543 102 612 q 79 386 79 475 q 83 258 79 322 q 96 142 86 194 q 125 59 106 90 q 175 28 144 28 q 231 52 212 28 q 255 97 249 76 l 292 82 q 250 14 283 42 q 175 -15 218 -15 m 172 977 q 236 959 208 977 q 263 906 263 942 q 246 855 263 875 q 211 820 228 835 q 193 788 193 805 l 154 788 q 170 832 154 815 q 201 864 185 849 q 216 902 216 879 q 200 933 216 926 q 160 940 185 940 q 127 934 143 940 q 101 920 110 928 l 74 949 q 115 970 86 963 q 172 977 144 977 z "},"ȇ":{"ha":342,"x_min":35,"x_max":301,"o":"m 175 -15 q 100 20 128 -15 q 58 111 72 55 q 39 235 44 168 q 35 365 35 301 q 44 520 35 452 q 71 636 53 589 q 115 707 89 683 q 176 731 142 731 q 241 703 217 731 q 279 629 266 674 q 296 530 292 583 q 301 428 301 477 q 301 398 301 413 q 300 369 301 383 l 70 369 l 70 411 l 256 411 q 249 547 256 483 q 226 650 243 610 q 176 690 209 690 q 124 651 146 690 q 91 543 102 612 q 79 386 79 475 q 83 258 79 322 q 96 142 86 194 q 125 59 106 90 q 175 28 144 28 q 231 52 212 28 q 255 97 249 76 l 292 82 q 250 14 283 42 q 175 -15 218 -15 m 175 903 q 239 886 215 903 q 275 842 264 870 q 286 778 286 814 l 247 778 q 226 840 244 819 q 175 861 209 861 q 124 840 142 861 q 104 778 107 819 l 65 778 q 76 842 65 814 q 112 886 88 870 q 175 903 136 903 z "},"ē":{"ha":342,"x_min":35,"x_max":301,"o":"m 175 -15 q 100 20 128 -15 q 58 111 72 55 q 39 235 44 168 q 35 365 35 301 q 44 520 35 452 q 71 636 53 589 q 115 707 89 683 q 176 731 142 731 q 241 703 217 731 q 279 629 266 674 q 296 530 292 583 q 301 428 301 477 q 301 398 301 413 q 300 369 301 383 l 70 369 l 70 411 l 256 411 q 249 547 256 483 q 226 650 243 610 q 176 690 209 690 q 124 651 146 690 q 91 543 102 612 q 79 386 79 475 q 83 258 79 322 q 96 142 86 194 q 125 59 106 90 q 175 28 144 28 q 231 52 212 28 q 255 97 249 76 l 292 82 q 250 14 283 42 q 175 -15 218 -15 m 50 783 l 50 824 l 299 824 l 299 783 l 50 783 z "},"ḗ":{"ha":342,"x_min":-7,"x_max":357,"o":"m 175 -15 q 100 20 128 -15 q 58 111 72 55 q 39 235 44 168 q 35 365 35 301 q 44 520 35 452 q 71 636 53 589 q 115 707 89 683 q 176 731 142 731 q 241 703 217 731 q 279 629 266 674 q 296 530 292 583 q 301 428 301 477 q 301 398 301 413 q 300 369 301 383 l 70 369 l 70 411 l 256 411 q 249 547 256 483 q 226 650 243 610 q 176 690 209 690 q 124 651 146 690 q 91 543 102 612 q 79 386 79 475 q 83 258 79 322 q 96 142 86 194 q 125 59 106 90 q 175 28 144 28 q 231 52 212 28 q 255 97 249 76 l 292 82 q 250 14 283 42 q 175 -15 218 -15 m -7 783 l -7 824 l 357 824 l 357 783 l -7 783 m 97 842 l 81 861 l 196 951 q 217 965 206 959 q 238 970 228 970 q 250 967 244 970 q 260 957 256 964 q 263 946 263 952 q 249 922 263 933 q 219 903 235 910 l 97 842 z "},"ḕ":{"ha":342,"x_min":-7,"x_max":357,"o":"m 175 -15 q 100 20 128 -15 q 58 111 72 55 q 39 235 44 168 q 35 365 35 301 q 44 520 35 452 q 71 636 53 589 q 115 707 89 683 q 176 731 142 731 q 241 703 217 731 q 279 629 266 674 q 296 530 292 583 q 301 428 301 477 q 301 398 301 413 q 300 369 301 383 l 70 369 l 70 411 l 256 411 q 249 547 256 483 q 226 650 243 610 q 176 690 209 690 q 124 651 146 690 q 91 543 102 612 q 79 386 79 475 q 83 258 79 322 q 96 142 86 194 q 125 59 106 90 q 175 28 144 28 q 231 52 212 28 q 255 97 249 76 l 292 82 q 250 14 283 42 q 175 -15 218 -15 m -7 783 l -7 824 l 357 824 l 357 783 l -7 783 m 256 861 l 121 923 q 96 938 105 931 q 87 960 87 944 q 95 980 87 974 q 117 987 104 987 q 139 982 130 987 q 157 970 148 978 l 269 878 l 256 861 z "},"ę":{"ha":342,"x_min":35,"x_max":360,"o":"m 175 -15 q 100 20 128 -15 q 58 111 72 55 q 39 235 44 168 q 35 365 35 301 q 44 520 35 452 q 71 636 53 589 q 115 707 89 683 q 176 731 142 731 q 241 703 217 731 q 279 629 266 674 q 296 530 292 583 q 301 428 301 477 q 301 398 301 413 q 300 369 301 383 l 70 369 l 70 411 l 256 411 q 249 547 256 483 q 226 650 243 610 q 176 690 209 690 q 124 651 146 690 q 91 543 102 612 q 79 386 79 475 q 83 258 79 322 q 96 142 86 194 q 125 59 106 90 q 175 28 144 28 q 231 52 212 28 q 255 97 249 76 l 292 82 q 250 14 283 42 q 175 -15 218 -15 m 251 -187 q 199 -178 226 -187 q 155 -148 173 -169 q 138 -91 138 -127 q 153 -40 138 -62 q 191 -1 169 -17 q 227 23 212 15 l 244 10 q 211 -29 230 -3 q 192 -87 192 -54 q 216 -135 192 -126 q 263 -144 239 -144 q 302 -140 278 -144 q 342 -127 326 -136 l 360 -156 q 316 -177 344 -167 q 251 -187 287 -187 z "},"ẽ":{"ha":342,"x_min":35,"x_max":312,"o":"m 175 -15 q 100 20 128 -15 q 58 111 72 55 q 39 235 44 168 q 35 365 35 301 q 44 520 35 452 q 71 636 53 589 q 115 707 89 683 q 176 731 142 731 q 241 703 217 731 q 279 629 266 674 q 296 530 292 583 q 301 428 301 477 q 301 398 301 413 q 300 369 301 383 l 70 369 l 70 411 l 256 411 q 249 547 256 483 q 226 650 243 610 q 176 690 209 690 q 124 651 146 690 q 91 543 102 612 q 79 386 79 475 q 83 258 79 322 q 96 142 86 194 q 125 59 106 90 q 175 28 144 28 q 231 52 212 28 q 255 97 249 76 l 292 82 q 250 14 283 42 q 175 -15 218 -15 m 234 777 q 190 790 208 777 q 156 816 172 803 q 122 828 140 828 q 91 813 101 828 q 77 788 81 798 l 38 811 q 52 840 42 824 q 78 867 62 856 q 118 879 95 879 q 164 866 144 879 q 200 840 183 853 q 235 826 217 826 q 260 838 251 826 q 274 859 269 850 l 312 832 q 298 807 308 820 q 272 786 288 794 q 234 777 256 777 z "},"ə":{"ha":352,"x_min":35,"x_max":311,"o":"m 35 726 l 69 726 q 70 696 69 710 q 74 681 72 681 l 79 629 l 35 629 l 35 726 m 171 742 q 246 707 218 742 q 288 615 274 672 q 307 492 302 558 q 311 362 311 425 q 302 206 311 274 q 275 91 293 138 q 231 19 257 44 q 169 -5 204 -5 q 105 24 129 -5 q 67 98 80 52 q 50 196 54 143 q 45 299 45 249 q 45 328 45 314 q 46 357 45 343 l 276 357 l 276 315 l 90 315 q 97 180 90 243 q 120 76 103 116 q 169 37 137 37 q 222 76 201 37 q 255 183 244 115 q 267 340 267 252 q 263 468 267 405 q 250 584 260 532 q 221 667 240 636 q 171 699 202 699 q 115 675 134 699 q 91 629 97 651 l 53 644 q 96 713 63 684 q 171 742 128 742 z "},"f":{"ha":290,"x_min":26,"x_max":306,"o":"m 34 0 l 34 42 l 108 42 l 108 685 l 26 685 l 26 727 l 108 727 l 108 841 q 121 962 108 916 q 158 1028 134 1008 q 215 1049 183 1049 q 283 1004 260 1049 q 306 889 306 958 q 299 856 306 868 q 279 844 293 844 q 260 855 266 844 q 253 881 253 865 q 256 900 253 892 q 259 917 258 908 q 261 940 261 926 q 249 986 261 964 q 215 1008 237 1008 q 186 998 199 1008 q 166 967 174 988 q 153 917 158 947 q 149 846 149 887 l 149 727 l 231 727 l 231 685 l 149 685 l 149 42 l 224 42 l 224 0 l 34 0 z "},"g":{"ha":392,"x_min":35,"x_max":369,"o":"m 201 -346 q 105 -318 142 -346 q 52 -247 69 -290 q 35 -160 35 -204 q 44 -89 35 -119 q 65 -40 52 -60 q 92 -8 78 -20 q 119 9 107 3 q 100 16 112 10 q 76 34 88 22 q 55 65 64 46 q 47 111 47 84 q 58 160 47 140 q 85 191 69 181 q 113 201 101 201 q 118 201 115 201 q 122 201 122 201 q 102 230 112 210 q 84 279 92 249 q 71 349 76 309 q 67 437 67 388 q 76 576 67 519 q 103 666 85 632 q 146 716 121 701 q 203 731 172 731 q 277 697 249 731 q 318 600 305 663 q 331 452 331 538 q 322 324 331 378 q 298 232 314 269 q 257 178 281 196 q 199 160 232 160 q 161 168 174 160 q 147 176 148 175 q 144 177 146 176 q 140 177 143 177 q 107 160 124 177 q 90 116 90 142 q 114 60 90 79 q 202 34 138 42 q 329 -21 291 25 q 367 -150 367 -67 q 355 -234 367 -197 q 320 -295 342 -270 q 267 -333 297 -320 q 201 -346 237 -346 m 201 -307 q 290 -267 256 -307 q 324 -163 324 -226 q 301 -52 324 -85 q 221 -10 278 -19 q 194 -6 206 -8 q 172 -2 181 -4 q 159 0 163 -1 q 113 -41 130 -16 q 88 -95 95 -66 q 80 -154 80 -124 q 93 -225 80 -190 q 132 -283 106 -260 q 201 -307 159 -307 m 199 202 q 243 223 224 202 q 274 297 263 243 q 285 449 285 351 q 274 598 285 546 q 244 669 263 649 q 202 690 226 690 q 158 669 178 690 q 125 596 138 649 q 113 444 113 543 q 125 295 113 348 q 157 223 137 243 q 199 202 176 202 m 247 692 q 277 745 252 725 q 328 765 302 765 q 360 756 351 765 q 369 730 369 747 q 362 707 369 717 q 340 698 354 698 q 325 703 331 698 q 316 713 320 708 q 303 717 312 717 q 286 709 293 717 q 280 688 280 700 l 247 692 z "},"ğ":{"ha":392,"x_min":35,"x_max":369,"o":"m 201 -346 q 105 -318 142 -346 q 52 -247 69 -290 q 35 -160 35 -204 q 44 -89 35 -119 q 65 -40 52 -60 q 92 -8 78 -20 q 119 9 107 3 q 100 16 112 10 q 76 34 88 22 q 55 65 64 46 q 47 111 47 84 q 58 160 47 140 q 85 191 69 181 q 113 201 101 201 q 118 201 115 201 q 122 201 122 201 q 102 230 112 210 q 84 279 92 249 q 71 349 76 309 q 67 437 67 388 q 76 576 67 519 q 103 666 85 632 q 146 716 121 701 q 203 731 172 731 q 277 697 249 731 q 318 600 305 663 q 331 452 331 538 q 322 324 331 378 q 298 232 314 269 q 257 178 281 196 q 199 160 232 160 q 161 168 174 160 q 147 176 148 175 q 144 177 146 176 q 140 177 143 177 q 107 160 124 177 q 90 116 90 142 q 114 60 90 79 q 202 34 138 42 q 329 -21 291 25 q 367 -150 367 -67 q 355 -234 367 -197 q 320 -295 342 -270 q 267 -333 297 -320 q 201 -346 237 -346 m 201 -307 q 290 -267 256 -307 q 324 -163 324 -226 q 301 -52 324 -85 q 221 -10 278 -19 q 194 -6 206 -8 q 172 -2 181 -4 q 159 0 163 -1 q 113 -41 130 -16 q 88 -95 95 -66 q 80 -154 80 -124 q 93 -225 80 -190 q 132 -283 106 -260 q 201 -307 159 -307 m 199 202 q 243 223 224 202 q 274 297 263 243 q 285 449 285 351 q 274 598 285 546 q 244 669 263 649 q 202 690 226 690 q 158 669 178 690 q 125 596 138 649 q 113 444 113 543 q 125 295 113 348 q 157 223 137 243 q 199 202 176 202 m 247 692 q 277 745 252 725 q 328 765 302 765 q 360 756 351 765 q 369 730 369 747 q 362 707 369 717 q 340 698 354 698 q 325 703 331 698 q 316 713 320 708 q 303 717 312 717 q 286 709 293 717 q 280 688 280 700 l 247 692 m 197 765 q 133 781 158 765 q 98 826 109 797 q 87 890 87 854 l 126 890 q 146 828 128 849 q 197 806 163 806 q 248 828 231 806 q 268 890 265 849 l 308 890 q 297 826 308 854 q 261 781 285 797 q 197 765 236 765 z "},"ǧ":{"ha":392,"x_min":35,"x_max":369,"o":"m 201 -346 q 105 -318 142 -346 q 52 -247 69 -290 q 35 -160 35 -204 q 44 -89 35 -119 q 65 -40 52 -60 q 92 -8 78 -20 q 119 9 107 3 q 100 16 112 10 q 76 34 88 22 q 55 65 64 46 q 47 111 47 84 q 58 160 47 140 q 85 191 69 181 q 113 201 101 201 q 118 201 115 201 q 122 201 122 201 q 102 230 112 210 q 84 279 92 249 q 71 349 76 309 q 67 437 67 388 q 76 576 67 519 q 103 666 85 632 q 146 716 121 701 q 203 731 172 731 q 277 697 249 731 q 318 600 305 663 q 331 452 331 538 q 322 324 331 378 q 298 232 314 269 q 257 178 281 196 q 199 160 232 160 q 161 168 174 160 q 147 176 148 175 q 144 177 146 176 q 140 177 143 177 q 107 160 124 177 q 90 116 90 142 q 114 60 90 79 q 202 34 138 42 q 329 -21 291 25 q 367 -150 367 -67 q 355 -234 367 -197 q 320 -295 342 -270 q 267 -333 297 -320 q 201 -346 237 -346 m 201 -307 q 290 -267 256 -307 q 324 -163 324 -226 q 301 -52 324 -85 q 221 -10 278 -19 q 194 -6 206 -8 q 172 -2 181 -4 q 159 0 163 -1 q 113 -41 130 -16 q 88 -95 95 -66 q 80 -154 80 -124 q 93 -225 80 -190 q 132 -283 106 -260 q 201 -307 159 -307 m 199 202 q 243 223 224 202 q 274 297 263 243 q 285 449 285 351 q 274 598 285 546 q 244 669 263 649 q 202 690 226 690 q 158 669 178 690 q 125 596 138 649 q 113 444 113 543 q 125 295 113 348 q 157 223 137 243 q 199 202 176 202 m 247 692 q 277 745 252 725 q 328 765 302 765 q 360 756 351 765 q 369 730 369 747 q 362 707 369 717 q 340 698 354 698 q 325 703 331 698 q 316 713 320 708 q 303 717 312 717 q 286 709 293 717 q 280 688 280 700 l 247 692 m 174 765 l 72 910 l 113 910 l 198 811 l 283 910 l 324 910 l 223 765 l 174 765 z "},"ĝ":{"ha":392,"x_min":35,"x_max":369,"o":"m 201 -346 q 105 -318 142 -346 q 52 -247 69 -290 q 35 -160 35 -204 q 44 -89 35 -119 q 65 -40 52 -60 q 92 -8 78 -20 q 119 9 107 3 q 100 16 112 10 q 76 34 88 22 q 55 65 64 46 q 47 111 47 84 q 58 160 47 140 q 85 191 69 181 q 113 201 101 201 q 118 201 115 201 q 122 201 122 201 q 102 230 112 210 q 84 279 92 249 q 71 349 76 309 q 67 437 67 388 q 76 576 67 519 q 103 666 85 632 q 146 716 121 701 q 203 731 172 731 q 277 697 249 731 q 318 600 305 663 q 331 452 331 538 q 322 324 331 378 q 298 232 314 269 q 257 178 281 196 q 199 160 232 160 q 161 168 174 160 q 147 176 148 175 q 144 177 146 176 q 140 177 143 177 q 107 160 124 177 q 90 116 90 142 q 114 60 90 79 q 202 34 138 42 q 329 -21 291 25 q 367 -150 367 -67 q 355 -234 367 -197 q 320 -295 342 -270 q 267 -333 297 -320 q 201 -346 237 -346 m 201 -307 q 290 -267 256 -307 q 324 -163 324 -226 q 301 -52 324 -85 q 221 -10 278 -19 q 194 -6 206 -8 q 172 -2 181 -4 q 159 0 163 -1 q 113 -41 130 -16 q 88 -95 95 -66 q 80 -154 80 -124 q 93 -225 80 -190 q 132 -283 106 -260 q 201 -307 159 -307 m 199 202 q 243 223 224 202 q 274 297 263 243 q 285 449 285 351 q 274 598 285 546 q 244 669 263 649 q 202 690 226 690 q 158 669 178 690 q 125 596 138 649 q 113 444 113 543 q 125 295 113 348 q 157 223 137 243 q 199 202 176 202 m 247 692 q 277 745 252 725 q 328 765 302 765 q 360 756 351 765 q 369 730 369 747 q 362 707 369 717 q 340 698 354 698 q 325 703 331 698 q 316 713 320 708 q 303 717 312 717 q 286 709 293 717 q 280 688 280 700 l 247 692 m 72 776 l 174 921 l 223 921 l 324 776 l 283 776 l 198 875 l 113 776 l 72 776 z "},"ģ":{"ha":392,"x_min":35,"x_max":369,"o":"m 201 -346 q 105 -318 142 -346 q 52 -247 69 -290 q 35 -160 35 -204 q 44 -89 35 -119 q 65 -40 52 -60 q 92 -8 78 -20 q 119 9 107 3 q 100 16 112 10 q 76 34 88 22 q 55 65 64 46 q 47 111 47 84 q 58 160 47 140 q 85 191 69 181 q 113 201 101 201 q 118 201 115 201 q 122 201 122 201 q 102 230 112 210 q 84 279 92 249 q 71 349 76 309 q 67 437 67 388 q 76 576 67 519 q 103 666 85 632 q 146 716 121 701 q 203 731 172 731 q 277 697 249 731 q 318 600 305 663 q 331 452 331 538 q 322 324 331 378 q 298 232 314 269 q 257 178 281 196 q 199 160 232 160 q 161 168 174 160 q 147 176 148 175 q 144 177 146 176 q 140 177 143 177 q 107 160 124 177 q 90 116 90 142 q 114 60 90 79 q 202 34 138 42 q 329 -21 291 25 q 367 -150 367 -67 q 355 -234 367 -197 q 320 -295 342 -270 q 267 -333 297 -320 q 201 -346 237 -346 m 201 -307 q 290 -267 256 -307 q 324 -163 324 -226 q 301 -52 324 -85 q 221 -10 278 -19 q 194 -6 206 -8 q 172 -2 181 -4 q 159 0 163 -1 q 113 -41 130 -16 q 88 -95 95 -66 q 80 -154 80 -124 q 93 -225 80 -190 q 132 -283 106 -260 q 201 -307 159 -307 m 199 202 q 243 223 224 202 q 274 297 263 243 q 285 449 285 351 q 274 598 285 546 q 244 669 263 649 q 202 690 226 690 q 158 669 178 690 q 125 596 138 649 q 113 444 113 543 q 125 295 113 348 q 157 223 137 243 q 199 202 176 202 m 247 692 q 277 745 252 725 q 328 765 302 765 q 360 756 351 765 q 369 730 369 747 q 362 707 369 717 q 340 698 354 698 q 325 703 331 698 q 316 713 320 708 q 303 717 312 717 q 286 709 293 717 q 280 688 280 700 l 247 692 m 201 910 l 219 889 q 201 872 213 885 q 190 852 190 860 q 198 855 191 855 q 224 844 214 855 q 235 818 235 833 q 224 792 235 802 q 197 781 213 781 q 166 794 178 781 q 153 827 153 807 q 161 862 153 846 q 180 890 169 878 q 201 910 191 903 z "},"ġ":{"ha":392,"x_min":35,"x_max":369,"o":"m 201 -346 q 105 -318 142 -346 q 52 -247 69 -290 q 35 -160 35 -204 q 44 -89 35 -119 q 65 -40 52 -60 q 92 -8 78 -20 q 119 9 107 3 q 100 16 112 10 q 76 34 88 22 q 55 65 64 46 q 47 111 47 84 q 58 160 47 140 q 85 191 69 181 q 113 201 101 201 q 118 201 115 201 q 122 201 122 201 q 102 230 112 210 q 84 279 92 249 q 71 349 76 309 q 67 437 67 388 q 76 576 67 519 q 103 666 85 632 q 146 716 121 701 q 203 731 172 731 q 277 697 249 731 q 318 600 305 663 q 331 452 331 538 q 322 324 331 378 q 298 232 314 269 q 257 178 281 196 q 199 160 232 160 q 161 168 174 160 q 147 176 148 175 q 144 177 146 176 q 140 177 143 177 q 107 160 124 177 q 90 116 90 142 q 114 60 90 79 q 202 34 138 42 q 329 -21 291 25 q 367 -150 367 -67 q 355 -234 367 -197 q 320 -295 342 -270 q 267 -333 297 -320 q 201 -346 237 -346 m 201 -307 q 290 -267 256 -307 q 324 -163 324 -226 q 301 -52 324 -85 q 221 -10 278 -19 q 194 -6 206 -8 q 172 -2 181 -4 q 159 0 163 -1 q 113 -41 130 -16 q 88 -95 95 -66 q 80 -154 80 -124 q 93 -225 80 -190 q 132 -283 106 -260 q 201 -307 159 -307 m 199 202 q 243 223 224 202 q 274 297 263 243 q 285 449 285 351 q 274 598 285 546 q 244 669 263 649 q 202 690 226 690 q 158 669 178 690 q 125 596 138 649 q 113 444 113 543 q 125 295 113 348 q 157 223 137 243 q 199 202 176 202 m 247 692 q 277 745 252 725 q 328 765 302 765 q 360 756 351 765 q 369 730 369 747 q 362 707 369 717 q 340 698 354 698 q 325 703 331 698 q 316 713 320 708 q 303 717 312 717 q 286 709 293 717 q 280 688 280 700 l 247 692 m 198 781 q 167 794 181 781 q 153 824 153 807 q 167 856 153 842 q 198 870 181 870 q 229 856 215 870 q 242 824 242 842 q 229 794 242 807 q 198 781 215 781 z "},"ḡ":{"ha":392,"x_min":16,"x_max":380,"o":"m 201 -346 q 105 -318 142 -346 q 52 -247 69 -290 q 35 -160 35 -204 q 44 -89 35 -119 q 65 -40 52 -60 q 92 -8 78 -20 q 119 9 107 3 q 100 16 112 10 q 76 34 88 22 q 55 65 64 46 q 47 111 47 84 q 58 160 47 140 q 85 191 69 181 q 113 201 101 201 q 118 201 115 201 q 122 201 122 201 q 102 230 112 210 q 84 279 92 249 q 71 349 76 309 q 67 437 67 388 q 76 576 67 519 q 103 666 85 632 q 146 716 121 701 q 203 731 172 731 q 277 697 249 731 q 318 600 305 663 q 331 452 331 538 q 322 324 331 378 q 298 232 314 269 q 257 178 281 196 q 199 160 232 160 q 161 168 174 160 q 147 176 148 175 q 144 177 146 176 q 140 177 143 177 q 107 160 124 177 q 90 116 90 142 q 114 60 90 79 q 202 34 138 42 q 329 -21 291 25 q 367 -150 367 -67 q 355 -234 367 -197 q 320 -295 342 -270 q 267 -333 297 -320 q 201 -346 237 -346 m 201 -307 q 290 -267 256 -307 q 324 -163 324 -226 q 301 -52 324 -85 q 221 -10 278 -19 q 194 -6 206 -8 q 172 -2 181 -4 q 159 0 163 -1 q 113 -41 130 -16 q 88 -95 95 -66 q 80 -154 80 -124 q 93 -225 80 -190 q 132 -283 106 -260 q 201 -307 159 -307 m 199 202 q 243 223 224 202 q 274 297 263 243 q 285 449 285 351 q 274 598 285 546 q 244 669 263 649 q 202 690 226 690 q 158 669 178 690 q 125 596 138 649 q 113 444 113 543 q 125 295 113 348 q 157 223 137 243 q 199 202 176 202 m 247 692 q 277 745 252 725 q 328 765 302 765 q 360 756 351 765 q 369 730 369 747 q 362 707 369 717 q 340 698 354 698 q 325 703 331 698 q 316 713 320 708 q 303 717 312 717 q 286 709 293 717 q 280 688 280 700 l 247 692 m 16 784 l 16 826 l 380 826 l 380 784 l 16 784 z "},"h":{"ha":463,"x_min":24,"x_max":443,"o":"m 24 0 l 24 42 l 94 42 l 94 1000 l 24 1000 l 24 1042 l 136 1042 l 136 638 q 154 675 138 652 q 196 715 170 697 q 253 733 222 733 q 308 717 281 733 q 353 656 335 701 q 372 519 372 610 l 372 42 l 443 42 l 443 0 l 269 0 l 269 42 l 330 42 l 330 500 q 310 645 330 601 q 245 688 290 688 q 191 662 216 688 q 152 598 167 635 q 136 528 137 561 l 136 42 l 197 42 l 197 0 l 24 0 z "},"ħ":{"ha":463,"x_min":23,"x_max":443,"o":"m 23 872 l 23 913 l 288 913 l 288 872 l 23 872 m 24 0 l 24 42 l 94 42 l 94 1000 l 24 1000 l 24 1042 l 136 1042 l 136 638 q 154 675 138 652 q 196 715 170 697 q 253 733 222 733 q 308 717 281 733 q 353 656 335 701 q 372 519 372 610 l 372 42 l 443 42 l 443 0 l 269 0 l 269 42 l 330 42 l 330 500 q 310 645 330 601 q 245 688 290 688 q 191 662 216 688 q 152 598 167 635 q 136 528 137 561 l 136 42 l 197 42 l 197 0 l 24 0 z "},"ḫ":{"ha":463,"x_min":24,"x_max":443,"o":"m 24 0 l 24 42 l 94 42 l 94 1000 l 24 1000 l 24 1042 l 136 1042 l 136 638 q 154 675 138 652 q 196 715 170 697 q 253 733 222 733 q 308 717 281 733 q 353 656 335 701 q 372 519 372 610 l 372 42 l 443 42 l 443 0 l 269 0 l 269 42 l 330 42 l 330 500 q 310 645 330 601 q 245 688 290 688 q 191 662 216 688 q 152 598 167 635 q 136 528 137 561 l 136 42 l 197 42 l 197 0 l 24 0 m 235 -194 q 172 -178 196 -194 q 136 -133 147 -162 q 125 -69 125 -105 l 164 -69 q 184 -131 167 -110 q 235 -153 201 -153 q 286 -131 269 -153 q 306 -69 303 -110 l 346 -69 q 335 -133 346 -105 q 299 -178 324 -162 q 235 -194 274 -194 z "},"ĥ":{"ha":463,"x_min":24,"x_max":443,"o":"m 24 0 l 24 42 l 94 42 l 94 1000 l 24 1000 l 24 1042 l 136 1042 l 136 638 q 154 675 138 652 q 196 715 170 697 q 253 733 222 733 q 308 717 281 733 q 353 656 335 701 q 372 519 372 610 l 372 42 l 443 42 l 443 0 l 269 0 l 269 42 l 330 42 l 330 500 q 310 645 330 601 q 245 688 290 688 q 191 662 216 688 q 152 598 167 635 q 136 528 137 561 l 136 42 l 197 42 l 197 0 l 24 0 m 108 1090 l 210 1235 l 260 1235 l 361 1090 l 319 1090 l 235 1190 l 150 1090 l 108 1090 z "},"ḥ":{"ha":463,"x_min":24,"x_max":443,"o":"m 24 0 l 24 42 l 94 42 l 94 1000 l 24 1000 l 24 1042 l 136 1042 l 136 638 q 154 675 138 652 q 196 715 170 697 q 253 733 222 733 q 308 717 281 733 q 353 656 335 701 q 372 519 372 610 l 372 42 l 443 42 l 443 0 l 269 0 l 269 42 l 330 42 l 330 500 q 310 645 330 601 q 245 688 290 688 q 191 662 216 688 q 152 598 167 635 q 136 528 137 561 l 136 42 l 197 42 l 197 0 l 24 0 m 235 -174 q 203 -161 217 -174 q 190 -131 190 -148 q 203 -99 190 -112 q 235 -85 217 -85 q 266 -99 252 -85 q 279 -131 279 -112 q 266 -161 279 -148 q 235 -174 252 -174 z "},"i":{"ha":241,"x_min":28,"x_max":222,"o":"m 28 0 l 28 42 l 103 42 l 103 685 l 28 685 l 28 727 l 145 727 l 145 42 l 222 42 l 222 0 l 28 0 m 122 897 q 88 910 101 897 q 74 943 74 924 q 88 977 74 963 q 122 991 101 991 q 154 977 140 991 q 168 943 168 963 q 154 910 168 924 q 122 897 140 897 z "},"ı":{"ha":241,"x_min":28,"x_max":222,"o":"m 28 0 l 28 42 l 103 42 l 103 685 l 28 685 l 28 727 l 145 727 l 145 42 l 222 42 l 222 0 l 28 0 z "},"í":{"ha":241,"x_min":28,"x_max":222,"o":"m 28 0 l 28 42 l 103 42 l 103 685 l 28 685 l 28 727 l 145 727 l 145 42 l 222 42 l 222 0 l 28 0 m 47 747 l 30 765 l 145 855 q 166 869 155 863 q 187 874 177 874 q 200 871 194 874 q 209 861 206 868 q 212 850 212 856 q 198 826 212 837 q 169 807 185 815 l 47 747 z "},"ĭ":{"ha":241,"x_min":13,"x_max":234,"o":"m 28 0 l 28 42 l 103 42 l 103 685 l 28 685 l 28 727 l 145 727 l 145 42 l 222 42 l 222 0 l 28 0 m 123 765 q 60 781 84 765 q 24 826 35 797 q 13 890 13 854 l 52 890 q 72 828 55 849 q 123 806 90 806 q 174 828 157 806 q 194 890 192 849 l 234 890 q 223 826 234 854 q 187 781 212 797 q 123 765 163 765 z "},"ǐ":{"ha":241,"x_min":-2,"x_max":251,"o":"m 28 0 l 28 42 l 103 42 l 103 685 l 28 685 l 28 727 l 145 727 l 145 42 l 222 42 l 222 0 l 28 0 m 100 765 l -2 910 l 40 910 l 124 811 l 209 910 l 251 910 l 149 765 l 100 765 z "},"î":{"ha":241,"x_min":-2,"x_max":251,"o":"m 28 0 l 28 42 l 103 42 l 103 685 l 28 685 l 28 727 l 145 727 l 145 42 l 222 42 l 222 0 l 28 0 m -2 776 l 100 921 l 149 921 l 251 776 l 209 776 l 124 875 l 40 776 l -2 776 z "},"ȉ":{"ha":241,"x_min":-11,"x_max":256,"o":"m 28 0 l 28 42 l 103 42 l 103 685 l 28 685 l 28 727 l 145 727 l 145 42 l 222 42 l 222 0 l 28 0 m 237 771 l 131 875 q 116 893 122 885 q 110 910 110 901 q 118 932 110 925 q 138 940 127 940 q 166 930 157 940 q 183 907 176 919 l 256 783 l 237 771 m 116 771 l 10 875 q -5 893 1 885 q -11 910 -11 901 q -2 932 -11 925 q 17 940 6 940 q 45 930 36 940 q 62 907 55 919 l 135 783 l 116 771 z "},"ï":{"ha":241,"x_min":6,"x_max":242,"o":"m 28 0 l 28 42 l 103 42 l 103 685 l 28 685 l 28 727 l 145 727 l 145 42 l 222 42 l 222 0 l 28 0 m 199 778 q 167 791 181 778 q 154 822 154 804 q 167 854 154 840 q 199 868 181 868 q 229 854 216 868 q 242 822 242 840 q 229 791 242 804 q 199 778 216 778 m 49 778 q 19 791 33 778 q 6 822 6 804 q 19 854 6 840 q 49 868 33 868 q 81 854 67 868 q 95 822 95 840 q 81 791 95 804 q 49 778 67 778 z "},"ḯ":{"ha":241,"x_min":6,"x_max":242,"o":"m 28 0 l 28 42 l 103 42 l 103 685 l 28 685 l 28 727 l 145 727 l 145 42 l 222 42 l 222 0 l 28 0 m 199 778 q 167 791 181 778 q 154 822 154 804 q 167 854 154 840 q 199 868 181 868 q 229 854 216 868 q 242 822 242 840 q 229 791 242 804 q 199 778 216 778 m 49 778 q 19 791 33 778 q 6 822 6 804 q 19 854 6 840 q 49 868 33 868 q 81 854 67 868 q 95 822 95 840 q 81 791 95 804 q 49 778 67 778 m 47 888 l 30 907 l 145 997 q 166 1010 155 1005 q 187 1016 177 1016 q 200 1013 194 1016 q 209 1003 206 1010 q 212 992 212 998 q 198 967 212 978 q 169 949 185 956 l 47 888 z "},"ị":{"ha":241,"x_min":28,"x_max":222,"o":"m 28 0 l 28 42 l 103 42 l 103 685 l 28 685 l 28 727 l 145 727 l 145 42 l 222 42 l 222 0 l 28 0 m 122 897 q 88 910 101 897 q 74 943 74 924 q 88 977 74 963 q 122 991 101 991 q 154 977 140 991 q 168 943 168 963 q 154 910 168 924 q 122 897 140 897 m 128 -174 q 97 -161 110 -174 q 83 -131 83 -148 q 97 -99 83 -112 q 128 -85 110 -85 q 159 -99 145 -85 q 172 -131 172 -112 q 159 -161 172 -148 q 128 -174 145 -174 z "},"ì":{"ha":241,"x_min":28,"x_max":222,"o":"m 28 0 l 28 42 l 103 42 l 103 685 l 28 685 l 28 727 l 145 727 l 145 42 l 222 42 l 222 0 l 28 0 m 205 765 l 70 827 q 45 842 54 835 q 36 864 36 849 q 45 884 36 878 q 67 891 53 891 q 88 886 79 891 q 106 874 97 882 l 219 783 l 205 765 z "},"ỉ":{"ha":241,"x_min":23,"x_max":222,"o":"m 28 0 l 28 42 l 103 42 l 103 685 l 28 685 l 28 727 l 145 727 l 145 42 l 222 42 l 222 0 l 28 0 m 121 978 q 185 961 158 978 q 213 907 213 943 q 195 856 213 876 q 160 821 178 836 q 142 790 142 806 l 103 790 q 119 833 103 817 q 150 865 135 850 q 165 903 165 881 q 150 934 165 927 q 109 941 134 941 q 76 935 92 941 q 50 922 60 930 l 23 950 q 64 971 35 964 q 121 978 93 978 z "},"ȋ":{"ha":241,"x_min":15,"x_max":235,"o":"m 28 0 l 28 42 l 103 42 l 103 685 l 28 685 l 28 727 l 145 727 l 145 42 l 222 42 l 222 0 l 28 0 m 124 904 q 189 888 164 904 q 224 843 213 872 q 235 779 235 815 l 196 779 q 176 841 193 820 q 124 863 158 863 q 74 841 91 863 q 53 779 56 820 l 15 779 q 26 843 15 815 q 61 888 37 872 q 124 904 85 904 z "},"ī":{"ha":241,"x_min":-1,"x_max":249,"o":"m 28 0 l 28 42 l 103 42 l 103 685 l 28 685 l 28 727 l 145 727 l 145 42 l 222 42 l 222 0 l 28 0 m -1 784 l -1 826 l 249 826 l 249 784 l -1 784 z "},"į":{"ha":250,"x_min":28,"x_max":338,"o":"m 133 892 q 98 906 114 892 q 82 941 82 921 q 98 977 82 962 q 133 993 114 993 q 169 977 153 993 q 185 941 185 962 q 177 916 185 928 q 158 898 170 905 q 133 892 147 892 m 28 0 l 28 42 l 103 42 l 103 685 l 28 685 l 28 727 l 145 727 l 145 42 l 222 42 l 222 0 l 28 0 m 229 -197 q 178 -188 204 -197 q 134 -158 151 -179 q 116 -101 116 -137 q 132 -50 116 -72 q 169 -11 148 -27 q 206 13 190 6 l 222 0 q 190 -39 208 -13 q 171 -97 171 -64 q 194 -145 171 -135 q 241 -154 217 -154 q 281 -150 257 -154 q 320 -137 304 -146 l 338 -166 q 294 -187 323 -177 q 229 -197 265 -197 z "},"ĩ":{"ha":241,"x_min":-12,"x_max":261,"o":"m 28 0 l 28 42 l 103 42 l 103 685 l 28 685 l 28 727 l 145 727 l 145 42 l 222 42 l 222 0 l 28 0 m 183 778 q 139 791 157 778 q 105 817 121 804 q 71 830 90 830 q 40 815 51 830 q 26 790 30 799 l -12 813 q 1 841 -9 826 q 28 869 11 857 q 67 881 44 881 q 113 867 94 881 q 150 841 133 854 q 185 828 167 828 q 210 840 201 828 q 224 860 219 851 l 261 833 q 248 809 258 822 q 222 787 238 796 q 183 778 206 778 z "},"j":{"ha":217,"x_min":-67,"x_max":173,"o":"m 24 -346 q -26 -327 -6 -346 q -56 -276 -46 -308 q -67 -201 -67 -243 q -59 -168 -67 -180 q -39 -156 -52 -156 q -18 -167 -25 -156 q -11 -193 -11 -178 q -12 -215 -11 -204 q -16 -238 -14 -226 q -17 -264 -17 -250 q -10 -291 -17 -283 q 6 -301 -3 -299 q 24 -303 16 -303 q 88 -253 65 -303 q 110 -111 110 -203 l 110 685 l 34 685 l 34 727 l 151 727 l 151 -77 q 142 -197 151 -147 q 116 -281 133 -248 q 76 -330 99 -314 q 24 -346 53 -346 m 128 897 q 93 910 107 897 q 78 943 78 924 q 93 977 78 963 q 128 991 107 991 q 160 977 147 991 q 173 943 173 963 q 160 910 173 924 q 128 897 147 897 z "},"ȷ":{"ha":217,"x_min":-67,"x_max":151,"o":"m 24 -346 q -26 -327 -6 -346 q -56 -276 -46 -308 q -67 -201 -67 -243 q -59 -168 -67 -180 q -39 -156 -52 -156 q -18 -167 -25 -156 q -11 -193 -11 -178 q -12 -215 -11 -204 q -16 -238 -14 -226 q -17 -264 -17 -250 q -10 -291 -17 -283 q 6 -301 -3 -299 q 24 -303 16 -303 q 88 -253 65 -303 q 110 -111 110 -203 l 110 685 l 34 685 l 34 727 l 151 727 l 151 -77 q 142 -197 151 -147 q 116 -281 133 -248 q 76 -330 99 -314 q 24 -346 53 -346 z "},"ĵ":{"ha":217,"x_min":-67,"x_max":248,"o":"m 24 -346 q -26 -327 -6 -346 q -56 -276 -46 -308 q -67 -201 -67 -243 q -59 -168 -67 -180 q -39 -156 -52 -156 q -18 -167 -25 -156 q -11 -193 -11 -178 q -12 -215 -11 -204 q -16 -238 -14 -226 q -17 -264 -17 -250 q -10 -291 -17 -283 q 6 -301 -3 -299 q 24 -303 16 -303 q 88 -253 65 -303 q 110 -111 110 -203 l 110 685 l 34 685 l 34 727 l 151 727 l 151 -77 q 142 -197 151 -147 q 116 -281 133 -248 q 76 -330 99 -314 q 24 -346 53 -346 m -5 775 l 97 920 l 147 920 l 248 775 l 206 775 l 122 874 l 37 775 l -5 775 z "},"k":{"ha":438,"x_min":30,"x_max":425,"o":"m 30 0 l 30 42 l 101 42 l 101 1000 l 30 1000 l 30 1042 l 142 1042 l 142 444 l 274 685 l 221 685 l 221 727 l 372 727 l 372 685 l 319 685 l 202 469 l 366 42 l 425 42 l 425 0 l 256 0 l 256 42 l 317 42 l 173 418 l 142 358 l 142 42 l 207 42 l 207 0 l 30 0 z "},"ķ":{"ha":438,"x_min":30,"x_max":425,"o":"m 30 0 l 30 42 l 101 42 l 101 1000 l 30 1000 l 30 1042 l 142 1042 l 142 444 l 274 685 l 221 685 l 221 727 l 372 727 l 372 685 l 319 685 l 202 469 l 366 42 l 425 42 l 425 0 l 256 0 l 256 42 l 317 42 l 173 418 l 142 358 l 142 42 l 207 42 l 207 0 l 30 0 m 223 -225 l 204 -203 q 223 -187 211 -199 q 234 -167 234 -174 q 226 -169 233 -169 q 199 -159 210 -169 q 189 -133 189 -148 q 200 -106 189 -117 q 227 -96 212 -96 q 257 -109 246 -96 q 267 -142 267 -122 q 260 -176 267 -160 q 243 -205 253 -192 q 223 -225 233 -217 z "},"ĸ":{"ha":443,"x_min":29,"x_max":410,"o":"m 29 0 l 29 42 l 94 42 l 94 685 l 29 685 l 29 726 l 201 726 l 201 685 l 135 685 l 135 392 l 320 685 l 260 685 l 260 726 l 410 726 l 410 685 l 366 685 l 162 358 l 156 389 l 349 42 l 410 42 l 410 0 l 250 0 l 250 42 l 302 42 l 128 355 l 135 357 l 135 42 l 201 42 l 201 0 l 29 0 z "}}}
